<svg width="4000" height="1200" viewBox="0 0 4000 1200" fill="none" xmlns="http://www.w3.org/2000/svg">
<path d="M3605.33 530.417V683.083H3567.17V606.75H3529V683.083H3490.83V606.75H3452.67V683.083H3414.5V606.75H3376.33V683.083H3338.17V568.583L3325.44 555.855L3261.83 606.75V625.833C3261.83 632.513 3261.83 644.917 3300 644.917V683.083C3233.59 683.083 3223.67 647.207 3223.67 625.833V482.708C3223.67 464.994 3230.7 448.005 3243.23 435.48C3255.76 422.954 3272.74 415.917 3290.46 415.917H3490.83C3521.2 415.917 3550.32 427.98 3571.8 449.453C3593.27 470.926 3605.33 500.049 3605.33 530.417Z" fill="#BDBDBD"/>
<path opacity="0.3" d="M3376.33 683.083H3338.17V568.583L3376.33 606.75V683.083ZM3529 606.75H3490.83V683.083H3529V606.75Z" fill="black"/>
<g clip-path="url(#clip0_50_2841)">
<path d="M2300.24 713.313L2326.62 667.598L2300.24 621.899L2360.69 593.395V665.859L2333.29 713.313H2300.24Z" fill="#EA7A2F"/>
<path opacity="0.3" d="M2300.24 713.313L2326.62 667.598L2300.24 621.899L2360.69 593.395V665.859L2333.29 713.313H2300.24Z" fill="white"/>
<path d="M2487.58 673.696C2486.64 672.068 2485.38 670.641 2483.89 669.497C2482.4 668.353 2480.7 667.515 2478.88 667.03C2477.07 666.545 2475.17 666.422 2473.31 666.67C2471.45 666.917 2469.65 667.529 2468.02 668.471C2465.85 669.722 2463.38 670.378 2460.87 670.374C2458.36 670.371 2455.89 669.707 2453.72 668.45C2451.54 667.194 2449.74 665.388 2448.48 663.214C2447.23 661.039 2446.57 658.573 2446.56 656.062V584.5C2446.56 546.3 2416.45 515.084 2378.73 513.124L2378.62 513.023H2376.76C2376.17 513.009 2375.6 512.938 2375 512.938C2374.7 512.938 2374.42 513.009 2374.13 513.023L2239.32 512.938L2140.16 455.688L2120.06 562.724L2146.9 578.224C2160.82 586.26 2175.26 607.65 2164.98 625.462L2114.25 713.312H2156.68L2206.27 627.438L2220.04 651.289L2184.23 713.312H2222.84L2272.42 627.438H2360.69L2383.87 667.598L2357.49 713.312H2390.54L2417.94 665.859V656.062C2417.94 663.601 2419.92 671.006 2423.69 677.534C2427.46 684.062 2432.88 689.483 2439.41 693.252C2445.94 697.02 2453.34 699.004 2460.88 699.003C2468.42 699.002 2475.82 697.017 2482.35 693.246C2485.64 691.346 2488.03 688.219 2489.01 684.553C2489.99 680.886 2489.47 676.981 2487.58 673.696V673.696Z" fill="#EA7A2F"/>
<mask id="mask0_50_2841" style="mask-type:luminance" maskUnits="userSpaceOnUse" x="2114" y="455" width="376" height="259">
<path d="M2487.58 673.696C2486.64 672.068 2485.38 670.641 2483.89 669.497C2482.4 668.353 2480.7 667.515 2478.88 667.03C2477.07 666.545 2475.17 666.422 2473.31 666.67C2471.45 666.917 2469.65 667.529 2468.02 668.471C2465.85 669.722 2463.38 670.378 2460.87 670.374C2458.36 670.371 2455.89 669.707 2453.72 668.45C2451.54 667.194 2449.74 665.388 2448.48 663.214C2447.23 661.039 2446.57 658.573 2446.56 656.062V584.5C2446.56 546.3 2416.45 515.084 2378.73 513.124L2378.62 513.023H2376.76C2376.17 513.009 2375.6 512.938 2375 512.938C2374.7 512.938 2374.42 513.009 2374.13 513.023L2239.32 512.938L2140.16 455.688L2120.06 562.724L2146.9 578.224C2160.82 586.26 2175.26 607.65 2164.98 625.462L2114.25 713.312H2156.68L2206.27 627.438L2220.04 651.289L2184.23 713.312H2222.84L2272.42 627.438H2360.69L2383.87 667.598L2357.49 713.312H2390.54L2417.94 665.859V656.062C2417.94 663.601 2419.92 671.006 2423.69 677.534C2427.46 684.062 2432.88 689.483 2439.41 693.252C2445.94 697.02 2453.34 699.004 2460.88 699.003C2468.42 699.002 2475.82 697.017 2482.35 693.246C2485.64 691.346 2488.03 688.219 2489.01 684.553C2489.99 680.886 2489.47 676.981 2487.58 673.696V673.696Z" fill="white"/>
</mask>
<g mask="url(#mask0_50_2841)">
<path opacity="0.3" d="M2446.56 558.995L2430.24 587.277L2417.94 608.588V699H2489.5V641.75L2446.56 558.995Z" fill="#231F20"/>
<path opacity="0.6" d="M2274.81 713.312L2307.87 627.438H2274.81L2225.23 713.312H2274.81Z" fill="white"/>
<g opacity="0.6">
<path d="M2460.88 648.777L2426.23 708.797H2417.94V665.859L2460.88 591.484V648.777ZM2460.88 641.75H2489.5V699H2460.88V641.75ZM2252.82 489.544L2189.74 598.798L2206.27 627.437L2277.63 503.856L2252.82 489.544ZM2397.54 472.09L2324.39 598.798L2340.92 627.437L2350.12 611.508L2360.69 593.209L2422.35 486.402L2397.54 472.09ZM2453.6 489.544L2390.52 598.798L2407.05 627.437L2478.4 503.856L2453.6 489.544ZM2318.53 490.288L2255.88 598.798L2272.42 627.437L2343.34 504.6L2318.53 490.288ZM2190.23 475.231C2190.23 475.231 2120.02 596.859 2117.87 600.573C2116 603.858 2115.51 607.75 2116.5 611.397C2117.49 615.044 2119.88 618.152 2123.16 620.042C2126.43 621.932 2130.32 622.45 2133.97 621.484C2137.62 620.518 2140.75 618.146 2142.66 614.885L2215.02 489.544L2190.23 475.231Z" fill="#231F20"/>
</g>
</g>
<path d="M2171.48 483.232L2152.56 450.456L2144.25 455.258L2034.52 518.269C2034.52 518.269 2054.06 559.102 2056.51 563.339C2058.4 566.614 2060.92 569.484 2063.92 571.786C2066.91 574.088 2070.34 575.777 2073.99 576.756C2077.64 577.735 2081.45 577.985 2085.2 577.491C2088.95 576.998 2092.56 575.771 2095.83 573.88L2099.11 571.977L2109.85 590.569C2109.85 590.569 2126.78 581.129 2148.63 568.52C2155.73 564.421 2161.95 558.964 2166.94 552.459C2171.94 545.955 2175.6 538.53 2177.72 530.61C2179.84 522.69 2180.38 514.43 2179.31 506.301C2178.24 498.172 2175.58 490.333 2171.48 483.232V483.232Z" fill="#EA7A2F"/>
<mask id="mask1_50_2841" style="mask-type:luminance" maskUnits="userSpaceOnUse" x="2034" y="450" width="146" height="141">
<path d="M2171.48 483.232L2152.56 450.456L2144.25 455.258L2034.52 518.269C2034.52 518.269 2054.06 559.102 2056.51 563.339C2058.4 566.614 2060.92 569.484 2063.92 571.786C2066.91 574.088 2070.34 575.777 2073.99 576.756C2077.64 577.735 2081.45 577.985 2085.2 577.491C2088.95 576.998 2092.56 575.771 2095.83 573.88L2099.11 571.977L2109.85 590.569C2109.85 590.569 2126.78 581.129 2148.63 568.52C2155.73 564.421 2161.95 558.964 2166.94 552.459C2171.94 545.955 2175.6 538.53 2177.72 530.61C2179.84 522.69 2180.38 514.43 2179.31 506.301C2178.24 498.172 2175.58 490.333 2171.48 483.232V483.232Z" fill="white"/>
</mask>
<g mask="url(#mask1_50_2841)">
<path opacity="0.6" d="M2031.5 527.25C2031.5 527.25 2044.77 527.422 2053.88 527.422C2066.54 527.422 2076.18 532.195 2081.28 541.019C2087.71 552.154 2099.12 571.976 2099.12 571.976L2137.34 550.243C2142.08 547.521 2146.23 543.888 2149.56 539.554C2152.88 535.219 2155.32 530.269 2156.72 524.989C2158.15 519.719 2158.53 514.217 2157.82 508.802C2157.11 503.387 2155.33 498.167 2152.59 493.444L2133.97 461.191L2150.3 441.153L2199.1 518.992L2186.14 591.713L2031.5 590.79V527.25Z" fill="white"/>
<path opacity="0.6" d="M2113.66 563.575L2102.93 544.976L2127.1 531.372C2129.33 530.089 2131.28 528.378 2132.85 526.337C2134.41 524.295 2135.55 521.964 2136.21 519.478C2136.88 517.008 2137.06 514.429 2136.73 511.89C2136.4 509.351 2135.57 506.903 2134.29 504.686L2126.09 490.517L2144.68 479.782L2152.94 494.088C2155.63 498.728 2157.38 503.856 2158.07 509.175C2158.77 514.493 2158.41 519.898 2157 525.074C2155.62 530.263 2153.23 535.127 2149.97 539.386C2146.7 543.645 2142.62 547.213 2137.96 549.885L2113.66 563.575Z" fill="#231F20"/>
</g>
<path d="M2163.29 469.041L2144.7 479.775L2133.96 461.184C2131.25 456.26 2130.58 450.471 2132.09 445.059C2133.6 439.646 2137.18 435.041 2142.04 432.232C2146.91 429.422 2152.68 428.632 2158.13 430.031C2163.57 431.43 2168.25 434.907 2171.15 439.715C2174 444.647 2174.77 450.507 2173.29 456.006C2171.82 461.505 2168.22 466.194 2163.29 469.041Z" fill="#EA7A2F"/>
<path opacity="0.8" d="M2163.29 469.041L2144.7 479.775L2133.96 461.184C2131.25 456.26 2130.58 450.471 2132.09 445.059C2133.6 439.646 2137.18 435.041 2142.04 432.232C2146.91 429.422 2152.68 428.632 2158.13 430.031C2163.57 431.43 2168.25 434.907 2171.15 439.715C2174 444.647 2174.77 450.507 2173.29 456.006C2171.82 461.505 2168.22 466.194 2163.29 469.041Z" fill="white"/>
</g>
<path d="M779.5 684.864C696.81 684.864 638.498 657.633 592.136 639.126V684.864H550.5V664.129L508.364 622.409H446.409V684.864H404.773V620.785C355.413 610.855 321.479 550.857 321.5 457.092V371.717C321.5 334.514 340.195 311.989 362.262 300.102V299.727C362.262 282.49 376.252 268.5 393.489 268.5C407.188 268.5 418.679 277.369 422.905 289.63L424.717 289.318C436.208 289.318 445.535 298.645 445.535 310.136C445.535 321.628 436.208 330.955 424.717 330.955H404.065C394.468 331.1 363.136 334.494 363.136 371.717V436.274C362.262 497.5 411.122 497.333 419.72 497.5H487.608C533.471 497.5 574.295 518.797 600.922 551.981C601.109 552.21 601.338 552.377 601.525 552.606C679.323 653.636 779.5 664.045 779.5 664.045V684.864Z" fill="#2E7D32"/>
<path d="M1880.5 563.831V724.2H1834.7V687.881L1811.8 664.981V724.2H1766V687.881L1731.44 653.325C1713.1 651.424 1693.41 648.264 1674.4 644.21V724.2H1628.6V701.346C1628.6 698.46 1628.1 662.072 1615.39 627.47C1611.97 626.165 1608.75 624.86 1605.7 623.509V724.2H1559.9V701.346C1559.88 695.735 1558.43 563.9 1468.3 563.9H1445.4L1422.5 518.1L1468.3 495.2C1468.3 495.2 1491.2 449.4 1514.1 449.4C1514.67 449.4 1515.52 449.4 1516.21 449.4C1520.92 436.095 1533.52 426.5 1548.45 426.5C1563.38 426.5 1575.98 436.095 1580.69 449.4C1629.56 449.4 1697.69 449.4 1766 449.4C1829.2 449.4 1880.45 500.627 1880.5 563.831Z" fill="#6D4C41"/>
<path d="M3081.5 576.839C3081.5 608.178 3055.83 633.694 3024.25 633.694C3001.35 633.694 2986.76 624.234 2973.89 615.91C2972.52 615.023 2971.12 614.159 2969.75 613.295L3012.32 670.014L3012.8 670.332V670.628L3012.89 670.741L3012.8 670.832V724.663H2978.45V688.025L2936.82 658.824L2921.2 683.363V724.663H2886.85V656.437H2806.7V724.663H2772.35V656.437H2752.15L2708.5 724.663H2667.79L2718.49 645.429L2669.99 565.468H2637.1L2623.5 531.355L2659.5 504.565L2659.57 504.679C2665.43 500.085 2672.71 497.242 2680.75 497.242V474.5H2715.1V497.242L2841.05 554.097L2939.82 565.468L2939.86 565.673C2964.76 569.38 2980.26 579.295 2992.69 587.323C3004.08 594.692 3011.59 599.581 3024.27 599.581C3036.91 599.581 3047.17 589.37 3047.17 576.839C3047.17 564.308 3036.91 554.097 3024.27 554.097H3012.8V519.984H3024.25C3055.83 519.984 3081.5 545.501 3081.5 576.839Z" fill="#424242"/>
<path d="M1295.5 567.6V840.5H1249.7V721.889L1226.8 674.444V733.75C1226.8 735.695 1226.57 737.64 1226.11 739.538L1201.54 840.5H1154.3L1179.72 736.099L1141.68 650.722H1089.4V840.5H1043.6V650.722H1017.68L1000.2 686.899L1041.61 783.401L999.769 802.687L949.573 685.689L991.411 599.031C945.611 586.554 914.558 544.636 907.872 485.236L837.5 460.944V413.5H974.9V460.944C974.9 482.342 979.365 532.111 1020.7 532.111L1078.66 452.594L1078.91 452.547C1093.09 429.157 1118.02 413.5 1146.65 413.5C1166.55 413.5 1184.53 421.281 1198.52 433.711L1282.08 529.834C1290.35 540.129 1295.5 553.176 1295.5 567.6Z" fill="#8D6E63"/>
<rect x="307.5" y="684.5" width="506" height="257" fill="#E59C8C"/>
<rect x="290.5" y="662.5" width="541" height="31" rx="15.5" fill="#41160C"/>
<rect x="347.5" y="876.5" width="130" height="130" rx="65" fill="#1C1B1B"/>
<circle cx="412.5" cy="941.5" r="45" fill="#50453C"/>
<rect x="643.5" y="876.5" width="130" height="130" rx="65" fill="#1C1B1B"/>
<circle cx="708.5" cy="941.5" r="45" fill="#50453C"/>
<rect x="883.5" y="684.5" width="506" height="257" fill="#E59C8C"/>
<rect x="866.5" y="662.5" width="541" height="31" rx="15.5" fill="#41160C"/>
<rect x="923.5" y="876.5" width="130" height="130" rx="65" fill="#1C1B1B"/>
<circle cx="988.5" cy="941.5" r="45" fill="#50453C"/>
<rect x="1219.5" y="876.5" width="130" height="130" rx="65" fill="#1C1B1B"/>
<circle cx="1284.5" cy="941.5" r="45" fill="#50453C"/>
<rect x="1459.5" y="684.5" width="506" height="257" fill="#E59C8C"/>
<rect x="1442.5" y="662.5" width="541" height="31" rx="15.5" fill="#41160C"/>
<rect x="1499.5" y="876.5" width="130" height="130" rx="65" fill="#1C1B1B"/>
<circle cx="1564.5" cy="941.5" r="45" fill="#50453C"/>
<rect x="1795.5" y="876.5" width="130" height="130" rx="65" fill="#1C1B1B"/>
<circle cx="1860.5" cy="941.5" r="45" fill="#50453C"/>
<rect x="2035.5" y="684.5" width="506" height="257" fill="#E59C8C"/>
<rect x="2018.5" y="662.5" width="541" height="31" rx="15.5" fill="#41160C"/>
<rect x="2075.5" y="876.5" width="130" height="130" rx="65" fill="#1C1B1B"/>
<circle cx="2140.5" cy="941.5" r="45" fill="#50453C"/>
<rect x="2371.5" y="876.5" width="130" height="130" rx="65" fill="#1C1B1B"/>
<circle cx="2436.5" cy="941.5" r="45" fill="#50453C"/>
<rect x="2611.5" y="684.5" width="506" height="257" fill="#E59C8C"/>
<rect x="2594.5" y="662.5" width="541" height="31" rx="15.5" fill="#41160C"/>
<rect x="2651.5" y="876.5" width="130" height="130" rx="65" fill="#1C1B1B"/>
<circle cx="2716.5" cy="941.5" r="45" fill="#50453C"/>
<rect x="2947.5" y="876.5" width="130" height="130" rx="65" fill="#1C1B1B"/>
<circle cx="3012.5" cy="941.5" r="45" fill="#50453C"/>
<rect x="3185.5" y="684.5" width="506" height="257" fill="#E59C8C"/>
<rect x="3168.5" y="662.5" width="541" height="31" rx="15.5" fill="#41160C"/>
<rect x="3225.5" y="876.5" width="130" height="130" rx="65" fill="#1C1B1B"/>
<circle cx="3290.5" cy="941.5" r="45" fill="#50453C"/>
<rect x="3521.5" y="876.5" width="130" height="130" rx="65" fill="#1C1B1B"/>
<circle cx="3586.5" cy="941.5" r="45" fill="#50453C"/>
<path d="M798.5 926C798.5 917.44 805.44 910.5 814 910.5H883C891.56 910.5 898.5 917.44 898.5 926V926C898.5 934.56 891.56 941.5 883 941.5H814C805.44 941.5 798.5 934.56 798.5 926V926Z" fill="#E59C8C"/>
<path d="M1374.5 926C1374.5 917.44 1381.44 910.5 1390 910.5H1459C1467.56 910.5 1474.5 917.44 1474.5 926V926C1474.5 934.56 1467.56 941.5 1459 941.5H1390C1381.44 941.5 1374.5 934.56 1374.5 926V926Z" fill="#E59C8C"/>
<path d="M1950.5 926C1950.5 917.44 1957.44 910.5 1966 910.5H2035C2043.56 910.5 2050.5 917.44 2050.5 926V926C2050.5 934.56 2043.56 941.5 2035 941.5H1966C1957.44 941.5 1950.5 934.56 1950.5 926V926Z" fill="#E59C8C"/>
<path d="M2526.5 926C2526.5 917.44 2533.44 910.5 2542 910.5H2611C2619.56 910.5 2626.5 917.44 2626.5 926V926C2626.5 934.56 2619.56 941.5 2611 941.5H2542C2533.44 941.5 2526.5 934.56 2526.5 926V926Z" fill="#E59C8C"/>
<path d="M3100.5 926C3100.5 917.44 3107.44 910.5 3116 910.5H3185C3193.56 910.5 3200.5 917.44 3200.5 926V926C3200.5 934.56 3193.56 941.5 3185 941.5H3116C3107.44 941.5 3100.5 934.56 3100.5 926V926Z" fill="#E59C8C"/>
<path d="M412.5 806.564C412.886 806.562 413.265 806.563 413.636 806.569C426.667 806.504 431.028 802.006 429.425 781.748C427.943 773.001 428.039 767.228 429.425 755.804C433.924 747.872 437.135 743.783 447.477 738.884C456.463 736.788 461.652 736.798 471.172 738.884C488.928 744.162 499.967 746.843 525.33 750.164C535.905 751.856 541.834 751.636 552.409 750.164C558.419 746.927 560.216 743.538 561.436 735.5C562.897 743.787 564.984 746.86 570.462 750.164C579.09 752.042 584.49 752.652 598.67 750.164C598.996 751.253 641.892 742.299 650.572 738.884C659.251 735.469 673.138 738.884 673.138 738.884C683.643 741.554 688.845 744.319 694.575 755.804C697.018 767.088 696.705 772.621 694.575 781.748C691.616 801.6 696.689 805.582 711.5 806.564C695.782 806.031 692.366 810.4 694.575 829.124C696.439 839.563 696.757 845.124 694.575 853.94C690.062 866.348 687.806 868.604 673.138 873.116C664.567 874.157 659.67 874.346 650.572 873.116C628.818 869.864 617.424 867.65 598.67 862.964C584.054 860.139 576.899 859.847 570.462 862.964C563.349 866.183 562.24 869.855 561.436 876.5C560.621 868.631 558.92 865.348 552.409 862.964C547.595 860.695 533.178 859.893 525.33 862.964C504.92 868.289 493.219 870.801 471.172 873.116C461.371 874.031 456.154 874.079 447.477 873.116C436.852 867.758 431.243 861.836 429.425 853.94C427.606 846.044 426.822 839.352 429.425 829.124C430.054 812.002 426.654 806.769 413.636 806.569C413.264 806.571 412.886 806.569 412.5 806.564Z" fill="white"/>
<path d="M412.5 806.564C426.457 806.481 430.072 811.514 429.425 829.124C426.822 839.352 427.606 846.044 429.425 853.94C431.243 861.836 436.852 867.758 447.477 873.116C456.154 874.079 461.371 874.031 471.172 873.116C493.219 870.801 504.92 868.289 525.33 862.964C533.178 859.893 547.595 860.695 552.409 862.964C558.92 865.348 560.621 868.631 561.436 876.5C562.24 869.855 563.349 866.183 570.462 862.964C576.899 859.847 584.054 860.139 598.67 862.964C617.424 867.65 628.818 869.864 650.572 873.116C659.67 874.346 664.567 874.157 673.138 873.116C687.806 868.604 690.062 866.348 694.575 853.94C696.757 845.124 696.439 839.563 694.575 829.124C692.366 810.4 695.782 806.031 711.5 806.564C696.689 805.582 691.616 801.6 694.575 781.748C696.705 772.621 697.018 767.088 694.575 755.804C688.845 744.319 683.643 741.554 673.138 738.884C673.138 738.884 659.251 735.469 650.572 738.884C641.892 742.299 598.996 751.253 598.67 750.164C584.49 752.652 579.09 752.042 570.462 750.164C564.984 746.86 562.897 743.787 561.436 735.5C560.216 743.538 558.419 746.927 552.409 750.164C541.834 751.636 535.905 751.856 525.33 750.164C499.967 746.843 488.928 744.162 471.172 738.884C461.652 736.798 456.463 736.788 447.477 738.884C437.135 743.783 433.924 747.872 429.425 755.804C428.039 767.228 427.943 773.001 429.425 781.748C431.073 802.584 426.414 806.748 412.5 806.564Z" stroke="#232E12" stroke-width="4"/>
<path d="M412.5 806.564C412.886 806.562 413.265 806.563 413.636 806.569C426.667 806.504 431.028 802.006 429.425 781.748C427.943 773.001 428.039 767.228 429.425 755.804C433.924 747.872 437.135 743.783 447.477 738.884C456.463 736.788 461.652 736.798 471.172 738.884C488.928 744.162 499.967 746.843 525.33 750.164C535.905 751.856 541.834 751.636 552.409 750.164C558.419 746.927 560.216 743.538 561.436 735.5C562.897 743.787 564.984 746.86 570.462 750.164C579.09 752.042 584.49 752.652 598.67 750.164C598.996 751.253 641.892 742.299 650.572 738.884C659.251 735.469 673.138 738.884 673.138 738.884C683.643 741.554 688.845 744.319 694.575 755.804C697.018 767.088 696.705 772.621 694.575 781.748C691.616 801.6 696.689 805.582 711.5 806.564C695.782 806.031 692.366 810.4 694.575 829.124C696.439 839.563 696.757 845.124 694.575 853.94C690.062 866.348 687.806 868.604 673.138 873.116C664.567 874.157 659.67 874.346 650.572 873.116C628.818 869.864 617.424 867.65 598.67 862.964C584.054 860.139 576.899 859.847 570.462 862.964C563.349 866.183 562.24 869.855 561.436 876.5C560.621 868.631 558.92 865.348 552.409 862.964C547.595 860.695 533.178 859.893 525.33 862.964C504.92 868.289 493.219 870.801 471.172 873.116C461.371 874.031 456.154 874.079 447.477 873.116C436.852 867.758 431.243 861.836 429.425 853.94C427.606 846.044 426.822 839.352 429.425 829.124C430.054 812.002 426.654 806.769 413.636 806.569C413.264 806.571 412.886 806.569 412.5 806.564Z" fill="#F1DFD3"/>
<path d="M412.5 806.564C426.457 806.481 430.072 811.514 429.425 829.124C426.822 839.352 427.606 846.044 429.425 853.94C431.243 861.836 436.852 867.758 447.477 873.116C456.154 874.079 461.371 874.031 471.172 873.116C493.219 870.801 504.92 868.289 525.33 862.964C533.178 859.893 547.595 860.695 552.409 862.964C558.92 865.348 560.621 868.631 561.436 876.5C562.24 869.855 563.349 866.183 570.462 862.964C576.899 859.847 584.054 860.139 598.67 862.964C617.424 867.65 628.818 869.864 650.572 873.116C659.67 874.346 664.567 874.157 673.138 873.116C687.806 868.604 690.062 866.348 694.575 853.94C696.757 845.124 696.439 839.563 694.575 829.124C692.366 810.4 695.782 806.031 711.5 806.564C696.689 805.582 691.616 801.6 694.575 781.748C696.705 772.621 697.018 767.088 694.575 755.804C688.845 744.319 683.643 741.554 673.138 738.884C673.138 738.884 659.251 735.469 650.572 738.884C641.892 742.299 598.996 751.253 598.67 750.164C584.49 752.652 579.09 752.042 570.462 750.164C564.984 746.86 562.897 743.787 561.436 735.5C560.216 743.538 558.419 746.927 552.409 750.164C541.834 751.636 535.905 751.856 525.33 750.164C499.967 746.843 488.928 744.162 471.172 738.884C461.652 736.798 456.463 736.788 447.477 738.884C437.135 743.783 433.924 747.872 429.425 755.804C428.039 767.228 427.943 773.001 429.425 781.748C431.073 802.584 426.414 806.748 412.5 806.564Z" stroke="#232E12" stroke-width="4"/>
<path d="M988.5 806.564C988.886 806.562 989.265 806.563 989.636 806.569C1002.67 806.504 1007.03 802.006 1005.42 781.748C1003.94 773.001 1004.04 767.228 1005.42 755.804C1009.92 747.872 1013.13 743.783 1023.48 738.884C1032.46 736.788 1037.65 736.798 1047.17 738.884C1064.93 744.162 1075.97 746.843 1101.33 750.164C1111.91 751.856 1117.83 751.636 1128.41 750.164C1134.42 746.927 1136.22 743.538 1137.44 735.5C1138.9 743.787 1140.98 746.86 1146.46 750.164C1155.09 752.042 1160.49 752.652 1174.67 750.164C1175 751.253 1217.89 742.299 1226.57 738.884C1235.25 735.469 1249.14 738.884 1249.14 738.884C1259.64 741.554 1264.85 744.319 1270.58 755.804C1273.02 767.088 1272.71 772.621 1270.58 781.748C1267.62 801.6 1272.69 805.582 1287.5 806.564C1271.78 806.031 1268.37 810.4 1270.58 829.124C1272.44 839.563 1272.76 845.124 1270.58 853.94C1266.06 866.348 1263.81 868.604 1249.14 873.116C1240.57 874.157 1235.67 874.346 1226.57 873.116C1204.82 869.864 1193.42 867.65 1174.67 862.964C1160.05 860.139 1152.9 859.847 1146.46 862.964C1139.35 866.183 1138.24 869.855 1137.44 876.5C1136.62 868.631 1134.92 865.348 1128.41 862.964C1123.59 860.695 1109.18 859.893 1101.33 862.964C1080.92 868.289 1069.22 870.801 1047.17 873.116C1037.37 874.031 1032.15 874.079 1023.48 873.116C1012.85 867.758 1007.24 861.836 1005.42 853.94C1003.61 846.044 1002.82 839.352 1005.42 829.124C1006.05 812.002 1002.65 806.769 989.636 806.569C989.264 806.571 988.886 806.569 988.5 806.564Z" fill="#F1DFD3"/>
<path d="M988.5 806.564C1002.46 806.481 1006.07 811.514 1005.42 829.124C1002.82 839.352 1003.61 846.044 1005.42 853.94C1007.24 861.836 1012.85 867.758 1023.48 873.116C1032.15 874.079 1037.37 874.031 1047.17 873.116C1069.22 870.801 1080.92 868.289 1101.33 862.964C1109.18 859.893 1123.59 860.695 1128.41 862.964C1134.92 865.348 1136.62 868.631 1137.44 876.5C1138.24 869.855 1139.35 866.183 1146.46 862.964C1152.9 859.847 1160.05 860.139 1174.67 862.964C1193.42 867.65 1204.82 869.864 1226.57 873.116C1235.67 874.346 1240.57 874.157 1249.14 873.116C1263.81 868.604 1266.06 866.348 1270.58 853.94C1272.76 845.124 1272.44 839.563 1270.58 829.124C1268.37 810.4 1271.78 806.031 1287.5 806.564C1272.69 805.582 1267.62 801.6 1270.58 781.748C1272.71 772.621 1273.02 767.088 1270.58 755.804C1264.85 744.319 1259.64 741.554 1249.14 738.884C1249.14 738.884 1235.25 735.469 1226.57 738.884C1217.89 742.299 1175 751.253 1174.67 750.164C1160.49 752.652 1155.09 752.042 1146.46 750.164C1140.98 746.86 1138.9 743.787 1137.44 735.5C1136.22 743.538 1134.42 746.927 1128.41 750.164C1117.83 751.636 1111.91 751.856 1101.33 750.164C1075.97 746.843 1064.93 744.162 1047.17 738.884C1037.65 736.798 1032.46 736.788 1023.48 738.884C1013.13 743.783 1009.92 747.872 1005.42 755.804C1004.04 767.228 1003.94 773.001 1005.42 781.748C1007.07 802.584 1002.41 806.748 988.5 806.564Z" stroke="#232E12" stroke-width="4"/>
<path d="M1564.5 806.564C1564.89 806.562 1565.27 806.563 1565.64 806.569C1578.67 806.504 1583.03 802.006 1581.42 781.748C1579.94 773.001 1580.04 767.228 1581.42 755.804C1585.92 747.872 1589.13 743.783 1599.48 738.884C1608.46 736.788 1613.65 736.798 1623.17 738.884C1640.93 744.162 1651.97 746.843 1677.33 750.164C1687.91 751.856 1693.83 751.636 1704.41 750.164C1710.42 746.927 1712.22 743.538 1713.44 735.5C1714.9 743.787 1716.98 746.86 1722.46 750.164C1731.09 752.042 1736.49 752.652 1750.67 750.164C1751 751.253 1793.89 742.299 1802.57 738.884C1811.25 735.469 1825.14 738.884 1825.14 738.884C1835.64 741.554 1840.85 744.319 1846.58 755.804C1849.02 767.088 1848.71 772.621 1846.58 781.748C1843.62 801.6 1848.69 805.582 1863.5 806.564C1847.78 806.031 1844.37 810.4 1846.58 829.124C1848.44 839.563 1848.76 845.124 1846.58 853.94C1842.06 866.348 1839.81 868.604 1825.14 873.116C1816.57 874.157 1811.67 874.346 1802.57 873.116C1780.82 869.864 1769.42 867.65 1750.67 862.964C1736.05 860.139 1728.9 859.847 1722.46 862.964C1715.35 866.183 1714.24 869.855 1713.44 876.5C1712.62 868.631 1710.92 865.348 1704.41 862.964C1699.59 860.695 1685.18 859.893 1677.33 862.964C1656.92 868.289 1645.22 870.801 1623.17 873.116C1613.37 874.031 1608.15 874.079 1599.48 873.116C1588.85 867.758 1583.24 861.836 1581.42 853.94C1579.61 846.044 1578.82 839.352 1581.42 829.124C1582.05 812.002 1578.65 806.769 1565.64 806.569C1565.26 806.571 1564.89 806.569 1564.5 806.564Z" fill="#F1DFD3"/>
<path d="M1564.5 806.564C1578.46 806.481 1582.07 811.514 1581.42 829.124C1578.82 839.352 1579.61 846.044 1581.42 853.94C1583.24 861.836 1588.85 867.758 1599.48 873.116C1608.15 874.079 1613.37 874.031 1623.17 873.116C1645.22 870.801 1656.92 868.289 1677.33 862.964C1685.18 859.893 1699.59 860.695 1704.41 862.964C1710.92 865.348 1712.62 868.631 1713.44 876.5C1714.24 869.855 1715.35 866.183 1722.46 862.964C1728.9 859.847 1736.05 860.139 1750.67 862.964C1769.42 867.65 1780.82 869.864 1802.57 873.116C1811.67 874.346 1816.57 874.157 1825.14 873.116C1839.81 868.604 1842.06 866.348 1846.58 853.94C1848.76 845.124 1848.44 839.563 1846.58 829.124C1844.37 810.4 1847.78 806.031 1863.5 806.564C1848.69 805.582 1843.62 801.6 1846.58 781.748C1848.71 772.621 1849.02 767.088 1846.58 755.804C1840.85 744.319 1835.64 741.554 1825.14 738.884C1825.14 738.884 1811.25 735.469 1802.57 738.884C1793.89 742.299 1751 751.253 1750.67 750.164C1736.49 752.652 1731.09 752.042 1722.46 750.164C1716.98 746.86 1714.9 743.787 1713.44 735.5C1712.22 743.538 1710.42 746.927 1704.41 750.164C1693.83 751.636 1687.91 751.856 1677.33 750.164C1651.97 746.843 1640.93 744.162 1623.17 738.884C1613.65 736.798 1608.46 736.788 1599.48 738.884C1589.13 743.783 1585.92 747.872 1581.42 755.804C1580.04 767.228 1579.94 773.001 1581.42 781.748C1583.07 802.584 1578.41 806.748 1564.5 806.564Z" stroke="#232E12" stroke-width="4"/>
<path d="M2140.5 806.564C2140.89 806.562 2141.27 806.563 2141.64 806.569C2154.67 806.504 2159.03 802.006 2157.42 781.748C2155.94 773.001 2156.04 767.228 2157.42 755.804C2161.92 747.872 2165.13 743.783 2175.48 738.884C2184.46 736.788 2189.65 736.798 2199.17 738.884C2216.93 744.162 2227.97 746.843 2253.33 750.164C2263.91 751.856 2269.83 751.636 2280.41 750.164C2286.42 746.927 2288.22 743.538 2289.44 735.5C2290.9 743.787 2292.98 746.86 2298.46 750.164C2307.09 752.042 2312.49 752.652 2326.67 750.164C2327 751.253 2369.89 742.299 2378.57 738.884C2387.25 735.469 2401.14 738.884 2401.14 738.884C2411.64 741.554 2416.85 744.319 2422.58 755.804C2425.02 767.088 2424.71 772.621 2422.58 781.748C2419.62 801.6 2424.69 805.582 2439.5 806.564C2423.78 806.031 2420.37 810.4 2422.58 829.124C2424.44 839.563 2424.76 845.124 2422.58 853.94C2418.06 866.348 2415.81 868.604 2401.14 873.116C2392.57 874.157 2387.67 874.346 2378.57 873.116C2356.82 869.864 2345.42 867.65 2326.67 862.964C2312.05 860.139 2304.9 859.847 2298.46 862.964C2291.35 866.183 2290.24 869.855 2289.44 876.5C2288.62 868.631 2286.92 865.348 2280.41 862.964C2275.59 860.695 2261.18 859.893 2253.33 862.964C2232.92 868.289 2221.22 870.801 2199.17 873.116C2189.37 874.031 2184.15 874.079 2175.48 873.116C2164.85 867.758 2159.24 861.836 2157.42 853.94C2155.61 846.044 2154.82 839.352 2157.42 829.124C2158.05 812.002 2154.65 806.769 2141.64 806.569C2141.26 806.571 2140.89 806.569 2140.5 806.564Z" fill="#F1DFD3"/>
<path d="M2140.5 806.564C2154.46 806.481 2158.07 811.514 2157.42 829.124C2154.82 839.352 2155.61 846.044 2157.42 853.94C2159.24 861.836 2164.85 867.758 2175.48 873.116C2184.15 874.079 2189.37 874.031 2199.17 873.116C2221.22 870.801 2232.92 868.289 2253.33 862.964C2261.18 859.893 2275.59 860.695 2280.41 862.964C2286.92 865.348 2288.62 868.631 2289.44 876.5C2290.24 869.855 2291.35 866.183 2298.46 862.964C2304.9 859.847 2312.05 860.139 2326.67 862.964C2345.42 867.65 2356.82 869.864 2378.57 873.116C2387.67 874.346 2392.57 874.157 2401.14 873.116C2415.81 868.604 2418.06 866.348 2422.58 853.94C2424.76 845.124 2424.44 839.563 2422.58 829.124C2420.37 810.4 2423.78 806.031 2439.5 806.564C2424.69 805.582 2419.62 801.6 2422.58 781.748C2424.71 772.621 2425.02 767.088 2422.58 755.804C2416.85 744.319 2411.64 741.554 2401.14 738.884C2401.14 738.884 2387.25 735.469 2378.57 738.884C2369.89 742.299 2327 751.253 2326.67 750.164C2312.49 752.652 2307.09 752.042 2298.46 750.164C2292.98 746.86 2290.9 743.787 2289.44 735.5C2288.22 743.538 2286.42 746.927 2280.41 750.164C2269.83 751.636 2263.91 751.856 2253.33 750.164C2227.97 746.843 2216.93 744.162 2199.17 738.884C2189.65 736.798 2184.46 736.788 2175.48 738.884C2165.13 743.783 2161.92 747.872 2157.42 755.804C2156.04 767.228 2155.94 773.001 2157.42 781.748C2159.07 802.584 2154.41 806.748 2140.5 806.564Z" stroke="#232E12" stroke-width="4"/>
<path d="M2716.5 806.564C2716.89 806.562 2717.27 806.563 2717.64 806.569C2730.67 806.504 2735.03 802.006 2733.42 781.748C2731.94 773.001 2732.04 767.228 2733.42 755.804C2737.92 747.872 2741.13 743.783 2751.48 738.884C2760.46 736.788 2765.65 736.798 2775.17 738.884C2792.93 744.162 2803.97 746.843 2829.33 750.164C2839.91 751.856 2845.83 751.636 2856.41 750.164C2862.42 746.927 2864.22 743.538 2865.44 735.5C2866.9 743.787 2868.98 746.86 2874.46 750.164C2883.09 752.042 2888.49 752.652 2902.67 750.164C2903 751.253 2945.89 742.299 2954.57 738.884C2963.25 735.469 2977.14 738.884 2977.14 738.884C2987.64 741.554 2992.85 744.319 2998.58 755.804C3001.02 767.088 3000.71 772.621 2998.58 781.748C2995.62 801.6 3000.69 805.582 3015.5 806.564C2999.78 806.031 2996.37 810.4 2998.58 829.124C3000.44 839.563 3000.76 845.124 2998.58 853.94C2994.06 866.348 2991.81 868.604 2977.14 873.116C2968.57 874.157 2963.67 874.346 2954.57 873.116C2932.82 869.864 2921.42 867.65 2902.67 862.964C2888.05 860.139 2880.9 859.847 2874.46 862.964C2867.35 866.183 2866.24 869.855 2865.44 876.5C2864.62 868.631 2862.92 865.348 2856.41 862.964C2851.59 860.695 2837.18 859.893 2829.33 862.964C2808.92 868.289 2797.22 870.801 2775.17 873.116C2765.37 874.031 2760.15 874.079 2751.48 873.116C2740.85 867.758 2735.24 861.836 2733.42 853.94C2731.61 846.044 2730.82 839.352 2733.42 829.124C2734.05 812.002 2730.65 806.769 2717.64 806.569C2717.26 806.571 2716.89 806.569 2716.5 806.564Z" fill="#F1DFD3"/>
<path d="M2716.5 806.564C2730.46 806.481 2734.07 811.514 2733.42 829.124C2730.82 839.352 2731.61 846.044 2733.42 853.94C2735.24 861.836 2740.85 867.758 2751.48 873.116C2760.15 874.079 2765.37 874.031 2775.17 873.116C2797.22 870.801 2808.92 868.289 2829.33 862.964C2837.18 859.893 2851.59 860.695 2856.41 862.964C2862.92 865.348 2864.62 868.631 2865.44 876.5C2866.24 869.855 2867.35 866.183 2874.46 862.964C2880.9 859.847 2888.05 860.139 2902.67 862.964C2921.42 867.65 2932.82 869.864 2954.57 873.116C2963.67 874.346 2968.57 874.157 2977.14 873.116C2991.81 868.604 2994.06 866.348 2998.58 853.94C3000.76 845.124 3000.44 839.563 2998.58 829.124C2996.37 810.4 2999.78 806.031 3015.5 806.564C3000.69 805.582 2995.62 801.6 2998.58 781.748C3000.71 772.621 3001.02 767.088 2998.58 755.804C2992.85 744.319 2987.64 741.554 2977.14 738.884C2977.14 738.884 2963.25 735.469 2954.57 738.884C2945.89 742.299 2903 751.253 2902.67 750.164C2888.49 752.652 2883.09 752.042 2874.46 750.164C2868.98 746.86 2866.9 743.787 2865.44 735.5C2864.22 743.538 2862.42 746.927 2856.41 750.164C2845.83 751.636 2839.91 751.856 2829.33 750.164C2803.97 746.843 2792.93 744.162 2775.17 738.884C2765.65 736.798 2760.46 736.788 2751.48 738.884C2741.13 743.783 2737.92 747.872 2733.42 755.804C2732.04 767.228 2731.94 773.001 2733.42 781.748C2735.07 802.584 2730.41 806.748 2716.5 806.564Z" stroke="#232E12" stroke-width="4"/>
<path d="M3290.5 806.564C3290.89 806.562 3291.27 806.563 3291.64 806.569C3304.67 806.504 3309.03 802.006 3307.42 781.748C3305.94 773.001 3306.04 767.228 3307.42 755.804C3311.92 747.872 3315.13 743.783 3325.48 738.884C3334.46 736.788 3339.65 736.798 3349.17 738.884C3366.93 744.162 3377.97 746.843 3403.33 750.164C3413.91 751.856 3419.83 751.636 3430.41 750.164C3436.42 746.927 3438.22 743.538 3439.44 735.5C3440.9 743.787 3442.98 746.86 3448.46 750.164C3457.09 752.042 3462.49 752.652 3476.67 750.164C3477 751.253 3519.89 742.299 3528.57 738.884C3537.25 735.469 3551.14 738.884 3551.14 738.884C3561.64 741.554 3566.85 744.319 3572.58 755.804C3575.02 767.088 3574.71 772.621 3572.58 781.748C3569.62 801.6 3574.69 805.582 3589.5 806.564C3573.78 806.031 3570.37 810.4 3572.58 829.124C3574.44 839.563 3574.76 845.124 3572.58 853.94C3568.06 866.348 3565.81 868.604 3551.14 873.116C3542.57 874.157 3537.67 874.346 3528.57 873.116C3506.82 869.864 3495.42 867.65 3476.67 862.964C3462.05 860.139 3454.9 859.847 3448.46 862.964C3441.35 866.183 3440.24 869.855 3439.44 876.5C3438.62 868.631 3436.92 865.348 3430.41 862.964C3425.59 860.695 3411.18 859.893 3403.33 862.964C3382.92 868.289 3371.22 870.801 3349.17 873.116C3339.37 874.031 3334.15 874.079 3325.48 873.116C3314.85 867.758 3309.24 861.836 3307.42 853.94C3305.61 846.044 3304.82 839.352 3307.42 829.124C3308.05 812.002 3304.65 806.769 3291.64 806.569C3291.26 806.571 3290.89 806.569 3290.5 806.564Z" fill="#F1DFD3"/>
<path d="M3290.5 806.564C3304.46 806.481 3308.07 811.514 3307.42 829.124C3304.82 839.352 3305.61 846.044 3307.42 853.94C3309.24 861.836 3314.85 867.758 3325.48 873.116C3334.15 874.079 3339.37 874.031 3349.17 873.116C3371.22 870.801 3382.92 868.289 3403.33 862.964C3411.18 859.893 3425.59 860.695 3430.41 862.964C3436.92 865.348 3438.62 868.631 3439.44 876.5C3440.24 869.855 3441.35 866.183 3448.46 862.964C3454.9 859.847 3462.05 860.139 3476.67 862.964C3495.42 867.65 3506.82 869.864 3528.57 873.116C3537.67 874.346 3542.57 874.157 3551.14 873.116C3565.81 868.604 3568.06 866.348 3572.58 853.94C3574.76 845.124 3574.44 839.563 3572.58 829.124C3570.37 810.4 3573.78 806.031 3589.5 806.564C3574.69 805.582 3569.62 801.6 3572.58 781.748C3574.71 772.621 3575.02 767.088 3572.58 755.804C3566.85 744.319 3561.64 741.554 3551.14 738.884C3551.14 738.884 3537.25 735.469 3528.57 738.884C3519.89 742.299 3477 751.253 3476.67 750.164C3462.49 752.652 3457.09 752.042 3448.46 750.164C3442.98 746.86 3440.9 743.787 3439.44 735.5C3438.22 743.538 3436.42 746.927 3430.41 750.164C3419.83 751.636 3413.91 751.856 3403.33 750.164C3377.97 746.843 3366.93 744.162 3349.17 738.884C3339.65 736.798 3334.46 736.788 3325.48 738.884C3315.13 743.783 3311.92 747.872 3307.42 755.804C3306.04 767.228 3305.94 773.001 3307.42 781.748C3309.07 802.584 3304.41 806.748 3290.5 806.564Z" stroke="#232E12" stroke-width="4"/>
<path d="M562.491 830.523C558.582 830.508 555.219 829.545 552.401 827.636C549.598 825.727 547.438 822.962 545.923 819.341C544.423 815.72 543.681 811.364 543.696 806.273C543.696 801.197 544.446 796.871 545.946 793.295C547.461 789.72 549.62 787 552.423 785.136C555.241 783.258 558.598 782.318 562.491 782.318C566.385 782.318 569.734 783.258 572.537 785.136C575.355 787.015 577.522 789.742 579.037 793.318C580.552 796.879 581.302 801.197 581.287 806.273C581.287 811.379 580.529 815.742 579.014 819.364C577.514 822.985 575.363 825.75 572.56 827.659C569.757 829.568 566.401 830.523 562.491 830.523ZM562.491 822.364C565.158 822.364 567.287 821.023 568.878 818.341C570.469 815.659 571.257 811.636 571.241 806.273C571.241 802.742 570.878 799.803 570.151 797.455C569.438 795.106 568.423 793.341 567.105 792.159C565.802 790.977 564.264 790.386 562.491 790.386C559.84 790.386 557.719 791.712 556.128 794.364C554.537 797.015 553.734 800.985 553.719 806.273C553.719 809.848 554.075 812.833 554.787 815.227C555.514 817.606 556.537 819.394 557.855 820.591C559.173 821.773 560.719 822.364 562.491 822.364Z" fill="#231A13"/>
<path d="M1146.87 782.955V829.5H1137.03V792.295H1136.75L1126.09 798.977V790.25L1137.62 782.955H1146.87Z" fill="#231A13"/>
<path d="M1698.12 829.5V822.409L1714.68 807.068C1716.09 805.705 1717.28 804.477 1718.23 803.386C1719.2 802.295 1719.93 801.227 1720.43 800.182C1720.93 799.121 1721.18 797.977 1721.18 796.75C1721.18 795.386 1720.87 794.212 1720.25 793.227C1719.63 792.227 1718.78 791.462 1717.71 790.932C1716.63 790.386 1715.41 790.114 1714.05 790.114C1712.62 790.114 1711.38 790.402 1710.32 790.977C1709.26 791.553 1708.44 792.379 1707.87 793.455C1707.29 794.53 1707 795.811 1707 797.295H1697.66C1697.66 794.25 1698.35 791.606 1699.73 789.364C1701.11 787.121 1703.04 785.386 1705.53 784.159C1708.01 782.932 1710.87 782.318 1714.12 782.318C1717.45 782.318 1720.35 782.909 1722.82 784.091C1725.31 785.258 1727.24 786.879 1728.62 788.955C1730 791.03 1730.68 793.409 1730.68 796.091C1730.68 797.848 1730.34 799.583 1729.64 801.295C1728.96 803.008 1727.74 804.909 1725.98 807C1724.22 809.076 1721.75 811.568 1718.55 814.477L1711.75 821.136V821.455H1731.3V829.5H1698.12Z" fill="#231A13"/>
<path d="M2290.38 830.136C2286.99 830.136 2283.97 829.553 2281.32 828.386C2278.68 827.205 2276.6 825.583 2275.07 823.523C2273.55 821.447 2272.77 819.053 2272.72 816.341H2282.63C2282.69 817.477 2283.07 818.477 2283.75 819.341C2284.44 820.189 2285.37 820.848 2286.52 821.318C2287.67 821.788 2288.97 822.023 2290.41 822.023C2291.91 822.023 2293.23 821.758 2294.38 821.227C2295.54 820.697 2296.44 819.962 2297.09 819.023C2297.74 818.083 2298.07 817 2298.07 815.773C2298.07 814.53 2297.72 813.432 2297.02 812.477C2296.34 811.508 2295.35 810.75 2294.07 810.205C2292.79 809.659 2291.28 809.386 2289.52 809.386H2285.18V802.159H2289.52C2291 802.159 2292.32 801.902 2293.45 801.386C2294.6 800.871 2295.5 800.159 2296.13 799.25C2296.77 798.326 2297.09 797.25 2297.09 796.023C2297.09 794.856 2296.81 793.833 2296.25 792.955C2295.7 792.061 2294.93 791.364 2293.93 790.864C2292.94 790.364 2291.79 790.114 2290.47 790.114C2289.14 790.114 2287.92 790.356 2286.82 790.841C2285.71 791.311 2284.82 791.985 2284.16 792.864C2283.49 793.742 2283.13 794.773 2283.09 795.955H2273.66C2273.7 793.273 2274.47 790.909 2275.95 788.864C2277.44 786.818 2279.44 785.22 2281.95 784.068C2284.48 782.902 2287.34 782.318 2290.52 782.318C2293.73 782.318 2296.54 782.902 2298.95 784.068C2301.36 785.235 2303.23 786.811 2304.57 788.795C2305.91 790.765 2306.58 792.977 2306.57 795.432C2306.58 798.038 2305.77 800.212 2304.13 801.955C2302.51 803.697 2300.4 804.803 2297.79 805.273V805.636C2301.22 806.076 2303.82 807.265 2305.61 809.205C2307.41 811.129 2308.31 813.538 2308.29 816.432C2308.31 819.083 2307.54 821.439 2306 823.5C2304.47 825.561 2302.35 827.182 2299.66 828.364C2296.96 829.545 2293.87 830.136 2290.38 830.136Z" fill="#231A13"/>
<path d="M2847.88 821.318V813.568L2867.31 782.955H2873.99V793.682H2870.04L2857.79 813.068V813.432H2885.4V821.318H2847.88ZM2870.22 829.5V818.955L2870.4 815.523V782.955H2879.63V829.5H2870.22Z" fill="#231A13"/>
<path d="M3440.65 830.136C3437.44 830.136 3434.57 829.545 3432.06 828.364C3429.56 827.182 3427.57 825.553 3426.1 823.477C3424.63 821.402 3423.87 819.023 3423.81 816.341H3433.35C3433.46 818.144 3434.22 819.606 3435.62 820.727C3437.03 821.848 3438.71 822.409 3440.65 822.409C3442.19 822.409 3443.56 822.068 3444.74 821.386C3445.94 820.689 3446.87 819.727 3447.53 818.5C3448.22 817.258 3448.56 815.833 3448.56 814.227C3448.56 812.591 3448.21 811.152 3447.51 809.909C3446.83 808.667 3445.88 807.697 3444.67 807C3443.46 806.303 3442.07 805.947 3440.51 805.932C3439.15 805.932 3437.82 806.212 3436.53 806.773C3435.26 807.333 3434.27 808.098 3433.56 809.068L3424.81 807.5L3427.01 782.955H3455.47V791H3435.12L3433.92 802.659H3434.19C3435.01 801.508 3436.25 800.553 3437.9 799.795C3439.55 799.038 3441.4 798.659 3443.44 798.659C3446.25 798.659 3448.75 799.318 3450.94 800.636C3453.14 801.955 3454.88 803.765 3456.15 806.068C3457.42 808.356 3458.05 810.992 3458.03 813.977C3458.05 817.114 3457.32 819.902 3455.85 822.341C3454.4 824.765 3452.36 826.674 3449.74 828.068C3447.13 829.447 3444.1 830.136 3440.65 830.136Z" fill="#231A13"/>
<path d="M1023.52 359.456C1029.57 359.999 1034.91 355.534 1035.46 349.483L1044.31 250.88C1044.85 244.829 1040.38 239.483 1034.33 238.94C1028.28 238.397 1022.94 242.862 1022.39 248.913L1014.53 336.561L926.88 328.694C920.829 328.151 915.483 332.616 914.94 338.667C914.397 344.718 918.862 350.063 924.913 350.606L1023.52 359.456ZM598.951 354.129C658.005 254.981 719.459 206.055 785.134 204.537C851.376 203.006 927.405 249.416 1016.06 355.552L1032.94 341.448C943.487 234.352 861.576 180.764 784.625 182.543C707.107 184.334 640.115 242.024 580.049 342.871L598.951 354.129Z" fill="#201A19"/>
<path d="M1601.52 359.456C1607.57 359.999 1612.91 355.534 1613.46 349.483L1622.31 250.88C1622.85 244.829 1618.38 239.483 1612.33 238.94C1606.28 238.397 1600.94 242.862 1600.39 248.913L1592.53 336.561L1504.88 328.694C1498.83 328.151 1493.48 332.616 1492.94 338.667C1492.4 344.718 1496.86 350.063 1502.91 350.606L1601.52 359.456ZM1176.95 354.129C1236.01 254.981 1297.46 206.055 1363.13 204.537C1429.38 203.006 1505.4 249.416 1594.06 355.552L1610.94 341.448C1521.49 234.352 1439.58 180.764 1362.63 182.543C1285.11 184.334 1218.12 242.024 1158.05 342.871L1176.95 354.129Z" fill="#201A19"/>
<path d="M2179.52 359.456C2185.57 359.999 2190.91 355.534 2191.46 349.483L2200.31 250.88C2200.85 244.829 2196.38 239.483 2190.33 238.94C2184.28 238.397 2178.94 242.862 2178.39 248.913L2170.53 336.561L2082.88 328.694C2076.83 328.151 2071.48 332.616 2070.94 338.667C2070.4 344.718 2074.86 350.063 2080.91 350.606L2179.52 359.456ZM1754.95 354.129C1814.01 254.981 1875.46 206.055 1941.13 204.537C2007.38 203.006 2083.4 249.416 2172.06 355.552L2188.94 341.448C2099.49 234.352 2017.58 180.764 1940.63 182.543C1863.11 184.334 1796.12 242.024 1736.05 342.871L1754.95 354.129Z" fill="#201A19"/>
<path d="M2757.52 359.456C2763.57 359.999 2768.91 355.534 2769.46 349.483L2778.31 250.88C2778.85 244.829 2774.38 239.483 2768.33 238.94C2762.28 238.397 2756.94 242.862 2756.39 248.913L2748.53 336.561L2660.88 328.694C2654.83 328.151 2649.48 332.616 2648.94 338.667C2648.4 344.718 2652.86 350.063 2658.91 350.606L2757.52 359.456ZM2332.95 354.129C2392.01 254.981 2453.46 206.055 2519.13 204.537C2585.38 203.006 2661.4 249.416 2750.06 355.552L2766.94 341.448C2677.49 234.352 2595.58 180.764 2518.63 182.543C2441.11 184.334 2374.12 242.024 2314.05 342.871L2332.95 354.129Z" fill="#201A19"/>
<path d="M3335.52 359.456C3341.57 359.999 3346.91 355.534 3347.46 349.483L3356.31 250.88C3356.85 244.829 3352.38 239.483 3346.33 238.94C3340.28 238.397 3334.94 242.862 3334.39 248.913L3326.53 336.561L3238.88 328.694C3232.83 328.151 3227.48 332.616 3226.94 338.667C3226.4 344.718 3230.86 350.063 3236.91 350.606L3335.52 359.456ZM2910.95 354.129C2970.01 254.981 3031.46 206.055 3097.13 204.537C3163.38 203.006 3239.4 249.416 3328.06 355.552L3344.94 341.448C3255.49 234.352 3173.58 180.764 3096.63 182.543C3019.11 184.334 2952.12 242.024 2892.05 342.871L2910.95 354.129Z" fill="#201A19"/>
<defs>
<clipPath id="clip0_50_2841">
<rect width="458" height="458" fill="white" transform="translate(2031.5 355.5)"/>
</clipPath>
</defs>
</svg>
