<svg width="4000" height="1200" viewBox="0 0 4000 1200" fill="none" xmlns="http://www.w3.org/2000/svg">
<path d="M2896.77 479.417V632.083H2858.6V555.75H2820.44V632.083H2782.27V555.75H2744.1V632.083H2705.94V555.75H2667.77V632.083H2629.6V517.583L2616.88 504.855L2553.27 555.75V574.833C2553.27 581.513 2553.27 593.917 2591.44 593.917V632.083C2525.03 632.083 2515.1 596.207 2515.1 574.833V431.708C2515.1 413.994 2522.14 397.005 2534.67 384.48C2547.19 371.954 2564.18 364.917 2581.9 364.917H2782.27C2812.64 364.917 2841.76 376.98 2863.23 398.453C2884.71 419.926 2896.77 449.049 2896.77 479.417Z" fill="#BDBDBD"/>
<path opacity="0.3" d="M2667.77 632.083H2629.6V517.583L2667.77 555.75V632.083ZM2820.44 555.75H2782.27V632.083H2820.44V555.75Z" fill="black"/>
<g clip-path="url(#clip0_2_692)">
<path d="M2184.68 655.313L2211.06 609.598L2184.68 563.899L2245.12 535.395V607.859L2217.72 655.313H2184.68Z" fill="#EA7A2F"/>
<path opacity="0.3" d="M2184.68 655.313L2211.06 609.598L2184.68 563.899L2245.12 535.395V607.859L2217.72 655.313H2184.68Z" fill="white"/>
<path d="M2372.01 615.696C2371.07 614.068 2369.82 612.641 2368.33 611.497C2366.84 610.353 2365.14 609.515 2363.32 609.03C2361.5 608.545 2359.61 608.422 2357.75 608.67C2355.88 608.917 2354.09 609.529 2352.46 610.471C2350.28 611.722 2347.82 612.378 2345.31 612.374C2342.8 612.371 2340.33 611.707 2338.16 610.45C2335.98 609.194 2334.18 607.388 2332.92 605.214C2331.67 603.039 2331 600.573 2331 598.062V526.5C2331 488.3 2300.89 457.084 2263.17 455.124L2263.06 455.023H2261.2C2260.61 455.009 2260.04 454.938 2259.44 454.938C2259.14 454.938 2258.86 455.009 2258.56 455.023L2123.76 454.938L2024.6 397.688L2004.5 504.724L2031.34 520.224C2045.26 528.26 2059.69 549.65 2049.42 567.462L1998.69 655.312H2041.12L2090.71 569.438L2104.48 593.289L2068.67 655.312H2107.27L2156.85 569.438H2245.13L2268.31 609.598L2241.93 655.312H2274.97L2302.38 607.859V598.062C2302.37 605.601 2304.36 613.006 2308.13 619.534C2311.9 626.062 2317.32 631.483 2323.85 635.252C2330.37 639.02 2337.78 641.004 2345.32 641.003C2352.86 641.002 2360.26 639.017 2366.79 635.246C2370.07 633.346 2372.47 630.219 2373.45 626.553C2374.43 622.886 2373.91 618.981 2372.01 615.696V615.696Z" fill="#EA7A2F"/>
<mask id="mask0_2_692" style="mask-type:luminance" maskUnits="userSpaceOnUse" x="1998" y="397" width="376" height="259">
<path d="M2372.01 615.696C2371.07 614.068 2369.82 612.641 2368.33 611.497C2366.84 610.353 2365.14 609.515 2363.32 609.03C2361.5 608.545 2359.61 608.422 2357.75 608.67C2355.88 608.917 2354.09 609.529 2352.46 610.471C2350.28 611.722 2347.82 612.378 2345.31 612.374C2342.8 612.371 2340.33 611.707 2338.16 610.45C2335.98 609.194 2334.18 607.388 2332.92 605.214C2331.67 603.039 2331 600.573 2331 598.062V526.5C2331 488.3 2300.89 457.084 2263.17 455.124L2263.06 455.023H2261.2C2260.61 455.009 2260.04 454.938 2259.44 454.938C2259.14 454.938 2258.86 455.009 2258.56 455.023L2123.76 454.938L2024.6 397.688L2004.5 504.724L2031.34 520.224C2045.26 528.26 2059.69 549.65 2049.42 567.462L1998.69 655.312H2041.12L2090.71 569.438L2104.48 593.289L2068.67 655.312H2107.27L2156.85 569.438H2245.13L2268.31 609.598L2241.93 655.312H2274.97L2302.38 607.859V598.062C2302.37 605.601 2304.36 613.006 2308.13 619.534C2311.9 626.062 2317.32 631.483 2323.85 635.252C2330.37 639.02 2337.78 641.004 2345.32 641.003C2352.86 641.002 2360.26 639.017 2366.79 635.246C2370.07 633.346 2372.47 630.219 2373.45 626.553C2374.43 622.886 2373.91 618.981 2372.01 615.696V615.696Z" fill="white"/>
</mask>
<g mask="url(#mask0_2_692)">
<path opacity="0.3" d="M2331 500.995L2314.68 529.277L2302.38 550.588V641H2373.94V583.75L2331 500.995Z" fill="#231F20"/>
<path opacity="0.6" d="M2159.25 655.312L2192.31 569.438H2159.25L2109.67 655.312H2159.25Z" fill="white"/>
<g opacity="0.6">
<path d="M2345.31 590.777L2310.66 650.797H2302.38V607.859L2345.31 533.484V590.777ZM2345.31 583.75H2373.94V641H2345.31V583.75ZM2137.26 431.544L2074.18 540.798L2090.71 569.437L2162.06 445.856L2137.26 431.544ZM2281.98 414.09L2208.83 540.798L2225.36 569.437L2234.56 553.508L2245.13 535.209L2306.79 428.402L2281.98 414.09ZM2338.04 431.544L2274.96 540.798L2291.49 569.437L2362.84 445.856L2338.04 431.544ZM2202.97 432.288L2140.32 540.798L2156.85 569.437L2227.78 446.6L2202.97 432.288ZM2074.67 417.231C2074.67 417.231 2004.46 538.859 2002.31 542.573C2000.44 545.858 1999.95 549.75 2000.94 553.397C2001.93 557.044 2004.32 560.152 2007.59 562.042C2010.87 563.932 2014.75 564.45 2018.41 563.484C2022.06 562.518 2025.18 560.146 2027.1 556.885L2099.46 431.544L2074.67 417.231Z" fill="#231F20"/>
</g>
</g>
<path d="M2055.92 425.232L2037 392.456L2028.68 397.258L1918.96 460.269C1918.96 460.269 1938.49 501.102 1940.95 505.339C1942.84 508.614 1945.35 511.484 1948.35 513.786C1951.35 516.088 1954.77 517.777 1958.43 518.756C1962.08 519.735 1965.89 519.985 1969.64 519.491C1973.38 518.998 1977 517.771 1980.27 515.88L1983.55 513.977L1994.28 532.569C1994.28 532.569 2011.22 523.129 2033.06 510.52C2040.16 506.421 2046.39 500.964 2051.38 494.459C2056.37 487.955 2060.04 480.53 2062.16 472.61C2064.28 464.69 2064.82 456.43 2063.75 448.301C2062.68 440.172 2060.02 432.333 2055.92 425.232V425.232Z" fill="#EA7A2F"/>
<mask id="mask1_2_692" style="mask-type:luminance" maskUnits="userSpaceOnUse" x="1918" y="392" width="147" height="141">
<path d="M2055.92 425.232L2037 392.456L2028.68 397.258L1918.96 460.269C1918.96 460.269 1938.49 501.102 1940.95 505.339C1942.84 508.614 1945.35 511.484 1948.35 513.786C1951.35 516.088 1954.77 517.777 1958.43 518.756C1962.08 519.735 1965.89 519.985 1969.64 519.491C1973.38 518.998 1977 517.771 1980.27 515.88L1983.55 513.977L1994.28 532.569C1994.28 532.569 2011.22 523.129 2033.06 510.52C2040.16 506.421 2046.39 500.964 2051.38 494.459C2056.37 487.955 2060.04 480.53 2062.16 472.61C2064.28 464.69 2064.82 456.43 2063.75 448.301C2062.68 440.172 2060.02 432.333 2055.92 425.232V425.232Z" fill="white"/>
</mask>
<g mask="url(#mask1_2_692)">
<path opacity="0.6" d="M1915.94 469.25C1915.94 469.25 1929.21 469.422 1938.32 469.422C1950.97 469.422 1960.61 474.195 1965.72 483.019C1972.14 494.154 1983.56 513.976 1983.56 513.976L2021.78 492.243C2026.52 489.521 2030.67 485.888 2033.99 481.554C2037.32 477.219 2039.75 472.269 2041.16 466.989C2042.59 461.719 2042.96 456.217 2042.26 450.802C2041.55 445.387 2039.77 440.167 2037.03 435.444L2018.41 403.191L2034.74 383.153L2083.54 460.992L2070.58 533.713L1915.94 532.79V469.25Z" fill="white"/>
<path opacity="0.6" d="M1998.1 505.575L1987.36 486.976L2011.54 473.372C2013.77 472.089 2015.72 470.378 2017.28 468.337C2018.85 466.295 2019.99 463.964 2020.65 461.478C2021.32 459.008 2021.5 456.429 2021.17 453.89C2020.84 451.351 2020.01 448.903 2018.73 446.686L2010.53 432.517L2029.12 421.782L2037.38 436.088C2040.07 440.728 2041.82 445.856 2042.51 451.175C2043.21 456.493 2042.84 461.898 2041.44 467.074C2040.06 472.263 2037.67 477.127 2034.4 481.386C2031.14 485.645 2027.06 489.213 2022.4 491.885L1998.1 505.575Z" fill="#231F20"/>
</g>
<path d="M2047.73 411.041L2029.14 421.775L2018.4 403.184C2015.69 398.26 2015.02 392.471 2016.53 387.059C2018.04 381.646 2021.61 377.041 2026.48 374.232C2031.35 371.422 2037.12 370.632 2042.56 372.031C2048.01 373.43 2052.68 376.907 2055.59 381.715C2058.44 386.647 2059.21 392.507 2057.73 398.006C2056.26 403.505 2052.66 408.194 2047.73 411.041Z" fill="#EA7A2F"/>
<path opacity="0.8" d="M2047.73 411.041L2029.14 421.775L2018.4 403.184C2015.69 398.26 2015.02 392.471 2016.53 387.059C2018.04 381.646 2021.61 377.041 2026.48 374.232C2031.35 371.422 2037.12 370.632 2042.56 372.031C2048.01 373.43 2052.68 376.907 2055.59 381.715C2058.44 386.647 2059.21 392.507 2057.73 398.006C2056.26 403.505 2052.66 408.194 2047.73 411.041Z" fill="white"/>
</g>
<path d="M3772.94 619.864C3690.25 619.864 3631.94 592.633 3585.57 574.126V619.864H3543.94V599.129L3501.8 557.409H3439.85V619.864H3398.21V555.785C3348.85 545.855 3314.92 485.857 3314.94 392.092V306.717C3314.94 269.514 3333.63 246.989 3355.7 235.102V234.727C3355.7 217.49 3369.69 203.5 3386.93 203.5C3400.63 203.5 3412.12 212.369 3416.34 224.63L3418.15 224.318C3429.65 224.318 3438.97 233.645 3438.97 245.136C3438.97 256.628 3429.65 265.955 3418.15 265.955H3397.5C3387.91 266.1 3356.57 269.494 3356.57 306.717V371.274C3355.7 432.5 3404.56 432.333 3413.16 432.5H3481.05C3526.91 432.5 3567.73 453.797 3594.36 486.981C3594.55 487.21 3594.78 487.377 3594.96 487.606C3672.76 588.636 3772.94 599.045 3772.94 599.045V619.864Z" fill="#2E7D32"/>
<path d="M1188.94 500.831V661.2H1143.14V624.881L1120.24 601.981V661.2H1074.44V624.881L1039.88 590.325C1021.54 588.424 1001.84 585.264 982.837 581.21V661.2H937.037V638.346C937.037 635.46 936.534 599.072 923.824 564.47C920.412 563.165 917.183 561.86 914.137 560.509V661.2H868.337V638.346C868.315 632.735 866.872 500.9 776.737 500.9H753.837L730.938 455.1L776.737 432.2C776.737 432.2 799.637 386.4 822.537 386.4C823.11 386.4 823.957 386.4 824.644 386.4C829.362 373.095 841.957 363.5 856.887 363.5C871.818 363.5 884.413 373.095 889.131 386.4C937.999 386.4 1006.13 386.4 1074.44 386.4C1137.64 386.4 1188.89 437.627 1188.94 500.831Z" fill="#6D4C41"/>
<path d="M1822.94 496.839C1822.94 528.178 1797.27 553.694 1765.69 553.694C1742.79 553.694 1728.2 544.234 1715.33 535.91C1713.96 535.023 1712.56 534.159 1711.19 533.295L1753.76 590.014L1754.24 590.332V590.628L1754.33 590.741L1754.24 590.832V644.663H1719.89V608.025L1678.26 578.824L1662.64 603.363V644.663H1628.29V576.437H1548.14V644.663H1513.79V576.437H1493.59L1449.94 644.663H1409.23L1459.93 565.429L1411.42 485.468H1378.54L1364.94 451.355L1400.94 424.565L1401.01 424.679C1406.87 420.085 1414.15 417.242 1422.19 417.242V394.5H1456.54V417.242L1582.49 474.097L1681.26 485.468L1681.3 485.673C1706.19 489.38 1721.7 499.295 1734.13 507.323C1745.51 514.692 1753.02 519.581 1765.71 519.581C1778.35 519.581 1788.61 509.37 1788.61 496.839C1788.61 484.308 1778.35 474.097 1765.71 474.097H1754.24V439.984H1765.69C1797.27 439.984 1822.94 465.501 1822.94 496.839Z" fill="#424242"/>
<path d="M603.937 504.6V777.5H558.137V658.889L535.237 611.444V670.75C535.237 672.695 535.008 674.64 534.55 676.538L509.979 777.5H462.736L488.155 673.099L450.118 587.722H397.837V777.5H352.037V587.722H326.115L308.642 623.899L350.045 720.401L308.207 739.687L258.01 622.689L299.848 536.031C254.048 523.554 222.996 481.636 216.309 422.236L145.938 397.944V350.5H283.337V397.944C283.337 419.342 287.803 469.111 329.137 469.111L387.097 389.594L387.349 389.547C401.524 366.157 426.462 350.5 455.087 350.5C474.988 350.5 492.964 358.281 506.956 370.711L590.518 466.834C598.785 477.129 603.937 490.176 603.937 504.6Z" fill="#8D6E63"/>
<rect x="179.938" y="627.5" width="506" height="257" fill="#E59C8C"/>
<rect x="162.938" y="605.5" width="541" height="31" rx="15.5" fill="#41160C"/>
<rect x="219.938" y="819.5" width="130" height="130" rx="65" fill="#1C1B1B"/>
<circle cx="284.938" cy="884.5" r="45" fill="#50453C"/>
<rect x="515.938" y="819.5" width="130" height="130" rx="65" fill="#1C1B1B"/>
<circle cx="580.938" cy="884.5" r="45" fill="#50453C"/>
<rect x="755.938" y="627.5" width="506" height="257" fill="#E59C8C"/>
<rect x="738.938" y="605.5" width="541" height="31" rx="15.5" fill="#41160C"/>
<rect x="795.938" y="819.5" width="130" height="130" rx="65" fill="#1C1B1B"/>
<circle cx="860.938" cy="884.5" r="45" fill="#50453C"/>
<rect x="1091.94" y="819.5" width="130" height="130" rx="65" fill="#1C1B1B"/>
<circle cx="1156.94" cy="884.5" r="45" fill="#50453C"/>
<rect x="1331.94" y="627.5" width="506" height="257" fill="#E59C8C"/>
<rect x="1314.94" y="605.5" width="541" height="31" rx="15.5" fill="#41160C"/>
<rect x="1371.94" y="819.5" width="130" height="130" rx="65" fill="#1C1B1B"/>
<circle cx="1436.94" cy="884.5" r="45" fill="#50453C"/>
<rect x="1667.94" y="819.5" width="130" height="130" rx="65" fill="#1C1B1B"/>
<circle cx="1732.94" cy="884.5" r="45" fill="#50453C"/>
<rect x="1907.94" y="627.5" width="506" height="257" fill="#E59C8C"/>
<rect x="1890.94" y="605.5" width="541" height="31" rx="15.5" fill="#41160C"/>
<rect x="1947.94" y="819.5" width="130" height="130" rx="65" fill="#1C1B1B"/>
<circle cx="2012.94" cy="884.5" r="45" fill="#50453C"/>
<rect x="2243.94" y="819.5" width="130" height="130" rx="65" fill="#1C1B1B"/>
<circle cx="2308.94" cy="884.5" r="45" fill="#50453C"/>
<rect x="2483.94" y="627.5" width="506" height="257" fill="#E59C8C"/>
<rect x="2466.94" y="605.5" width="541" height="31" rx="15.5" fill="#41160C"/>
<rect x="2523.94" y="819.5" width="130" height="130" rx="65" fill="#1C1B1B"/>
<circle cx="2588.94" cy="884.5" r="45" fill="#50453C"/>
<rect x="2819.94" y="819.5" width="130" height="130" rx="65" fill="#1C1B1B"/>
<circle cx="2884.94" cy="884.5" r="45" fill="#50453C"/>
<rect x="3288.94" y="627.5" width="506" height="257" fill="#E59C8C"/>
<rect x="3271.94" y="605.5" width="541" height="31" rx="15.5" fill="#41160C"/>
<rect x="3328.94" y="819.5" width="130" height="130" rx="65" fill="#1C1B1B"/>
<circle cx="3393.94" cy="884.5" r="45" fill="#50453C"/>
<rect x="3624.94" y="819.5" width="130" height="130" rx="65" fill="#1C1B1B"/>
<circle cx="3689.94" cy="884.5" r="45" fill="#50453C"/>
<path d="M670.938 869C670.938 860.44 677.877 853.5 686.438 853.5H755.438C763.998 853.5 770.938 860.44 770.938 869V869C770.938 877.56 763.998 884.5 755.437 884.5H686.437C677.877 884.5 670.938 877.56 670.938 869V869Z" fill="#E59C8C"/>
<path d="M1246.94 869C1246.94 860.44 1253.88 853.5 1262.44 853.5H1331.44C1340 853.5 1346.94 860.44 1346.94 869V869C1346.94 877.56 1340 884.5 1331.44 884.5H1262.44C1253.88 884.5 1246.94 877.56 1246.94 869V869Z" fill="#E59C8C"/>
<path d="M1822.94 869C1822.94 860.44 1829.88 853.5 1838.44 853.5H1907.44C1916 853.5 1922.94 860.44 1922.94 869V869C1922.94 877.56 1916 884.5 1907.44 884.5H1838.44C1829.88 884.5 1822.94 877.56 1822.94 869V869Z" fill="#E59C8C"/>
<path d="M2398.94 869C2398.94 860.44 2405.88 853.5 2414.44 853.5H2483.44C2492 853.5 2498.94 860.44 2498.94 869V869C2498.94 877.56 2492 884.5 2483.44 884.5H2414.44C2405.88 884.5 2398.94 877.56 2398.94 869V869Z" fill="#E59C8C"/>
<path d="M3203.94 869C3203.94 860.44 3210.88 853.5 3219.44 853.5H3288.44C3297 853.5 3303.94 860.44 3303.94 869V869C3303.94 877.56 3297 884.5 3288.44 884.5H3219.44C3210.88 884.5 3203.94 877.56 3203.94 869V869Z" fill="#E59C8C"/>
<path d="M284.938 749.564C285.324 749.562 285.703 749.563 286.073 749.569C299.105 749.504 303.465 745.006 301.862 724.748C300.381 716.001 300.477 710.228 301.862 698.804C306.361 690.872 309.572 686.783 319.915 681.884C328.9 679.788 334.09 679.798 343.609 681.884C361.365 687.162 372.405 689.843 397.768 693.164C408.343 694.856 414.272 694.636 424.847 693.164C430.857 689.927 432.654 686.538 433.873 678.5C435.334 686.787 437.422 689.86 442.9 693.164C451.527 695.042 456.927 695.652 471.107 693.164C471.433 694.253 514.33 685.299 523.009 681.884C531.688 678.469 545.575 681.884 545.575 681.884C556.081 684.554 561.283 687.319 567.013 698.804C569.456 710.088 569.143 715.621 567.013 724.748C564.053 744.6 569.127 748.582 583.938 749.564C568.22 749.031 564.803 753.4 567.013 772.124C568.877 782.563 569.194 788.124 567.013 796.94C562.5 809.348 560.243 811.604 545.575 816.116C537.005 817.157 532.108 817.346 523.009 816.116C501.255 812.864 489.861 810.65 471.107 805.964C456.491 803.139 449.337 802.847 442.9 805.964C435.786 809.183 434.678 812.855 433.873 819.5C433.059 811.631 431.358 808.348 424.847 805.964C420.032 803.695 405.615 802.893 397.768 805.964C377.357 811.289 365.657 813.801 343.609 816.116C333.808 817.031 328.591 817.079 319.915 816.116C309.289 810.758 303.681 804.836 301.862 796.94C300.043 789.044 299.26 782.352 301.862 772.124C302.492 755.002 299.091 749.769 286.073 749.569C285.702 749.571 285.323 749.569 284.938 749.564Z" fill="white"/>
<path d="M284.938 749.564C298.894 749.481 302.509 754.514 301.862 772.124C299.26 782.352 300.043 789.044 301.862 796.94C303.681 804.836 309.289 810.758 319.915 816.116C328.591 817.079 333.808 817.031 343.609 816.116C365.657 813.801 377.357 811.289 397.768 805.964C405.615 802.893 420.032 803.695 424.847 805.964C431.358 808.348 433.059 811.631 433.873 819.5C434.678 812.855 435.786 809.183 442.9 805.964C449.337 802.847 456.491 803.139 471.107 805.964C489.861 810.65 501.255 812.864 523.009 816.116C532.108 817.346 537.005 817.157 545.575 816.116C560.243 811.604 562.5 809.348 567.013 796.94C569.194 788.124 568.877 782.563 567.013 772.124C564.803 753.4 568.22 749.031 583.937 749.564C569.127 748.582 564.054 744.6 567.013 724.748C569.143 715.621 569.456 710.088 567.013 698.804C561.283 687.319 556.081 684.554 545.575 681.884C545.575 681.884 531.688 678.469 523.009 681.884C514.33 685.299 471.433 694.253 471.107 693.164C456.927 695.652 451.527 695.042 442.9 693.164C437.422 689.86 435.334 686.787 433.873 678.5C432.654 686.538 430.857 689.927 424.847 693.164C414.272 694.636 408.343 694.856 397.768 693.164C372.405 689.843 361.365 687.162 343.609 681.884C334.09 679.798 328.9 679.788 319.915 681.884C309.572 686.783 306.361 690.872 301.862 698.804C300.477 710.228 300.381 716.001 301.862 724.748C303.511 745.584 298.851 749.748 284.938 749.564Z" stroke="#232E12" stroke-width="4"/>
<path d="M284.938 749.564C285.324 749.562 285.703 749.563 286.073 749.569C299.105 749.504 303.465 745.006 301.862 724.748C300.381 716.001 300.477 710.228 301.862 698.804C306.361 690.872 309.572 686.783 319.915 681.884C328.9 679.788 334.09 679.798 343.609 681.884C361.365 687.162 372.405 689.843 397.768 693.164C408.343 694.856 414.272 694.636 424.847 693.164C430.857 689.927 432.654 686.538 433.873 678.5C435.334 686.787 437.422 689.86 442.9 693.164C451.527 695.042 456.927 695.652 471.107 693.164C471.433 694.253 514.33 685.299 523.009 681.884C531.688 678.469 545.575 681.884 545.575 681.884C556.081 684.554 561.283 687.319 567.013 698.804C569.456 710.088 569.143 715.621 567.013 724.748C564.053 744.6 569.127 748.582 583.938 749.564C568.22 749.031 564.803 753.4 567.013 772.124C568.877 782.563 569.194 788.124 567.013 796.94C562.5 809.348 560.243 811.604 545.575 816.116C537.005 817.157 532.108 817.346 523.009 816.116C501.255 812.864 489.861 810.65 471.107 805.964C456.491 803.139 449.337 802.847 442.9 805.964C435.786 809.183 434.678 812.855 433.873 819.5C433.059 811.631 431.358 808.348 424.847 805.964C420.032 803.695 405.615 802.893 397.768 805.964C377.357 811.289 365.657 813.801 343.609 816.116C333.808 817.031 328.591 817.079 319.915 816.116C309.289 810.758 303.681 804.836 301.862 796.94C300.043 789.044 299.26 782.352 301.862 772.124C302.492 755.002 299.091 749.769 286.073 749.569C285.702 749.571 285.323 749.569 284.938 749.564Z" fill="#F1DFD3"/>
<path d="M284.938 749.564C298.894 749.481 302.509 754.514 301.862 772.124C299.26 782.352 300.043 789.044 301.862 796.94C303.681 804.836 309.289 810.758 319.915 816.116C328.591 817.079 333.808 817.031 343.609 816.116C365.657 813.801 377.357 811.289 397.768 805.964C405.615 802.893 420.032 803.695 424.847 805.964C431.358 808.348 433.059 811.631 433.873 819.5C434.678 812.855 435.786 809.183 442.9 805.964C449.337 802.847 456.491 803.139 471.107 805.964C489.861 810.65 501.255 812.864 523.009 816.116C532.108 817.346 537.005 817.157 545.575 816.116C560.243 811.604 562.5 809.348 567.013 796.94C569.194 788.124 568.877 782.563 567.013 772.124C564.803 753.4 568.22 749.031 583.937 749.564C569.127 748.582 564.054 744.6 567.013 724.748C569.143 715.621 569.456 710.088 567.013 698.804C561.283 687.319 556.081 684.554 545.575 681.884C545.575 681.884 531.688 678.469 523.009 681.884C514.33 685.299 471.433 694.253 471.107 693.164C456.927 695.652 451.527 695.042 442.9 693.164C437.422 689.86 435.334 686.787 433.873 678.5C432.654 686.538 430.857 689.927 424.847 693.164C414.272 694.636 408.343 694.856 397.768 693.164C372.405 689.843 361.365 687.162 343.609 681.884C334.09 679.798 328.9 679.788 319.915 681.884C309.572 686.783 306.361 690.872 301.862 698.804C300.477 710.228 300.381 716.001 301.862 724.748C303.511 745.584 298.851 749.748 284.938 749.564Z" stroke="#232E12" stroke-width="4"/>
<path d="M860.938 749.564C861.324 749.562 861.703 749.563 862.073 749.569C875.105 749.504 879.465 745.006 877.862 724.748C876.381 716.001 876.477 710.228 877.862 698.804C882.361 690.872 885.572 686.783 895.915 681.884C904.9 679.788 910.09 679.798 919.609 681.884C937.365 687.162 948.405 689.843 973.768 693.164C984.343 694.856 990.272 694.636 1000.85 693.164C1006.86 689.927 1008.65 686.538 1009.87 678.5C1011.33 686.787 1013.42 689.86 1018.9 693.164C1027.53 695.042 1032.93 695.652 1047.11 693.164C1047.43 694.253 1090.33 685.299 1099.01 681.884C1107.69 678.469 1121.58 681.884 1121.58 681.884C1132.08 684.554 1137.28 687.319 1143.01 698.804C1145.46 710.088 1145.14 715.621 1143.01 724.748C1140.05 744.6 1145.13 748.582 1159.94 749.564C1144.22 749.031 1140.8 753.4 1143.01 772.124C1144.88 782.563 1145.19 788.124 1143.01 796.94C1138.5 809.348 1136.24 811.604 1121.58 816.116C1113 817.157 1108.11 817.346 1099.01 816.116C1077.26 812.864 1065.86 810.65 1047.11 805.964C1032.49 803.139 1025.34 802.847 1018.9 805.964C1011.79 809.183 1010.68 812.855 1009.87 819.5C1009.06 811.631 1007.36 808.348 1000.85 805.964C996.032 803.695 981.615 802.893 973.768 805.964C953.357 811.289 941.657 813.801 919.609 816.116C909.808 817.031 904.591 817.079 895.915 816.116C885.289 810.758 879.681 804.836 877.862 796.94C876.043 789.044 875.26 782.352 877.862 772.124C878.492 755.002 875.091 749.769 862.073 749.569C861.702 749.571 861.323 749.569 860.938 749.564Z" fill="#F1DFD3"/>
<path d="M860.938 749.564C874.894 749.481 878.509 754.514 877.862 772.124C875.26 782.352 876.043 789.044 877.862 796.94C879.681 804.836 885.289 810.758 895.915 816.116C904.591 817.079 909.808 817.031 919.609 816.116C941.657 813.801 953.357 811.289 973.768 805.964C981.615 802.893 996.032 803.695 1000.85 805.964C1007.36 808.348 1009.06 811.631 1009.87 819.5C1010.68 812.855 1011.79 809.183 1018.9 805.964C1025.34 802.847 1032.49 803.139 1047.11 805.964C1065.86 810.65 1077.26 812.864 1099.01 816.116C1108.11 817.346 1113 817.157 1121.58 816.116C1136.24 811.604 1138.5 809.348 1143.01 796.94C1145.19 788.124 1144.88 782.563 1143.01 772.124C1140.8 753.4 1144.22 749.031 1159.94 749.564C1145.13 748.582 1140.05 744.6 1143.01 724.748C1145.14 715.621 1145.46 710.088 1143.01 698.804C1137.28 687.319 1132.08 684.554 1121.58 681.884C1121.58 681.884 1107.69 678.469 1099.01 681.884C1090.33 685.299 1047.43 694.253 1047.11 693.164C1032.93 695.652 1027.53 695.042 1018.9 693.164C1013.42 689.86 1011.33 686.787 1009.87 678.5C1008.65 686.538 1006.86 689.927 1000.85 693.164C990.272 694.636 984.343 694.856 973.768 693.164C948.405 689.843 937.365 687.162 919.609 681.884C910.09 679.798 904.9 679.788 895.915 681.884C885.572 686.783 882.361 690.872 877.862 698.804C876.477 710.228 876.381 716.001 877.862 724.748C879.511 745.584 874.851 749.748 860.938 749.564Z" stroke="#232E12" stroke-width="4"/>
<path d="M1436.94 749.564C1437.32 749.562 1437.7 749.563 1438.07 749.569C1451.1 749.504 1455.47 745.006 1453.86 724.748C1452.38 716.001 1452.48 710.228 1453.86 698.804C1458.36 690.872 1461.57 686.783 1471.91 681.884C1480.9 679.788 1486.09 679.798 1495.61 681.884C1513.37 687.162 1524.4 689.843 1549.77 693.164C1560.34 694.856 1566.27 694.636 1576.85 693.164C1582.86 689.927 1584.65 686.538 1585.87 678.5C1587.33 686.787 1589.42 689.86 1594.9 693.164C1603.53 695.042 1608.93 695.652 1623.11 693.164C1623.43 694.253 1666.33 685.299 1675.01 681.884C1683.69 678.469 1697.58 681.884 1697.58 681.884C1708.08 684.554 1713.28 687.319 1719.01 698.804C1721.46 710.088 1721.14 715.621 1719.01 724.748C1716.05 744.6 1721.13 748.582 1735.94 749.564C1720.22 749.031 1716.8 753.4 1719.01 772.124C1720.88 782.563 1721.19 788.124 1719.01 796.94C1714.5 809.348 1712.24 811.604 1697.58 816.116C1689 817.157 1684.11 817.346 1675.01 816.116C1653.26 812.864 1641.86 810.65 1623.11 805.964C1608.49 803.139 1601.34 802.847 1594.9 805.964C1587.79 809.183 1586.68 812.855 1585.87 819.5C1585.06 811.631 1583.36 808.348 1576.85 805.964C1572.03 803.695 1557.62 802.893 1549.77 805.964C1529.36 811.289 1517.66 813.801 1495.61 816.116C1485.81 817.031 1480.59 817.079 1471.91 816.116C1461.29 810.758 1455.68 804.836 1453.86 796.94C1452.04 789.044 1451.26 782.352 1453.86 772.124C1454.49 755.002 1451.09 749.769 1438.07 749.569C1437.7 749.571 1437.32 749.569 1436.94 749.564Z" fill="#F1DFD3"/>
<path d="M1436.94 749.564C1450.89 749.481 1454.51 754.514 1453.86 772.124C1451.26 782.352 1452.04 789.044 1453.86 796.94C1455.68 804.836 1461.29 810.758 1471.91 816.116C1480.59 817.079 1485.81 817.031 1495.61 816.116C1517.66 813.801 1529.36 811.289 1549.77 805.964C1557.62 802.893 1572.03 803.695 1576.85 805.964C1583.36 808.348 1585.06 811.631 1585.87 819.5C1586.68 812.855 1587.79 809.183 1594.9 805.964C1601.34 802.847 1608.49 803.139 1623.11 805.964C1641.86 810.65 1653.26 812.864 1675.01 816.116C1684.11 817.346 1689 817.157 1697.58 816.116C1712.24 811.604 1714.5 809.348 1719.01 796.94C1721.19 788.124 1720.88 782.563 1719.01 772.124C1716.8 753.4 1720.22 749.031 1735.94 749.564C1721.13 748.582 1716.05 744.6 1719.01 724.748C1721.14 715.621 1721.46 710.088 1719.01 698.804C1713.28 687.319 1708.08 684.554 1697.58 681.884C1697.58 681.884 1683.69 678.469 1675.01 681.884C1666.33 685.299 1623.43 694.253 1623.11 693.164C1608.93 695.652 1603.53 695.042 1594.9 693.164C1589.42 689.86 1587.33 686.787 1585.87 678.5C1584.65 686.538 1582.86 689.927 1576.85 693.164C1566.27 694.636 1560.34 694.856 1549.77 693.164C1524.4 689.843 1513.37 687.162 1495.61 681.884C1486.09 679.798 1480.9 679.788 1471.91 681.884C1461.57 686.783 1458.36 690.872 1453.86 698.804C1452.48 710.228 1452.38 716.001 1453.86 724.748C1455.51 745.584 1450.85 749.748 1436.94 749.564Z" stroke="#232E12" stroke-width="4"/>
<path d="M2012.94 749.564C2013.32 749.562 2013.7 749.563 2014.07 749.569C2027.1 749.504 2031.47 745.006 2029.86 724.748C2028.38 716.001 2028.48 710.228 2029.86 698.804C2034.36 690.872 2037.57 686.783 2047.91 681.884C2056.9 679.788 2062.09 679.798 2071.61 681.884C2089.37 687.162 2100.4 689.843 2125.77 693.164C2136.34 694.856 2142.27 694.636 2152.85 693.164C2158.86 689.927 2160.65 686.538 2161.87 678.5C2163.33 686.787 2165.42 689.86 2170.9 693.164C2179.53 695.042 2184.93 695.652 2199.11 693.164C2199.43 694.253 2242.33 685.299 2251.01 681.884C2259.69 678.469 2273.58 681.884 2273.58 681.884C2284.08 684.554 2289.28 687.319 2295.01 698.804C2297.46 710.088 2297.14 715.621 2295.01 724.748C2292.05 744.6 2297.13 748.582 2311.94 749.564C2296.22 749.031 2292.8 753.4 2295.01 772.124C2296.88 782.563 2297.19 788.124 2295.01 796.94C2290.5 809.348 2288.24 811.604 2273.58 816.116C2265 817.157 2260.11 817.346 2251.01 816.116C2229.26 812.864 2217.86 810.65 2199.11 805.964C2184.49 803.139 2177.34 802.847 2170.9 805.964C2163.79 809.183 2162.68 812.855 2161.87 819.5C2161.06 811.631 2159.36 808.348 2152.85 805.964C2148.03 803.695 2133.62 802.893 2125.77 805.964C2105.36 811.289 2093.66 813.801 2071.61 816.116C2061.81 817.031 2056.59 817.079 2047.91 816.116C2037.29 810.758 2031.68 804.836 2029.86 796.94C2028.04 789.044 2027.26 782.352 2029.86 772.124C2030.49 755.002 2027.09 749.769 2014.07 749.569C2013.7 749.571 2013.32 749.569 2012.94 749.564Z" fill="#F1DFD3"/>
<path d="M2012.94 749.564C2026.89 749.481 2030.51 754.514 2029.86 772.124C2027.26 782.352 2028.04 789.044 2029.86 796.94C2031.68 804.836 2037.29 810.758 2047.91 816.116C2056.59 817.079 2061.81 817.031 2071.61 816.116C2093.66 813.801 2105.36 811.289 2125.77 805.964C2133.62 802.893 2148.03 803.695 2152.85 805.964C2159.36 808.348 2161.06 811.631 2161.87 819.5C2162.68 812.855 2163.79 809.183 2170.9 805.964C2177.34 802.847 2184.49 803.139 2199.11 805.964C2217.86 810.65 2229.26 812.864 2251.01 816.116C2260.11 817.346 2265 817.157 2273.58 816.116C2288.24 811.604 2290.5 809.348 2295.01 796.94C2297.19 788.124 2296.88 782.563 2295.01 772.124C2292.8 753.4 2296.22 749.031 2311.94 749.564C2297.13 748.582 2292.05 744.6 2295.01 724.748C2297.14 715.621 2297.46 710.088 2295.01 698.804C2289.28 687.319 2284.08 684.554 2273.58 681.884C2273.58 681.884 2259.69 678.469 2251.01 681.884C2242.33 685.299 2199.43 694.253 2199.11 693.164C2184.93 695.652 2179.53 695.042 2170.9 693.164C2165.42 689.86 2163.33 686.787 2161.87 678.5C2160.65 686.538 2158.86 689.927 2152.85 693.164C2142.27 694.636 2136.34 694.856 2125.77 693.164C2100.4 689.843 2089.37 687.162 2071.61 681.884C2062.09 679.798 2056.9 679.788 2047.91 681.884C2037.57 686.783 2034.36 690.872 2029.86 698.804C2028.48 710.228 2028.38 716.001 2029.86 724.748C2031.51 745.584 2026.85 749.748 2012.94 749.564Z" stroke="#232E12" stroke-width="4"/>
<path d="M2588.94 749.564C2589.32 749.562 2589.7 749.563 2590.07 749.569C2603.1 749.504 2607.47 745.006 2605.86 724.748C2604.38 716.001 2604.48 710.228 2605.86 698.804C2610.36 690.872 2613.57 686.783 2623.91 681.884C2632.9 679.788 2638.09 679.798 2647.61 681.884C2665.37 687.162 2676.4 689.843 2701.77 693.164C2712.34 694.856 2718.27 694.636 2728.85 693.164C2734.86 689.927 2736.65 686.538 2737.87 678.5C2739.33 686.787 2741.42 689.86 2746.9 693.164C2755.53 695.042 2760.93 695.652 2775.11 693.164C2775.43 694.253 2818.33 685.299 2827.01 681.884C2835.69 678.469 2849.58 681.884 2849.58 681.884C2860.08 684.554 2865.28 687.319 2871.01 698.804C2873.46 710.088 2873.14 715.621 2871.01 724.748C2868.05 744.6 2873.13 748.582 2887.94 749.564C2872.22 749.031 2868.8 753.4 2871.01 772.124C2872.88 782.563 2873.19 788.124 2871.01 796.94C2866.5 809.348 2864.24 811.604 2849.58 816.116C2841 817.157 2836.11 817.346 2827.01 816.116C2805.26 812.864 2793.86 810.65 2775.11 805.964C2760.49 803.139 2753.34 802.847 2746.9 805.964C2739.79 809.183 2738.68 812.855 2737.87 819.5C2737.06 811.631 2735.36 808.348 2728.85 805.964C2724.03 803.695 2709.62 802.893 2701.77 805.964C2681.36 811.289 2669.66 813.801 2647.61 816.116C2637.81 817.031 2632.59 817.079 2623.91 816.116C2613.29 810.758 2607.68 804.836 2605.86 796.94C2604.04 789.044 2603.26 782.352 2605.86 772.124C2606.49 755.002 2603.09 749.769 2590.07 749.569C2589.7 749.571 2589.32 749.569 2588.94 749.564Z" fill="#F1DFD3"/>
<path d="M2588.94 749.564C2602.89 749.481 2606.51 754.514 2605.86 772.124C2603.26 782.352 2604.04 789.044 2605.86 796.94C2607.68 804.836 2613.29 810.758 2623.91 816.116C2632.59 817.079 2637.81 817.031 2647.61 816.116C2669.66 813.801 2681.36 811.289 2701.77 805.964C2709.62 802.893 2724.03 803.695 2728.85 805.964C2735.36 808.348 2737.06 811.631 2737.87 819.5C2738.68 812.855 2739.79 809.183 2746.9 805.964C2753.34 802.847 2760.49 803.139 2775.11 805.964C2793.86 810.65 2805.26 812.864 2827.01 816.116C2836.11 817.346 2841 817.157 2849.58 816.116C2864.24 811.604 2866.5 809.348 2871.01 796.94C2873.19 788.124 2872.88 782.563 2871.01 772.124C2868.8 753.4 2872.22 749.031 2887.94 749.564C2873.13 748.582 2868.05 744.6 2871.01 724.748C2873.14 715.621 2873.46 710.088 2871.01 698.804C2865.28 687.319 2860.08 684.554 2849.58 681.884C2849.58 681.884 2835.69 678.469 2827.01 681.884C2818.33 685.299 2775.43 694.253 2775.11 693.164C2760.93 695.652 2755.53 695.042 2746.9 693.164C2741.42 689.86 2739.33 686.787 2737.87 678.5C2736.65 686.538 2734.86 689.927 2728.85 693.164C2718.27 694.636 2712.34 694.856 2701.77 693.164C2676.4 689.843 2665.37 687.162 2647.61 681.884C2638.09 679.798 2632.9 679.788 2623.91 681.884C2613.57 686.783 2610.36 690.872 2605.86 698.804C2604.48 710.228 2604.38 716.001 2605.86 724.748C2607.51 745.584 2602.85 749.748 2588.94 749.564Z" stroke="#232E12" stroke-width="4"/>
<path d="M3393.94 749.564C3394.32 749.562 3394.7 749.563 3395.07 749.569C3408.1 749.504 3412.47 745.006 3410.86 724.748C3409.38 716.001 3409.48 710.228 3410.86 698.804C3415.36 690.872 3418.57 686.783 3428.91 681.884C3437.9 679.788 3443.09 679.798 3452.61 681.884C3470.37 687.162 3481.4 689.843 3506.77 693.164C3517.34 694.856 3523.27 694.636 3533.85 693.164C3539.86 689.927 3541.65 686.538 3542.87 678.5C3544.33 686.787 3546.42 689.86 3551.9 693.164C3560.53 695.042 3565.93 695.652 3580.11 693.164C3580.43 694.253 3623.33 685.299 3632.01 681.884C3640.69 678.469 3654.58 681.884 3654.58 681.884C3665.08 684.554 3670.28 687.319 3676.01 698.804C3678.46 710.088 3678.14 715.621 3676.01 724.748C3673.05 744.6 3678.13 748.582 3692.94 749.564C3677.22 749.031 3673.8 753.4 3676.01 772.124C3677.88 782.563 3678.19 788.124 3676.01 796.94C3671.5 809.348 3669.24 811.604 3654.58 816.116C3646 817.157 3641.11 817.346 3632.01 816.116C3610.26 812.864 3598.86 810.65 3580.11 805.964C3565.49 803.139 3558.34 802.847 3551.9 805.964C3544.79 809.183 3543.68 812.855 3542.87 819.5C3542.06 811.631 3540.36 808.348 3533.85 805.964C3529.03 803.695 3514.62 802.893 3506.77 805.964C3486.36 811.289 3474.66 813.801 3452.61 816.116C3442.81 817.031 3437.59 817.079 3428.91 816.116C3418.29 810.758 3412.68 804.836 3410.86 796.94C3409.04 789.044 3408.26 782.352 3410.86 772.124C3411.49 755.002 3408.09 749.769 3395.07 749.569C3394.7 749.571 3394.32 749.569 3393.94 749.564Z" fill="#F1DFD3"/>
<path d="M3393.94 749.564C3407.89 749.481 3411.51 754.514 3410.86 772.124C3408.26 782.352 3409.04 789.044 3410.86 796.94C3412.68 804.836 3418.29 810.758 3428.91 816.116C3437.59 817.079 3442.81 817.031 3452.61 816.116C3474.66 813.801 3486.36 811.289 3506.77 805.964C3514.62 802.893 3529.03 803.695 3533.85 805.964C3540.36 808.348 3542.06 811.631 3542.87 819.5C3543.68 812.855 3544.79 809.183 3551.9 805.964C3558.34 802.847 3565.49 803.139 3580.11 805.964C3598.86 810.65 3610.26 812.864 3632.01 816.116C3641.11 817.346 3646 817.157 3654.58 816.116C3669.24 811.604 3671.5 809.348 3676.01 796.94C3678.19 788.124 3677.88 782.563 3676.01 772.124C3673.8 753.4 3677.22 749.031 3692.94 749.564C3678.13 748.582 3673.05 744.6 3676.01 724.748C3678.14 715.621 3678.46 710.088 3676.01 698.804C3670.28 687.319 3665.08 684.554 3654.58 681.884C3654.58 681.884 3640.69 678.469 3632.01 681.884C3623.33 685.299 3580.43 694.253 3580.11 693.164C3565.93 695.652 3560.53 695.042 3551.9 693.164C3546.42 689.86 3544.33 686.787 3542.87 678.5C3541.65 686.538 3539.86 689.927 3533.85 693.164C3523.27 694.636 3517.34 694.856 3506.77 693.164C3481.4 689.843 3470.37 687.162 3452.61 681.884C3443.09 679.798 3437.9 679.788 3428.91 681.884C3418.57 686.783 3415.36 690.872 3410.86 698.804C3409.48 710.228 3409.38 716.001 3410.86 724.748C3412.51 745.584 3407.85 749.748 3393.94 749.564Z" stroke="#232E12" stroke-width="4"/>
<path d="M434.929 773.523C431.02 773.508 427.656 772.545 424.838 770.636C422.035 768.727 419.876 765.962 418.361 762.341C416.861 758.72 416.118 754.364 416.134 749.273C416.134 744.197 416.884 739.871 418.384 736.295C419.899 732.72 422.058 730 424.861 728.136C427.679 726.258 431.035 725.318 434.929 725.318C438.823 725.318 442.171 726.258 444.974 728.136C447.793 730.015 449.959 732.742 451.474 736.318C452.99 739.879 453.74 744.197 453.724 749.273C453.724 754.379 452.967 758.742 451.452 762.364C449.952 765.985 447.8 768.75 444.997 770.659C442.194 772.568 438.838 773.523 434.929 773.523ZM434.929 765.364C437.596 765.364 439.724 764.023 441.315 761.341C442.906 758.659 443.694 754.636 443.679 749.273C443.679 745.742 443.315 742.803 442.588 740.455C441.876 738.106 440.861 736.341 439.543 735.159C438.24 733.977 436.702 733.386 434.929 733.386C432.277 733.386 430.156 734.712 428.565 737.364C426.974 740.015 426.171 743.985 426.156 749.273C426.156 752.848 426.512 755.833 427.224 758.227C427.952 760.606 428.974 762.394 430.293 763.591C431.611 764.773 433.156 765.364 434.929 765.364Z" fill="#231A13"/>
<path d="M1019.3 725.955V772.5H1009.46V735.295H1009.19L998.531 741.977V733.25L1010.05 725.955H1019.3Z" fill="#231A13"/>
<path d="M1570.55 772.5V765.409L1587.12 750.068C1588.53 748.705 1589.71 747.477 1590.67 746.386C1591.64 745.295 1592.37 744.227 1592.87 743.182C1593.37 742.121 1593.62 740.977 1593.62 739.75C1593.62 738.386 1593.31 737.212 1592.69 736.227C1592.07 735.227 1591.22 734.462 1590.14 733.932C1589.07 733.386 1587.85 733.114 1586.49 733.114C1585.06 733.114 1583.82 733.402 1582.76 733.977C1581.7 734.553 1580.88 735.379 1580.3 736.455C1579.73 737.53 1579.44 738.811 1579.44 740.295H1570.1C1570.1 737.25 1570.79 734.606 1572.17 732.364C1573.55 730.121 1575.48 728.386 1577.96 727.159C1580.45 725.932 1583.31 725.318 1586.55 725.318C1589.89 725.318 1592.79 725.909 1595.26 727.091C1597.74 728.258 1599.68 729.879 1601.05 731.955C1602.43 734.03 1603.12 736.409 1603.12 739.091C1603.12 740.848 1602.77 742.583 1602.08 744.295C1601.39 746.008 1600.18 747.909 1598.42 750C1596.66 752.076 1594.18 754.568 1590.99 757.477L1584.19 764.136V764.455H1603.74V772.5H1570.55Z" fill="#231A13"/>
<path d="M2162.82 773.136C2159.43 773.136 2156.4 772.553 2153.75 771.386C2151.12 770.205 2149.03 768.583 2147.5 766.523C2145.99 764.447 2145.21 762.053 2145.16 759.341H2155.07C2155.13 760.477 2155.5 761.477 2156.18 762.341C2156.88 763.189 2157.81 763.848 2158.96 764.318C2160.11 764.788 2161.4 765.023 2162.84 765.023C2164.34 765.023 2165.67 764.758 2166.82 764.227C2167.97 763.697 2168.87 762.962 2169.53 762.023C2170.18 761.083 2170.5 760 2170.5 758.773C2170.5 757.53 2170.15 756.432 2169.46 755.477C2168.78 754.508 2167.79 753.75 2166.5 753.205C2165.23 752.659 2163.71 752.386 2161.96 752.386H2157.62V745.159H2161.96C2163.44 745.159 2164.75 744.902 2165.89 744.386C2167.04 743.871 2167.93 743.159 2168.57 742.25C2169.21 741.326 2169.53 740.25 2169.53 739.023C2169.53 737.856 2169.25 736.833 2168.68 735.955C2168.14 735.061 2167.37 734.364 2166.37 733.864C2165.38 733.364 2164.23 733.114 2162.91 733.114C2161.58 733.114 2160.36 733.356 2159.25 733.841C2158.15 734.311 2157.26 734.985 2156.59 735.864C2155.93 736.742 2155.57 737.773 2155.53 738.955H2146.09C2146.14 736.273 2146.9 733.909 2148.39 731.864C2149.87 729.818 2151.87 728.22 2154.39 727.068C2156.92 725.902 2159.78 725.318 2162.96 725.318C2166.17 725.318 2168.98 725.902 2171.39 727.068C2173.8 728.235 2175.67 729.811 2177 731.795C2178.35 733.765 2179.02 735.977 2179 738.432C2179.02 741.038 2178.21 743.212 2176.57 744.955C2174.95 746.697 2172.84 747.803 2170.23 748.273V748.636C2173.65 749.076 2176.26 750.265 2178.05 752.205C2179.85 754.129 2180.75 756.538 2180.73 759.432C2180.75 762.083 2179.98 764.439 2178.43 766.5C2176.9 768.561 2174.79 770.182 2172.09 771.364C2169.4 772.545 2166.31 773.136 2162.82 773.136Z" fill="#231A13"/>
<path d="M2720.32 764.318V756.568L2739.75 725.955H2746.43V736.682H2742.48L2730.23 756.068V756.432H2757.84V764.318H2720.32ZM2742.66 772.5V761.955L2742.84 758.523V725.955H2752.07V772.5H2742.66Z" fill="#231A13"/>
<path d="M3544.09 773.136C3540.87 773.136 3538.01 772.545 3535.49 771.364C3532.99 770.182 3531.01 768.553 3529.54 766.477C3528.07 764.402 3527.3 762.023 3527.24 759.341H3536.79C3536.9 761.144 3537.65 762.606 3539.06 763.727C3540.47 764.848 3542.15 765.409 3544.09 765.409C3545.63 765.409 3546.99 765.068 3548.18 764.386C3549.37 763.689 3550.3 762.727 3550.97 761.5C3551.65 760.258 3551.99 758.833 3551.99 757.227C3551.99 755.591 3551.65 754.152 3550.95 752.909C3550.27 751.667 3549.32 750.697 3548.11 750C3546.9 749.303 3545.51 748.947 3543.95 748.932C3542.59 748.932 3541.26 749.212 3539.97 749.773C3538.7 750.333 3537.71 751.098 3536.99 752.068L3528.24 750.5L3530.45 725.955H3558.9V734H3538.56L3537.36 745.659H3537.63C3538.45 744.508 3539.68 743.553 3541.34 742.795C3542.99 742.038 3544.84 741.659 3546.88 741.659C3549.68 741.659 3552.18 742.318 3554.38 743.636C3556.58 744.955 3558.31 746.765 3559.59 749.068C3560.86 751.356 3561.49 753.992 3561.47 756.977C3561.49 760.114 3560.76 762.902 3559.29 765.341C3557.84 767.765 3555.8 769.674 3553.18 771.068C3550.57 772.447 3547.54 773.136 3544.09 773.136Z" fill="#231A13"/>
<path d="M3320.14 902.625L3260.81 843.3L3498.11 606L3260.81 368.7L3320.14 309.375L3557.44 546.675L3794.74 309.375L3854.06 368.7L3616.76 606L3854.06 843.3L3794.74 902.625L3557.44 665.325L3320.14 902.625Z" fill="#BA1A1A"/>
<rect x="3087" y="765" width="174" height="176" rx="87" fill="#BF9816"/>
<path d="M3116 898L3173.89 798L3231.79 898H3116ZM3134.16 887.474H3213.63L3173.89 819.053L3134.16 887.474ZM3173.89 882.211C3175.39 882.211 3176.64 881.706 3177.64 880.697C3178.65 879.689 3179.16 878.439 3179.16 876.947C3179.16 875.456 3178.65 874.206 3177.64 873.197C3176.64 872.189 3175.39 871.684 3173.89 871.684C3172.4 871.684 3171.15 872.189 3170.14 873.197C3169.14 874.206 3168.63 875.456 3168.63 876.947C3168.63 878.439 3169.14 879.689 3170.14 880.697C3171.15 881.706 3172.4 882.211 3173.89 882.211ZM3168.63 866.421H3179.16V840.105H3168.63V866.421Z" fill="#150E00"/>
<defs>
<clipPath id="clip0_2_692">
<rect width="458" height="458" fill="white" transform="translate(1915.94 297.5)"/>
</clipPath>
</defs>
</svg>
