<svg width="4000" height="1200" viewBox="0 0 4000 1200" fill="none" xmlns="http://www.w3.org/2000/svg">
<path d="M3342.83 597.917V750.583H3304.67V674.25H3266.5V750.583H3228.33V674.25H3190.17V750.583H3152V674.25H3113.83V750.583H3075.67V636.083L3062.94 623.355L2999.33 674.25V693.333C2999.33 700.012 2999.33 712.417 3037.5 712.417V750.583C2971.09 750.583 2961.17 714.707 2961.17 693.333V550.208C2961.17 532.494 2968.2 515.505 2980.73 502.979C2993.26 490.454 3010.24 483.417 3027.96 483.417H3228.33C3258.7 483.417 3287.82 495.48 3309.3 516.953C3330.77 538.426 3342.83 567.549 3342.83 597.917Z" fill="#BDBDBD"/>
<path opacity="0.3" d="M3113.83 750.583H3075.67V636.083L3113.83 674.25V750.583ZM3266.5 674.25H3228.33V750.583H3266.5V674.25Z" fill="black"/>
<path d="M2601.74 483.812L2628.12 438.098L2601.74 392.399L2662.19 363.895V436.359L2634.79 483.812H2601.74Z" fill="#EA7A2F"/>
<path opacity="0.3" d="M2601.74 483.812L2628.12 438.098L2601.74 392.399L2662.19 363.895V436.359L2634.79 483.812H2601.74Z" fill="white"/>
<path d="M2789.08 444.196C2788.14 442.568 2786.88 441.141 2785.39 439.997C2783.9 438.853 2782.2 438.015 2780.38 437.53C2778.57 437.045 2776.67 436.922 2774.81 437.17C2772.95 437.417 2771.15 438.029 2769.52 438.971C2767.35 440.222 2764.88 440.878 2762.37 440.874C2759.86 440.871 2757.39 440.207 2755.22 438.95C2753.04 437.694 2751.24 435.888 2749.98 433.714C2748.73 431.539 2748.07 429.073 2748.06 426.562V355C2748.06 316.8 2717.95 285.584 2680.23 283.624L2680.12 283.523H2678.26C2677.67 283.509 2677.1 283.438 2676.5 283.438C2676.2 283.438 2675.92 283.509 2675.63 283.523L2540.82 283.438L2441.66 226.188L2421.56 333.224L2448.4 348.724C2462.32 356.76 2476.76 378.15 2466.48 395.962L2415.75 483.812H2458.18L2507.77 397.938L2521.54 421.789L2485.73 483.812H2524.34L2573.92 397.938H2662.19L2685.37 438.098L2658.99 483.812H2692.04L2719.44 436.359V426.562C2719.44 434.101 2721.42 441.506 2725.19 448.034C2728.96 454.562 2734.38 459.983 2740.91 463.752C2747.44 467.52 2754.84 469.504 2762.38 469.503C2769.92 469.502 2777.32 467.517 2783.85 463.746C2787.14 461.846 2789.53 458.719 2790.51 455.053C2791.49 451.386 2790.97 447.481 2789.08 444.196V444.196Z" fill="#EA7A2F"/>
<mask id="mask0_50_2844" style="mask-type:luminance" maskUnits="userSpaceOnUse" x="2415" y="226" width="376" height="258">
<path d="M2789.08 444.196C2788.14 442.568 2786.88 441.141 2785.39 439.997C2783.9 438.853 2782.2 438.015 2780.38 437.53C2778.57 437.045 2776.67 436.922 2774.81 437.17C2772.95 437.417 2771.15 438.029 2769.52 438.971C2767.35 440.222 2764.88 440.878 2762.37 440.874C2759.86 440.871 2757.39 440.207 2755.22 438.95C2753.04 437.694 2751.24 435.888 2749.98 433.714C2748.73 431.539 2748.07 429.073 2748.06 426.562V355C2748.06 316.8 2717.95 285.584 2680.23 283.624L2680.12 283.523H2678.26C2677.67 283.509 2677.1 283.438 2676.5 283.438C2676.2 283.438 2675.92 283.509 2675.63 283.523L2540.82 283.438L2441.66 226.188L2421.56 333.224L2448.4 348.724C2462.32 356.76 2476.76 378.15 2466.48 395.962L2415.75 483.812H2458.18L2507.77 397.938L2521.54 421.789L2485.73 483.812H2524.34L2573.92 397.938H2662.19L2685.37 438.098L2658.99 483.812H2692.04L2719.44 436.359V426.562C2719.44 434.101 2721.42 441.506 2725.19 448.034C2728.96 454.562 2734.38 459.983 2740.91 463.752C2747.44 467.52 2754.84 469.504 2762.38 469.503C2769.92 469.502 2777.32 467.517 2783.85 463.746C2787.14 461.846 2789.53 458.719 2790.51 455.053C2791.49 451.386 2790.97 447.481 2789.08 444.196V444.196Z" fill="white"/>
</mask>
<g mask="url(#mask0_50_2844)">
<path opacity="0.3" d="M2748.06 329.495L2731.74 357.777L2719.44 379.088V469.5H2791V412.25L2748.06 329.495Z" fill="#231F20"/>
<path opacity="0.6" d="M2576.31 483.812L2609.37 397.938H2576.31L2526.73 483.812H2576.31Z" fill="white"/>
<g opacity="0.6">
<path d="M2762.38 419.277L2727.73 479.297H2719.44V436.359L2762.38 361.985V419.277ZM2762.38 412.25H2791V469.5H2762.38V412.25ZM2554.32 260.044L2491.24 369.298L2507.77 397.938L2579.13 274.356L2554.32 260.044ZM2699.04 242.59L2625.89 369.298L2642.42 397.938L2651.62 382.008L2662.19 363.709L2723.85 256.902L2699.04 242.59ZM2755.1 260.044L2692.02 369.298L2708.55 397.938L2779.9 274.356L2755.1 260.044ZM2620.03 260.788L2557.38 369.298L2573.92 397.938L2644.84 275.1L2620.03 260.788ZM2491.73 245.731C2491.73 245.731 2421.52 367.359 2419.37 371.073C2417.5 374.358 2417.01 378.25 2418 381.897C2418.99 385.544 2421.38 388.652 2424.66 390.542C2427.93 392.432 2431.82 392.95 2435.47 391.984C2439.12 391.018 2442.25 388.646 2444.16 385.385L2516.52 260.044L2491.73 245.731Z" fill="#231F20"/>
</g>
</g>
<path d="M2472.98 253.732L2454.06 220.956L2445.75 225.758L2336.02 288.769C2336.02 288.769 2355.56 329.602 2358.01 333.839C2359.9 337.114 2362.42 339.984 2365.42 342.286C2368.41 344.588 2371.84 346.277 2375.49 347.256C2379.14 348.235 2382.95 348.485 2386.7 347.991C2390.45 347.498 2394.06 346.271 2397.33 344.38L2400.61 342.477L2411.35 361.068C2411.35 361.068 2428.28 351.629 2450.13 339.02C2457.23 334.921 2463.45 329.464 2468.44 322.959C2473.44 316.455 2477.1 309.03 2479.22 301.11C2481.34 293.19 2481.88 284.93 2480.81 276.801C2479.74 268.671 2477.08 260.833 2472.98 253.732V253.732Z" fill="#EA7A2F"/>
<mask id="mask1_50_2844" style="mask-type:luminance" maskUnits="userSpaceOnUse" x="2336" y="220" width="146" height="142">
<path d="M2472.98 253.732L2454.06 220.956L2445.75 225.758L2336.02 288.769C2336.02 288.769 2355.56 329.602 2358.01 333.839C2359.9 337.114 2362.42 339.984 2365.42 342.286C2368.41 344.588 2371.84 346.277 2375.49 347.256C2379.14 348.235 2382.95 348.485 2386.7 347.991C2390.45 347.498 2394.06 346.271 2397.33 344.38L2400.61 342.477L2411.35 361.068C2411.35 361.068 2428.28 351.629 2450.13 339.02C2457.23 334.921 2463.45 329.464 2468.44 322.959C2473.44 316.455 2477.1 309.03 2479.22 301.11C2481.34 293.19 2481.88 284.93 2480.81 276.801C2479.74 268.671 2477.08 260.833 2472.98 253.732V253.732Z" fill="white"/>
</mask>
<g mask="url(#mask1_50_2844)">
<path opacity="0.6" d="M2333 297.75C2333 297.75 2346.27 297.922 2355.38 297.922C2368.04 297.922 2377.68 302.695 2382.78 311.519C2389.21 322.654 2400.62 342.477 2400.62 342.477L2438.84 320.743C2443.58 318.021 2447.73 314.389 2451.06 310.054C2454.38 305.719 2456.82 300.769 2458.22 295.489C2459.65 290.219 2460.03 284.717 2459.32 279.302C2458.61 273.887 2456.83 268.667 2454.09 263.944L2435.47 231.691L2451.8 211.653L2500.6 289.492L2487.64 362.213L2333 361.29V297.75Z" fill="white"/>
<path opacity="0.6" d="M2415.16 334.075L2404.43 315.476L2428.6 301.872C2430.83 300.59 2432.78 298.878 2434.35 296.837C2435.91 294.795 2437.05 292.464 2437.71 289.978C2438.38 287.508 2438.56 284.929 2438.23 282.39C2437.9 279.851 2437.07 277.403 2435.79 275.186L2427.59 261.017L2446.18 250.283L2454.44 264.588C2457.13 269.228 2458.88 274.356 2459.57 279.675C2460.27 284.994 2459.91 290.398 2458.5 295.574C2457.12 300.763 2454.73 305.628 2451.47 309.886C2448.2 314.145 2444.12 317.713 2439.46 320.385L2415.16 334.075Z" fill="#231F20"/>
</g>
<path d="M2464.79 239.541L2446.2 250.275L2435.46 231.683C2432.75 226.76 2432.08 220.971 2433.59 215.559C2435.1 210.146 2438.68 205.541 2443.54 202.732C2448.41 199.922 2454.18 199.132 2459.63 200.531C2465.07 201.93 2469.75 205.407 2472.65 210.215C2475.5 215.147 2476.27 221.007 2474.79 226.506C2473.32 232.005 2469.72 236.694 2464.79 239.541Z" fill="#EA7A2F"/>
<path opacity="0.8" d="M2464.79 239.541L2446.2 250.275L2435.46 231.683C2432.75 226.76 2432.08 220.971 2433.59 215.559C2435.1 210.146 2438.68 205.541 2443.54 202.732C2448.41 199.922 2454.18 199.132 2459.63 200.531C2465.07 201.93 2469.75 205.407 2472.65 210.215C2475.5 215.147 2476.27 221.007 2474.79 226.506C2473.32 232.005 2469.72 236.694 2464.79 239.541Z" fill="white"/>
<path d="M1612 625.331V785.7H1566.2V749.381L1543.3 726.481V785.7H1497.5V749.381L1462.94 714.825C1444.6 712.924 1424.91 709.764 1405.9 705.71V785.7H1360.1V762.846C1360.1 759.96 1359.6 723.572 1346.89 688.97C1343.47 687.665 1340.25 686.36 1337.2 685.009V785.7H1291.4V762.846C1291.38 757.235 1289.93 625.4 1199.8 625.4H1176.9L1154 579.6L1199.8 556.7C1199.8 556.7 1222.7 510.9 1245.6 510.9C1246.17 510.9 1247.02 510.9 1247.71 510.9C1252.42 497.595 1265.02 488 1279.95 488C1294.88 488 1307.48 497.595 1312.19 510.9C1361.06 510.9 1429.19 510.9 1497.5 510.9C1560.7 510.9 1611.95 562.127 1612 625.331Z" fill="#6D4C41"/>
<path d="M2246 621.339C2246 652.678 2220.33 678.194 2188.75 678.194C2165.85 678.194 2151.26 668.734 2138.39 660.41C2137.02 659.523 2135.62 658.659 2134.25 657.795L2176.82 714.514L2177.3 714.832V715.128L2177.39 715.241L2177.3 715.332V769.163H2142.95V732.525L2101.32 703.324L2085.7 727.863V769.163H2051.35V700.937H1971.2V769.163H1936.85V700.937H1916.65L1873 769.163H1832.29L1882.99 689.929L1834.49 609.968H1801.6L1788 575.855L1824 549.065L1824.07 549.179C1829.93 544.585 1837.21 541.742 1845.25 541.742V519H1879.6V541.742L2005.55 598.597L2104.32 609.968L2104.36 610.173C2129.26 613.88 2144.76 623.795 2157.19 631.823C2168.58 639.192 2176.09 644.081 2188.77 644.081C2201.41 644.081 2211.67 633.87 2211.67 621.339C2211.67 608.808 2201.41 598.597 2188.77 598.597H2177.3V564.484H2188.75C2220.33 564.484 2246 590.001 2246 621.339Z" fill="#424242"/>
<path d="M1027 629.1V902H981.2V783.389L958.3 735.944V795.25C958.3 797.195 958.071 799.14 957.613 801.038L933.041 902H885.799L911.218 797.599L873.181 712.222H820.9V902H775.1V712.222H749.177L731.704 748.399L773.108 844.901L731.269 864.187L681.073 747.189L722.911 660.531C677.111 648.054 646.058 606.136 639.372 546.736L569 522.444V475H706.4V522.444C706.4 543.842 710.865 593.611 752.2 593.611L810.16 514.094L810.412 514.047C824.587 490.657 849.525 475 878.15 475C898.05 475 916.027 482.781 930.018 495.211L1013.58 591.334C1021.85 601.629 1027 614.676 1027 629.1Z" fill="#8D6E63"/>
<rect x="603" y="752" width="506" height="257" fill="#E59C8C"/>
<rect x="586" y="730" width="541" height="31" rx="15.5" fill="#41160C"/>
<rect x="643" y="944" width="130" height="130" rx="65" fill="#1C1B1B"/>
<circle cx="708" cy="1009" r="45" fill="#50453C"/>
<rect x="939" y="944" width="130" height="130" rx="65" fill="#1C1B1B"/>
<circle cx="1004" cy="1009" r="45" fill="#50453C"/>
<rect x="1179" y="752" width="506" height="257" fill="#E59C8C"/>
<rect x="1162" y="730" width="541" height="31" rx="15.5" fill="#41160C"/>
<rect x="1219" y="944" width="130" height="130" rx="65" fill="#1C1B1B"/>
<circle cx="1284" cy="1009" r="45" fill="#50453C"/>
<rect x="1515" y="944" width="130" height="130" rx="65" fill="#1C1B1B"/>
<circle cx="1580" cy="1009" r="45" fill="#50453C"/>
<rect x="1755" y="752" width="506" height="257" fill="#E59C8C"/>
<rect x="1738" y="730" width="541" height="31" rx="15.5" fill="#41160C"/>
<rect x="1795" y="944" width="130" height="130" rx="65" fill="#1C1B1B"/>
<circle cx="1860" cy="1009" r="45" fill="#50453C"/>
<rect x="2091" y="944" width="130" height="130" rx="65" fill="#1C1B1B"/>
<circle cx="2156" cy="1009" r="45" fill="#50453C"/>
<rect x="2331" y="752" width="506" height="257" fill="#E59C8C"/>
<rect x="2314" y="730" width="541" height="31" rx="15.5" fill="#41160C"/>
<rect x="2371" y="944" width="130" height="130" rx="65" fill="#1C1B1B"/>
<circle cx="2436" cy="1009" r="45" fill="#50453C"/>
<rect x="2667" y="944" width="130" height="130" rx="65" fill="#1C1B1B"/>
<circle cx="2732" cy="1009" r="45" fill="#50453C"/>
<rect x="2907" y="752" width="506" height="257" fill="#E59C8C"/>
<rect x="2890" y="730" width="541" height="31" rx="15.5" fill="#41160C"/>
<rect x="2947" y="944" width="130" height="130" rx="65" fill="#1C1B1B"/>
<circle cx="3012" cy="1009" r="45" fill="#50453C"/>
<rect x="3243" y="944" width="130" height="130" rx="65" fill="#1C1B1B"/>
<circle cx="3308" cy="1009" r="45" fill="#50453C"/>
<path d="M1094 993.5C1094 984.94 1100.94 978 1109.5 978H1178.5C1187.06 978 1194 984.94 1194 993.5V993.5C1194 1002.06 1187.06 1009 1178.5 1009H1109.5C1100.94 1009 1094 1002.06 1094 993.5V993.5Z" fill="#E59C8C"/>
<path d="M1670 993.5C1670 984.94 1676.94 978 1685.5 978H1754.5C1763.06 978 1770 984.94 1770 993.5V993.5C1770 1002.06 1763.06 1009 1754.5 1009H1685.5C1676.94 1009 1670 1002.06 1670 993.5V993.5Z" fill="#E59C8C"/>
<path d="M2246 993.5C2246 984.94 2252.94 978 2261.5 978H2330.5C2339.06 978 2346 984.94 2346 993.5V993.5C2346 1002.06 2339.06 1009 2330.5 1009H2261.5C2252.94 1009 2246 1002.06 2246 993.5V993.5Z" fill="#E59C8C"/>
<path d="M2822 993.5C2822 984.94 2828.94 978 2837.5 978H2906.5C2915.06 978 2922 984.94 2922 993.5V993.5C2922 1002.06 2915.06 1009 2906.5 1009H2837.5C2828.94 1009 2822 1002.06 2822 993.5V993.5Z" fill="#E59C8C"/>
<path d="M708 874.064C708.386 874.062 708.765 874.063 709.136 874.069C722.167 874.004 726.528 869.506 724.925 849.248C723.443 840.501 723.539 834.728 724.925 823.304C729.424 815.372 732.635 811.283 742.977 806.384C751.963 804.288 757.152 804.298 766.672 806.384C784.428 811.662 795.467 814.343 820.83 817.664C831.405 819.356 837.334 819.136 847.909 817.664C853.919 814.427 855.716 811.038 856.936 803C858.397 811.287 860.484 814.36 865.962 817.664C874.59 819.542 879.99 820.152 894.17 817.664C894.496 818.753 937.392 809.799 946.072 806.384C954.751 802.969 968.638 806.384 968.638 806.384C979.143 809.054 984.345 811.819 990.075 823.304C992.518 834.588 992.205 840.121 990.075 849.248C987.116 869.1 992.189 873.082 1007 874.064C991.282 873.531 987.866 877.9 990.075 896.624C991.939 907.063 992.257 912.624 990.075 921.44C985.562 933.848 983.306 936.104 968.638 940.616C960.067 941.657 955.17 941.846 946.072 940.616C924.318 937.364 912.924 935.15 894.17 930.464C879.554 927.639 872.399 927.347 865.962 930.464C858.849 933.683 857.74 937.355 856.936 944C856.121 936.131 854.42 932.848 847.909 930.464C843.095 928.195 828.678 927.393 820.83 930.464C800.42 935.789 788.719 938.301 766.672 940.616C756.871 941.531 751.654 941.579 742.977 940.616C732.352 935.258 726.743 929.336 724.925 921.44C723.106 913.544 722.322 906.852 724.925 896.624C725.554 879.502 722.154 874.269 709.136 874.069C708.764 874.071 708.386 874.069 708 874.064Z" fill="white"/>
<path d="M708 874.064C721.957 873.981 725.572 879.014 724.925 896.624C722.322 906.852 723.106 913.544 724.925 921.44C726.743 929.336 732.352 935.258 742.977 940.616C751.654 941.579 756.871 941.531 766.672 940.616C788.719 938.301 800.42 935.789 820.83 930.464C828.678 927.393 843.095 928.195 847.909 930.464C854.42 932.848 856.121 936.131 856.936 944C857.74 937.355 858.849 933.683 865.962 930.464C872.399 927.347 879.554 927.639 894.17 930.464C912.924 935.15 924.318 937.364 946.072 940.616C955.17 941.846 960.067 941.657 968.638 940.616C983.306 936.104 985.562 933.848 990.075 921.44C992.257 912.624 991.939 907.063 990.075 896.624C987.866 877.9 991.282 873.531 1007 874.064C992.189 873.082 987.116 869.1 990.075 849.248C992.205 840.121 992.518 834.588 990.075 823.304C984.345 811.819 979.143 809.054 968.638 806.384C968.638 806.384 954.751 802.969 946.072 806.384C937.392 809.799 894.496 818.753 894.17 817.664C879.99 820.152 874.59 819.542 865.962 817.664C860.484 814.36 858.397 811.287 856.936 803C855.716 811.038 853.919 814.427 847.909 817.664C837.334 819.136 831.405 819.356 820.83 817.664C795.467 814.343 784.428 811.662 766.672 806.384C757.152 804.298 751.963 804.288 742.977 806.384C732.635 811.283 729.424 815.372 724.925 823.304C723.539 834.728 723.443 840.501 724.925 849.248C726.573 870.084 721.914 874.248 708 874.064Z" stroke="#232E12" stroke-width="4"/>
<path d="M708 874.064C708.386 874.062 708.765 874.063 709.136 874.069C722.167 874.004 726.528 869.506 724.925 849.248C723.443 840.501 723.539 834.728 724.925 823.304C729.424 815.372 732.635 811.283 742.977 806.384C751.963 804.288 757.152 804.298 766.672 806.384C784.428 811.662 795.467 814.343 820.83 817.664C831.405 819.356 837.334 819.136 847.909 817.664C853.919 814.427 855.716 811.038 856.936 803C858.397 811.287 860.484 814.36 865.962 817.664C874.59 819.542 879.99 820.152 894.17 817.664C894.496 818.753 937.392 809.799 946.072 806.384C954.751 802.969 968.638 806.384 968.638 806.384C979.143 809.054 984.345 811.819 990.075 823.304C992.518 834.588 992.205 840.121 990.075 849.248C987.116 869.1 992.189 873.082 1007 874.064C991.282 873.531 987.866 877.9 990.075 896.624C991.939 907.063 992.257 912.624 990.075 921.44C985.562 933.848 983.306 936.104 968.638 940.616C960.067 941.657 955.17 941.846 946.072 940.616C924.318 937.364 912.924 935.15 894.17 930.464C879.554 927.639 872.399 927.347 865.962 930.464C858.849 933.683 857.74 937.355 856.936 944C856.121 936.131 854.42 932.848 847.909 930.464C843.095 928.195 828.678 927.393 820.83 930.464C800.42 935.789 788.719 938.301 766.672 940.616C756.871 941.531 751.654 941.579 742.977 940.616C732.352 935.258 726.743 929.336 724.925 921.44C723.106 913.544 722.322 906.852 724.925 896.624C725.554 879.502 722.154 874.269 709.136 874.069C708.764 874.071 708.386 874.069 708 874.064Z" fill="#F1DFD3"/>
<path d="M708 874.064C721.957 873.981 725.572 879.014 724.925 896.624C722.322 906.852 723.106 913.544 724.925 921.44C726.743 929.336 732.352 935.258 742.977 940.616C751.654 941.579 756.871 941.531 766.672 940.616C788.719 938.301 800.42 935.789 820.83 930.464C828.678 927.393 843.095 928.195 847.909 930.464C854.42 932.848 856.121 936.131 856.936 944C857.74 937.355 858.849 933.683 865.962 930.464C872.399 927.347 879.554 927.639 894.17 930.464C912.924 935.15 924.318 937.364 946.072 940.616C955.17 941.846 960.067 941.657 968.638 940.616C983.306 936.104 985.562 933.848 990.075 921.44C992.257 912.624 991.939 907.063 990.075 896.624C987.866 877.9 991.282 873.531 1007 874.064C992.189 873.082 987.116 869.1 990.075 849.248C992.205 840.121 992.518 834.588 990.075 823.304C984.345 811.819 979.143 809.054 968.638 806.384C968.638 806.384 954.751 802.969 946.072 806.384C937.392 809.799 894.496 818.753 894.17 817.664C879.99 820.152 874.59 819.542 865.962 817.664C860.484 814.36 858.397 811.287 856.936 803C855.716 811.038 853.919 814.427 847.909 817.664C837.334 819.136 831.405 819.356 820.83 817.664C795.467 814.343 784.428 811.662 766.672 806.384C757.152 804.298 751.963 804.288 742.977 806.384C732.635 811.283 729.424 815.372 724.925 823.304C723.539 834.728 723.443 840.501 724.925 849.248C726.573 870.084 721.914 874.248 708 874.064Z" stroke="#232E12" stroke-width="4"/>
<path d="M1284 874.064C1284.39 874.062 1284.77 874.063 1285.14 874.069C1298.17 874.004 1302.53 869.506 1300.92 849.248C1299.44 840.501 1299.54 834.728 1300.92 823.304C1305.42 815.372 1308.63 811.283 1318.98 806.384C1327.96 804.288 1333.15 804.298 1342.67 806.384C1360.43 811.662 1371.47 814.343 1396.83 817.664C1407.41 819.356 1413.33 819.136 1423.91 817.664C1429.92 814.427 1431.72 811.038 1432.94 803C1434.4 811.287 1436.48 814.36 1441.96 817.664C1450.59 819.542 1455.99 820.152 1470.17 817.664C1470.5 818.753 1513.39 809.799 1522.07 806.384C1530.75 802.969 1544.64 806.384 1544.64 806.384C1555.14 809.054 1560.35 811.819 1566.08 823.304C1568.52 834.588 1568.21 840.121 1566.08 849.248C1563.12 869.1 1568.19 873.082 1583 874.064C1567.28 873.531 1563.87 877.9 1566.08 896.624C1567.94 907.063 1568.26 912.624 1566.08 921.44C1561.56 933.848 1559.31 936.104 1544.64 940.616C1536.07 941.657 1531.17 941.846 1522.07 940.616C1500.32 937.364 1488.92 935.15 1470.17 930.464C1455.55 927.639 1448.4 927.347 1441.96 930.464C1434.85 933.683 1433.74 937.355 1432.94 944C1432.12 936.131 1430.42 932.848 1423.91 930.464C1419.09 928.195 1404.68 927.393 1396.83 930.464C1376.42 935.789 1364.72 938.301 1342.67 940.616C1332.87 941.531 1327.65 941.579 1318.98 940.616C1308.35 935.258 1302.74 929.336 1300.92 921.44C1299.11 913.544 1298.32 906.852 1300.92 896.624C1301.55 879.502 1298.15 874.269 1285.14 874.069C1284.76 874.071 1284.39 874.069 1284 874.064Z" fill="#F1DFD3"/>
<path d="M1284 874.064C1297.96 873.981 1301.57 879.014 1300.92 896.624C1298.32 906.852 1299.11 913.544 1300.92 921.44C1302.74 929.336 1308.35 935.258 1318.98 940.616C1327.65 941.579 1332.87 941.531 1342.67 940.616C1364.72 938.301 1376.42 935.789 1396.83 930.464C1404.68 927.393 1419.09 928.195 1423.91 930.464C1430.42 932.848 1432.12 936.131 1432.94 944C1433.74 937.355 1434.85 933.683 1441.96 930.464C1448.4 927.347 1455.55 927.639 1470.17 930.464C1488.92 935.15 1500.32 937.364 1522.07 940.616C1531.17 941.846 1536.07 941.657 1544.64 940.616C1559.31 936.104 1561.56 933.848 1566.08 921.44C1568.26 912.624 1567.94 907.063 1566.08 896.624C1563.87 877.9 1567.28 873.531 1583 874.064C1568.19 873.082 1563.12 869.1 1566.08 849.248C1568.21 840.121 1568.52 834.588 1566.08 823.304C1560.35 811.819 1555.14 809.054 1544.64 806.384C1544.64 806.384 1530.75 802.969 1522.07 806.384C1513.39 809.799 1470.5 818.753 1470.17 817.664C1455.99 820.152 1450.59 819.542 1441.96 817.664C1436.48 814.36 1434.4 811.287 1432.94 803C1431.72 811.038 1429.92 814.427 1423.91 817.664C1413.33 819.136 1407.41 819.356 1396.83 817.664C1371.47 814.343 1360.43 811.662 1342.67 806.384C1333.15 804.298 1327.96 804.288 1318.98 806.384C1308.63 811.283 1305.42 815.372 1300.92 823.304C1299.54 834.728 1299.44 840.501 1300.92 849.248C1302.57 870.084 1297.91 874.248 1284 874.064Z" stroke="#232E12" stroke-width="4"/>
<path d="M1860 874.064C1860.39 874.062 1860.77 874.063 1861.14 874.069C1874.17 874.004 1878.53 869.506 1876.92 849.248C1875.44 840.501 1875.54 834.728 1876.92 823.304C1881.42 815.372 1884.63 811.283 1894.98 806.384C1903.96 804.288 1909.15 804.298 1918.67 806.384C1936.43 811.662 1947.47 814.343 1972.83 817.664C1983.41 819.356 1989.33 819.136 1999.91 817.664C2005.92 814.427 2007.72 811.038 2008.94 803C2010.4 811.287 2012.48 814.36 2017.96 817.664C2026.59 819.542 2031.99 820.152 2046.17 817.664C2046.5 818.753 2089.39 809.799 2098.07 806.384C2106.75 802.969 2120.64 806.384 2120.64 806.384C2131.14 809.054 2136.35 811.819 2142.08 823.304C2144.52 834.588 2144.21 840.121 2142.08 849.248C2139.12 869.1 2144.19 873.082 2159 874.064C2143.28 873.531 2139.87 877.9 2142.08 896.624C2143.94 907.063 2144.26 912.624 2142.08 921.44C2137.56 933.848 2135.31 936.104 2120.64 940.616C2112.07 941.657 2107.17 941.846 2098.07 940.616C2076.32 937.364 2064.92 935.15 2046.17 930.464C2031.55 927.639 2024.4 927.347 2017.96 930.464C2010.85 933.683 2009.74 937.355 2008.94 944C2008.12 936.131 2006.42 932.848 1999.91 930.464C1995.09 928.195 1980.68 927.393 1972.83 930.464C1952.42 935.789 1940.72 938.301 1918.67 940.616C1908.87 941.531 1903.65 941.579 1894.98 940.616C1884.35 935.258 1878.74 929.336 1876.92 921.44C1875.11 913.544 1874.32 906.852 1876.92 896.624C1877.55 879.502 1874.15 874.269 1861.14 874.069C1860.76 874.071 1860.39 874.069 1860 874.064Z" fill="#F1DFD3"/>
<path d="M1860 874.064C1873.96 873.981 1877.57 879.014 1876.92 896.624C1874.32 906.852 1875.11 913.544 1876.92 921.44C1878.74 929.336 1884.35 935.258 1894.98 940.616C1903.65 941.579 1908.87 941.531 1918.67 940.616C1940.72 938.301 1952.42 935.789 1972.83 930.464C1980.68 927.393 1995.09 928.195 1999.91 930.464C2006.42 932.848 2008.12 936.131 2008.94 944C2009.74 937.355 2010.85 933.683 2017.96 930.464C2024.4 927.347 2031.55 927.639 2046.17 930.464C2064.92 935.15 2076.32 937.364 2098.07 940.616C2107.17 941.846 2112.07 941.657 2120.64 940.616C2135.31 936.104 2137.56 933.848 2142.08 921.44C2144.26 912.624 2143.94 907.063 2142.08 896.624C2139.87 877.9 2143.28 873.531 2159 874.064C2144.19 873.082 2139.12 869.1 2142.08 849.248C2144.21 840.121 2144.52 834.588 2142.08 823.304C2136.35 811.819 2131.14 809.054 2120.64 806.384C2120.64 806.384 2106.75 802.969 2098.07 806.384C2089.39 809.799 2046.5 818.753 2046.17 817.664C2031.99 820.152 2026.59 819.542 2017.96 817.664C2012.48 814.36 2010.4 811.287 2008.94 803C2007.72 811.038 2005.92 814.427 1999.91 817.664C1989.33 819.136 1983.41 819.356 1972.83 817.664C1947.47 814.343 1936.43 811.662 1918.67 806.384C1909.15 804.298 1903.96 804.288 1894.98 806.384C1884.63 811.283 1881.42 815.372 1876.92 823.304C1875.54 834.728 1875.44 840.501 1876.92 849.248C1878.57 870.084 1873.91 874.248 1860 874.064Z" stroke="#232E12" stroke-width="4"/>
<path d="M2436 874.064C2436.39 874.062 2436.77 874.063 2437.14 874.069C2450.17 874.004 2454.53 869.506 2452.92 849.248C2451.44 840.501 2451.54 834.728 2452.92 823.304C2457.42 815.372 2460.63 811.283 2470.98 806.384C2479.96 804.288 2485.15 804.298 2494.67 806.384C2512.43 811.662 2523.47 814.343 2548.83 817.664C2559.41 819.356 2565.33 819.136 2575.91 817.664C2581.92 814.427 2583.72 811.038 2584.94 803C2586.4 811.287 2588.48 814.36 2593.96 817.664C2602.59 819.542 2607.99 820.152 2622.17 817.664C2622.5 818.753 2665.39 809.799 2674.07 806.384C2682.75 802.969 2696.64 806.384 2696.64 806.384C2707.14 809.054 2712.35 811.819 2718.08 823.304C2720.52 834.588 2720.21 840.121 2718.08 849.248C2715.12 869.1 2720.19 873.082 2735 874.064C2719.28 873.531 2715.87 877.9 2718.08 896.624C2719.94 907.063 2720.26 912.624 2718.08 921.44C2713.56 933.848 2711.31 936.104 2696.64 940.616C2688.07 941.657 2683.17 941.846 2674.07 940.616C2652.32 937.364 2640.92 935.15 2622.17 930.464C2607.55 927.639 2600.4 927.347 2593.96 930.464C2586.85 933.683 2585.74 937.355 2584.94 944C2584.12 936.131 2582.42 932.848 2575.91 930.464C2571.09 928.195 2556.68 927.393 2548.83 930.464C2528.42 935.789 2516.72 938.301 2494.67 940.616C2484.87 941.531 2479.65 941.579 2470.98 940.616C2460.35 935.258 2454.74 929.336 2452.92 921.44C2451.11 913.544 2450.32 906.852 2452.92 896.624C2453.55 879.502 2450.15 874.269 2437.14 874.069C2436.76 874.071 2436.39 874.069 2436 874.064Z" fill="#F1DFD3"/>
<path d="M2436 874.064C2449.96 873.981 2453.57 879.014 2452.92 896.624C2450.32 906.852 2451.11 913.544 2452.92 921.44C2454.74 929.336 2460.35 935.258 2470.98 940.616C2479.65 941.579 2484.87 941.531 2494.67 940.616C2516.72 938.301 2528.42 935.789 2548.83 930.464C2556.68 927.393 2571.09 928.195 2575.91 930.464C2582.42 932.848 2584.12 936.131 2584.94 944C2585.74 937.355 2586.85 933.683 2593.96 930.464C2600.4 927.347 2607.55 927.639 2622.17 930.464C2640.92 935.15 2652.32 937.364 2674.07 940.616C2683.17 941.846 2688.07 941.657 2696.64 940.616C2711.31 936.104 2713.56 933.848 2718.08 921.44C2720.26 912.624 2719.94 907.063 2718.08 896.624C2715.87 877.9 2719.28 873.531 2735 874.064C2720.19 873.082 2715.12 869.1 2718.08 849.248C2720.21 840.121 2720.52 834.588 2718.08 823.304C2712.35 811.819 2707.14 809.054 2696.64 806.384C2696.64 806.384 2682.75 802.969 2674.07 806.384C2665.39 809.799 2622.5 818.753 2622.17 817.664C2607.99 820.152 2602.59 819.542 2593.96 817.664C2588.48 814.36 2586.4 811.287 2584.94 803C2583.72 811.038 2581.92 814.427 2575.91 817.664C2565.33 819.136 2559.41 819.356 2548.83 817.664C2523.47 814.343 2512.43 811.662 2494.67 806.384C2485.15 804.298 2479.96 804.288 2470.98 806.384C2460.63 811.283 2457.42 815.372 2452.92 823.304C2451.54 834.728 2451.44 840.501 2452.92 849.248C2454.57 870.084 2449.91 874.248 2436 874.064Z" stroke="#232E12" stroke-width="4"/>
<path d="M3012 874.064C3012.39 874.062 3012.77 874.063 3013.14 874.069C3026.17 874.004 3030.53 869.506 3028.92 849.248C3027.44 840.501 3027.54 834.728 3028.92 823.304C3033.42 815.372 3036.63 811.283 3046.98 806.384C3055.96 804.288 3061.15 804.298 3070.67 806.384C3088.43 811.662 3099.47 814.343 3124.83 817.664C3135.41 819.356 3141.33 819.136 3151.91 817.664C3157.92 814.427 3159.72 811.038 3160.94 803C3162.4 811.287 3164.48 814.36 3169.96 817.664C3178.59 819.542 3183.99 820.152 3198.17 817.664C3198.5 818.753 3241.39 809.799 3250.07 806.384C3258.75 802.969 3272.64 806.384 3272.64 806.384C3283.14 809.054 3288.35 811.819 3294.08 823.304C3296.52 834.588 3296.21 840.121 3294.08 849.248C3291.12 869.1 3296.19 873.082 3311 874.064C3295.28 873.531 3291.87 877.9 3294.08 896.624C3295.94 907.063 3296.26 912.624 3294.08 921.44C3289.56 933.848 3287.31 936.104 3272.64 940.616C3264.07 941.657 3259.17 941.846 3250.07 940.616C3228.32 937.364 3216.92 935.15 3198.17 930.464C3183.55 927.639 3176.4 927.347 3169.96 930.464C3162.85 933.683 3161.74 937.355 3160.94 944C3160.12 936.131 3158.42 932.848 3151.91 930.464C3147.09 928.195 3132.68 927.393 3124.83 930.464C3104.42 935.789 3092.72 938.301 3070.67 940.616C3060.87 941.531 3055.65 941.579 3046.98 940.616C3036.35 935.258 3030.74 929.336 3028.92 921.44C3027.11 913.544 3026.32 906.852 3028.92 896.624C3029.55 879.502 3026.15 874.269 3013.14 874.069C3012.76 874.071 3012.39 874.069 3012 874.064Z" fill="#F1DFD3"/>
<path d="M3012 874.064C3025.96 873.981 3029.57 879.014 3028.92 896.624C3026.32 906.852 3027.11 913.544 3028.92 921.44C3030.74 929.336 3036.35 935.258 3046.98 940.616C3055.65 941.579 3060.87 941.531 3070.67 940.616C3092.72 938.301 3104.42 935.789 3124.83 930.464C3132.68 927.393 3147.09 928.195 3151.91 930.464C3158.42 932.848 3160.12 936.131 3160.94 944C3161.74 937.355 3162.85 933.683 3169.96 930.464C3176.4 927.347 3183.55 927.639 3198.17 930.464C3216.92 935.15 3228.32 937.364 3250.07 940.616C3259.17 941.846 3264.07 941.657 3272.64 940.616C3287.31 936.104 3289.56 933.848 3294.08 921.44C3296.26 912.624 3295.94 907.063 3294.08 896.624C3291.87 877.9 3295.28 873.531 3311 874.064C3296.19 873.082 3291.12 869.1 3294.08 849.248C3296.21 840.121 3296.52 834.588 3294.08 823.304C3288.35 811.819 3283.14 809.054 3272.64 806.384C3272.64 806.384 3258.75 802.969 3250.07 806.384C3241.39 809.799 3198.5 818.753 3198.17 817.664C3183.99 820.152 3178.59 819.542 3169.96 817.664C3164.48 814.36 3162.4 811.287 3160.94 803C3159.72 811.038 3157.92 814.427 3151.91 817.664C3141.33 819.136 3135.41 819.356 3124.83 817.664C3099.47 814.343 3088.43 811.662 3070.67 806.384C3061.15 804.298 3055.96 804.288 3046.98 806.384C3036.63 811.283 3033.42 815.372 3028.92 823.304C3027.54 834.728 3027.44 840.501 3028.92 849.248C3030.57 870.084 3025.91 874.248 3012 874.064Z" stroke="#232E12" stroke-width="4"/>
<path d="M857.991 898.023C854.082 898.008 850.719 897.045 847.901 895.136C845.098 893.227 842.938 890.462 841.423 886.841C839.923 883.22 839.181 878.864 839.196 873.773C839.196 868.697 839.946 864.371 841.446 860.795C842.961 857.22 845.12 854.5 847.923 852.636C850.741 850.758 854.098 849.818 857.991 849.818C861.885 849.818 865.234 850.758 868.037 852.636C870.855 854.515 873.022 857.242 874.537 860.818C876.052 864.379 876.802 868.697 876.787 873.773C876.787 878.879 876.029 883.242 874.514 886.864C873.014 890.485 870.863 893.25 868.06 895.159C865.257 897.068 861.901 898.023 857.991 898.023ZM857.991 889.864C860.658 889.864 862.787 888.523 864.378 885.841C865.969 883.159 866.757 879.136 866.741 873.773C866.741 870.242 866.378 867.303 865.651 864.955C864.938 862.606 863.923 860.841 862.605 859.659C861.302 858.477 859.764 857.886 857.991 857.886C855.34 857.886 853.219 859.212 851.628 861.864C850.037 864.515 849.234 868.485 849.219 873.773C849.219 877.348 849.575 880.333 850.287 882.727C851.014 885.106 852.037 886.894 853.355 888.091C854.673 889.273 856.219 889.864 857.991 889.864Z" fill="#231A13"/>
<path d="M1442.37 850.455V897H1432.53V859.795H1432.25L1421.59 866.477V857.75L1433.12 850.455H1442.37Z" fill="#231A13"/>
<path d="M1993.62 897V889.909L2010.18 874.568C2011.59 873.205 2012.78 871.977 2013.73 870.886C2014.7 869.795 2015.43 868.727 2015.93 867.682C2016.43 866.621 2016.68 865.477 2016.68 864.25C2016.68 862.886 2016.37 861.712 2015.75 860.727C2015.13 859.727 2014.28 858.962 2013.21 858.432C2012.13 857.886 2010.91 857.614 2009.55 857.614C2008.12 857.614 2006.88 857.902 2005.82 858.477C2004.76 859.053 2003.94 859.879 2003.37 860.955C2002.79 862.03 2002.5 863.311 2002.5 864.795H1993.16C1993.16 861.75 1993.85 859.106 1995.23 856.864C1996.61 854.621 1998.54 852.886 2001.03 851.659C2003.51 850.432 2006.37 849.818 2009.62 849.818C2012.95 849.818 2015.85 850.409 2018.32 851.591C2020.81 852.758 2022.74 854.379 2024.12 856.455C2025.5 858.53 2026.18 860.909 2026.18 863.591C2026.18 865.348 2025.84 867.083 2025.14 868.795C2024.46 870.508 2023.24 872.409 2021.48 874.5C2019.72 876.576 2017.25 879.068 2014.05 881.977L2007.25 888.636V888.955H2026.8V897H1993.62Z" fill="#231A13"/>
<path d="M2585.88 897.636C2582.49 897.636 2579.47 897.053 2576.82 895.886C2574.18 894.705 2572.1 893.083 2570.57 891.023C2569.05 888.947 2568.27 886.553 2568.22 883.841H2578.13C2578.19 884.977 2578.57 885.977 2579.25 886.841C2579.94 887.689 2580.87 888.348 2582.02 888.818C2583.17 889.288 2584.47 889.523 2585.91 889.523C2587.41 889.523 2588.73 889.258 2589.88 888.727C2591.04 888.197 2591.94 887.462 2592.59 886.523C2593.24 885.583 2593.57 884.5 2593.57 883.273C2593.57 882.03 2593.22 880.932 2592.52 879.977C2591.84 879.008 2590.85 878.25 2589.57 877.705C2588.29 877.159 2586.78 876.886 2585.02 876.886H2580.68V869.659H2585.02C2586.5 869.659 2587.82 869.402 2588.95 868.886C2590.1 868.371 2591 867.659 2591.63 866.75C2592.27 865.826 2592.59 864.75 2592.59 863.523C2592.59 862.356 2592.31 861.333 2591.75 860.455C2591.2 859.561 2590.43 858.864 2589.43 858.364C2588.44 857.864 2587.29 857.614 2585.97 857.614C2584.64 857.614 2583.42 857.856 2582.32 858.341C2581.21 858.811 2580.32 859.485 2579.66 860.364C2578.99 861.242 2578.63 862.273 2578.59 863.455H2569.16C2569.2 860.773 2569.97 858.409 2571.45 856.364C2572.94 854.318 2574.94 852.72 2577.45 851.568C2579.98 850.402 2582.84 849.818 2586.02 849.818C2589.23 849.818 2592.04 850.402 2594.45 851.568C2596.86 852.735 2598.73 854.311 2600.07 856.295C2601.41 858.265 2602.08 860.477 2602.07 862.932C2602.08 865.538 2601.27 867.712 2599.63 869.455C2598.01 871.197 2595.9 872.303 2593.29 872.773V873.136C2596.72 873.576 2599.32 874.765 2601.11 876.705C2602.91 878.629 2603.81 881.038 2603.79 883.932C2603.81 886.583 2603.04 888.939 2601.5 891C2599.97 893.061 2597.85 894.682 2595.16 895.864C2592.46 897.045 2589.37 897.636 2585.88 897.636Z" fill="#231A13"/>
<path d="M3143.38 888.818V881.068L3162.81 850.455H3169.49V861.182H3165.54L3153.29 880.568V880.932H3180.9V888.818H3143.38ZM3165.72 897V886.455L3165.9 883.023V850.455H3175.13V897H3165.72Z" fill="#231A13"/>
<path d="M2569.78 505.222C2565.48 500.926 2558.52 500.926 2554.22 505.222L2484.22 575.225C2479.92 579.521 2479.92 586.486 2484.22 590.782C2488.51 595.078 2495.48 595.078 2499.77 590.782L2562 528.556L2624.23 590.782C2628.52 595.078 2635.49 595.078 2639.78 590.782C2644.08 586.486 2644.08 579.521 2639.78 575.225L2569.78 505.222ZM2573 746.077V513H2551V746.077H2573Z" fill="#201A19"/>
</svg>
