<svg width="4000" height="1200" viewBox="0 0 4000 1200" fill="none" xmlns="http://www.w3.org/2000/svg">
<path d="M3217.67 457.437V610.104H3179.5V533.771H3141.33V610.104H3103.17V533.771H3065V610.104H3026.83V533.771H2988.67V610.104H2950.5V495.604L2937.77 482.876L2874.17 533.771V552.854C2874.17 559.533 2874.17 571.937 2912.33 571.937V610.104C2845.92 610.104 2836 574.227 2836 552.854V409.729C2836 392.015 2843.04 375.026 2855.56 362.5C2868.09 349.974 2885.08 342.938 2902.79 342.938H3103.17C3133.53 342.938 3162.66 355.001 3184.13 376.474C3205.6 397.947 3217.67 427.07 3217.67 457.437Z" fill="#BDBDBD"/>
<path opacity="0.3" d="M2988.83 635.521H2950.67V521.021L2988.83 559.188V635.521ZM3141.5 559.188H3103.33V635.521H3141.5V559.188Z" fill="black"/>
<path d="M958 611.301C875.31 611.301 816.998 584.071 770.636 565.564V611.301H729V590.566L686.864 548.847H624.909V611.301H583.273V547.223C533.913 537.293 499.979 477.295 500 383.529V298.154C500 260.952 518.695 238.427 540.762 226.539V226.165C540.762 208.927 554.752 194.938 571.989 194.938C585.688 194.938 597.179 203.806 601.405 216.068L603.217 215.756C614.708 215.756 624.035 225.082 624.035 236.574C624.035 248.066 614.708 257.392 603.217 257.392H582.565C572.968 257.538 541.636 260.931 541.636 298.154V362.711C540.762 423.938 589.622 423.771 598.22 423.938H666.108C711.971 423.938 752.795 445.234 779.422 478.419C779.609 478.648 779.838 478.814 780.025 479.043C857.823 580.074 958 590.483 958 590.483V611.301Z" fill="#2E7D32"/>
<path d="M2059 490.269V650.638H2013.2V614.318L1990.3 591.418V650.638H1944.5V614.318L1909.94 579.762C1891.6 577.861 1871.91 574.701 1852.9 570.648V650.638H1807.1V627.783C1807.1 624.898 1806.6 588.51 1793.89 553.908C1790.47 552.603 1787.25 551.297 1784.2 549.946V650.638H1738.4V627.783C1738.38 622.173 1736.93 490.338 1646.8 490.338H1623.9L1601 444.538L1646.8 421.638C1646.8 421.638 1669.7 375.838 1692.6 375.838C1693.17 375.838 1694.02 375.838 1694.71 375.838C1699.42 362.533 1712.02 352.938 1726.95 352.938C1741.88 352.938 1754.48 362.533 1759.19 375.838C1808.06 375.838 1876.19 375.838 1944.5 375.838C2007.7 375.838 2058.95 427.065 2059 490.269Z" fill="#6D4C41"/>
<path d="M2690 503.277C2690 534.615 2664.33 560.132 2632.75 560.132C2609.85 560.132 2595.26 550.671 2582.39 542.348C2581.02 541.461 2579.62 540.597 2578.25 539.732L2620.82 596.451L2621.3 596.769V597.065L2621.39 597.179L2621.3 597.27V651.1H2586.95V614.463L2545.32 585.262L2529.7 609.801V651.1H2495.35V582.874H2415.2V651.1H2380.85V582.874H2360.65L2317 651.1H2276.29L2326.99 571.867L2278.49 491.906H2245.6L2232 457.793L2268 431.003L2268.07 431.116C2273.93 426.522 2281.21 423.68 2289.25 423.68V400.938H2323.6V423.68L2449.55 480.535L2548.32 491.906L2548.36 492.11C2573.26 495.817 2588.76 505.733 2601.19 513.761C2612.58 521.129 2620.09 526.019 2632.77 526.019C2645.41 526.019 2655.67 515.808 2655.67 503.277C2655.67 490.746 2645.41 480.535 2632.77 480.535H2621.3V446.422H2632.75C2664.33 446.422 2690 471.938 2690 503.277Z" fill="#424242"/>
<path d="M1474 494.037V766.937H1428.2V648.326L1405.3 600.882V660.187C1405.3 662.133 1405.07 664.078 1404.61 665.976L1380.04 766.937H1332.8L1358.22 662.536L1320.18 577.16H1267.9V766.937H1222.1V577.16H1196.18L1178.7 613.336L1220.11 709.838L1178.27 729.124L1128.07 612.126L1169.91 525.469C1124.11 512.991 1093.06 471.074 1086.37 411.674L1016 387.382V339.938H1153.4V387.382C1153.4 408.779 1157.87 458.549 1199.2 458.549L1257.16 379.032L1257.41 378.984C1271.59 355.594 1296.52 339.938 1325.15 339.938C1345.05 339.938 1363.03 347.718 1377.02 360.149L1460.58 456.271C1468.85 466.567 1474 479.614 1474 494.037Z" fill="#8D6E63"/>
<rect x="486" y="610.938" width="506" height="257" fill="#E59C8C"/>
<rect x="469" y="588.938" width="541" height="31" rx="15.5" fill="#41160C"/>
<rect x="526" y="802.938" width="130" height="130" rx="65" fill="#1C1B1B"/>
<circle cx="591" cy="867.938" r="45" fill="#50453C"/>
<rect x="822" y="802.938" width="130" height="130" rx="65" fill="#1C1B1B"/>
<circle cx="887" cy="867.938" r="45" fill="#50453C"/>
<rect x="1062" y="610.938" width="506" height="257" fill="#E59C8C"/>
<rect x="1045" y="588.938" width="541" height="31" rx="15.5" fill="#41160C"/>
<rect x="1102" y="802.938" width="130" height="130" rx="65" fill="#1C1B1B"/>
<circle cx="1167" cy="867.938" r="45" fill="#50453C"/>
<rect x="1398" y="802.938" width="130" height="130" rx="65" fill="#1C1B1B"/>
<circle cx="1463" cy="867.938" r="45" fill="#50453C"/>
<rect x="1638" y="610.938" width="506" height="257" fill="#E59C8C"/>
<rect x="1621" y="588.938" width="541" height="31" rx="15.5" fill="#41160C"/>
<rect x="1678" y="802.938" width="130" height="130" rx="65" fill="#1C1B1B"/>
<circle cx="1743" cy="867.938" r="45" fill="#50453C"/>
<rect x="1974" y="802.938" width="130" height="130" rx="65" fill="#1C1B1B"/>
<circle cx="2039" cy="867.938" r="45" fill="#50453C"/>
<rect x="2215" y="610.938" width="506" height="257" fill="#E59C8C"/>
<rect x="2198" y="588.938" width="541" height="31" rx="15.5" fill="#41160C"/>
<rect x="2255" y="802.938" width="130" height="130" rx="65" fill="#1C1B1B"/>
<circle cx="2320" cy="867.938" r="45" fill="#50453C"/>
<rect x="2551" y="802.938" width="130" height="130" rx="65" fill="#1C1B1B"/>
<circle cx="2616" cy="867.938" r="45" fill="#50453C"/>
<rect x="2790" y="610.938" width="506" height="257" fill="#E59C8C"/>
<rect x="2773" y="588.938" width="541" height="31" rx="15.5" fill="#41160C"/>
<rect x="2830" y="802.938" width="130" height="130" rx="65" fill="#1C1B1B"/>
<circle cx="2895" cy="867.938" r="45" fill="#50453C"/>
<rect x="3126" y="802.938" width="130" height="130" rx="65" fill="#1C1B1B"/>
<circle cx="3191" cy="867.938" r="45" fill="#50453C"/>
<path d="M977 852.438C977 843.877 983.94 836.938 992.5 836.938H1061.5C1070.06 836.938 1077 843.877 1077 852.438V852.438C1077 860.998 1070.06 867.938 1061.5 867.938H992.5C983.94 867.938 977 860.998 977 852.438V852.438Z" fill="#E59C8C"/>
<path d="M1553 852.438C1553 843.877 1559.94 836.938 1568.5 836.938H1637.5C1646.06 836.938 1653 843.877 1653 852.438V852.438C1653 860.998 1646.06 867.938 1637.5 867.938H1568.5C1559.94 867.938 1553 860.998 1553 852.438V852.438Z" fill="#E59C8C"/>
<path d="M2129 852.438C2129 843.877 2135.94 836.938 2144.5 836.938H2213.5C2222.06 836.938 2229 843.877 2229 852.438V852.438C2229 860.998 2222.06 867.938 2213.5 867.938H2144.5C2135.94 867.938 2129 860.998 2129 852.438V852.438Z" fill="#E59C8C"/>
<path d="M2705 852.438C2705 843.877 2711.94 836.938 2720.5 836.938H2789.5C2798.06 836.938 2805 843.877 2805 852.438V852.438C2805 860.998 2798.06 867.938 2789.5 867.938H2720.5C2711.94 867.938 2705 860.998 2705 852.438V852.438Z" fill="#E59C8C"/>
<path d="M591 733.002C591.386 732.999 591.765 733.001 592.136 733.007C605.167 732.942 609.528 728.444 607.925 708.186C606.443 699.438 606.539 693.665 607.925 682.242C612.424 674.31 615.635 670.22 625.977 665.322C634.963 663.226 640.152 663.235 649.672 665.322C667.428 670.6 678.467 673.28 703.83 676.602C714.405 678.293 720.334 678.073 730.909 676.602C736.919 673.365 738.716 669.976 739.936 661.938C741.397 670.224 743.484 673.297 748.962 676.602C757.59 678.48 762.99 679.09 777.17 676.602C777.496 677.69 820.392 668.736 829.072 665.322C837.751 661.907 851.638 665.322 851.638 665.322C862.143 667.991 867.345 670.757 873.075 682.242C875.518 693.525 875.205 699.059 873.075 708.186C870.116 728.038 875.189 732.019 890 733.002C874.282 732.468 870.866 736.838 873.075 755.562C874.939 766 875.257 771.561 873.075 780.378C868.562 792.786 866.306 795.042 851.638 799.553C843.067 800.594 838.17 800.783 829.072 799.553C807.318 796.301 795.924 794.087 777.17 789.402C762.554 786.576 755.399 786.285 748.962 789.402C741.849 792.62 740.74 796.292 739.936 802.938C739.121 795.069 737.42 791.786 730.909 789.402C726.095 787.133 711.678 786.331 703.83 789.402C683.42 794.727 671.719 797.238 649.672 799.553C639.871 800.468 634.654 800.517 625.977 799.553C615.352 794.196 609.743 788.273 607.925 780.378C606.106 772.481 605.322 765.789 607.925 755.562C608.554 738.44 605.154 733.207 592.136 733.007C591.764 733.008 591.386 733.007 591 733.002Z" fill="white"/>
<path d="M591 733.002C604.957 732.918 608.572 737.952 607.925 755.562C605.322 765.789 606.106 772.482 607.925 780.378C609.743 788.274 615.352 794.196 625.977 799.554C634.654 800.517 639.871 800.468 649.672 799.554C671.719 797.238 683.42 794.727 703.83 789.402C711.678 786.331 726.095 787.133 730.909 789.402C737.42 791.786 739.121 795.069 739.936 802.938C740.74 796.292 741.849 792.62 748.962 789.402C755.399 786.285 762.554 786.576 777.17 789.402C795.924 794.087 807.318 796.301 829.072 799.554C838.17 800.783 843.067 800.594 851.638 799.554C866.306 795.042 868.562 792.786 873.075 780.378C875.257 771.561 874.939 766 873.075 755.562C870.866 736.838 874.282 732.468 890 733.002C875.189 732.019 870.116 728.038 873.075 708.186C875.205 699.059 875.518 693.525 873.075 682.242C867.345 670.757 862.143 667.991 851.638 665.322C851.638 665.322 837.751 661.907 829.072 665.322C820.392 668.736 777.496 677.69 777.17 676.602C762.99 679.09 757.59 678.48 748.962 676.602C743.484 673.297 741.397 670.224 739.936 661.938C738.716 669.976 736.919 673.365 730.909 676.602C720.334 678.073 714.405 678.293 703.83 676.602C678.467 673.28 667.428 670.6 649.672 665.322C640.152 663.235 634.963 663.226 625.977 665.322C615.635 670.22 612.424 674.31 607.925 682.242C606.539 693.665 606.443 699.438 607.925 708.186C609.573 729.021 604.914 733.185 591 733.002Z" stroke="#232E12" stroke-width="4"/>
<path d="M591 733.002C591.386 732.999 591.765 733.001 592.136 733.007C605.167 732.942 609.528 728.444 607.925 708.186C606.443 699.438 606.539 693.665 607.925 682.242C612.424 674.31 615.635 670.22 625.977 665.322C634.963 663.226 640.152 663.235 649.672 665.322C667.428 670.6 678.467 673.28 703.83 676.602C714.405 678.293 720.334 678.073 730.909 676.602C736.919 673.365 738.716 669.976 739.936 661.938C741.397 670.224 743.484 673.297 748.962 676.602C757.59 678.48 762.99 679.09 777.17 676.602C777.496 677.69 820.392 668.736 829.072 665.322C837.751 661.907 851.638 665.322 851.638 665.322C862.143 667.991 867.345 670.757 873.075 682.242C875.518 693.525 875.205 699.059 873.075 708.186C870.116 728.038 875.189 732.019 890 733.002C874.282 732.468 870.866 736.838 873.075 755.562C874.939 766 875.257 771.561 873.075 780.378C868.562 792.786 866.306 795.042 851.638 799.553C843.067 800.594 838.17 800.783 829.072 799.553C807.318 796.301 795.924 794.087 777.17 789.402C762.554 786.576 755.399 786.285 748.962 789.402C741.849 792.62 740.74 796.292 739.936 802.938C739.121 795.069 737.42 791.786 730.909 789.402C726.095 787.133 711.678 786.331 703.83 789.402C683.42 794.727 671.719 797.238 649.672 799.553C639.871 800.468 634.654 800.517 625.977 799.553C615.352 794.196 609.743 788.273 607.925 780.378C606.106 772.481 605.322 765.789 607.925 755.562C608.554 738.44 605.154 733.207 592.136 733.007C591.764 733.008 591.386 733.007 591 733.002Z" fill="#F1DFD3"/>
<path d="M591 733.002C604.957 732.918 608.572 737.952 607.925 755.562C605.322 765.789 606.106 772.482 607.925 780.378C609.743 788.274 615.352 794.196 625.977 799.554C634.654 800.517 639.871 800.468 649.672 799.554C671.719 797.238 683.42 794.727 703.83 789.402C711.678 786.331 726.095 787.133 730.909 789.402C737.42 791.786 739.121 795.069 739.936 802.938C740.74 796.292 741.849 792.62 748.962 789.402C755.399 786.285 762.554 786.576 777.17 789.402C795.924 794.087 807.318 796.301 829.072 799.554C838.17 800.783 843.067 800.594 851.638 799.554C866.306 795.042 868.562 792.786 873.075 780.378C875.257 771.561 874.939 766 873.075 755.562C870.866 736.838 874.282 732.468 890 733.002C875.189 732.019 870.116 728.038 873.075 708.186C875.205 699.059 875.518 693.525 873.075 682.242C867.345 670.757 862.143 667.991 851.638 665.322C851.638 665.322 837.751 661.907 829.072 665.322C820.392 668.736 777.496 677.69 777.17 676.602C762.99 679.09 757.59 678.48 748.962 676.602C743.484 673.297 741.397 670.224 739.936 661.938C738.716 669.976 736.919 673.365 730.909 676.602C720.334 678.073 714.405 678.293 703.83 676.602C678.467 673.28 667.428 670.6 649.672 665.322C640.152 663.235 634.963 663.226 625.977 665.322C615.635 670.22 612.424 674.31 607.925 682.242C606.539 693.665 606.443 699.438 607.925 708.186C609.573 729.021 604.914 733.185 591 733.002Z" stroke="#232E12" stroke-width="4"/>
<path d="M1167 733.002C1167.39 732.999 1167.77 733.001 1168.14 733.007C1181.17 732.942 1185.53 728.444 1183.92 708.186C1182.44 699.438 1182.54 693.665 1183.92 682.242C1188.42 674.31 1191.63 670.22 1201.98 665.322C1210.96 663.226 1216.15 663.235 1225.67 665.322C1243.43 670.6 1254.47 673.28 1279.83 676.602C1290.41 678.293 1296.33 678.073 1306.91 676.602C1312.92 673.365 1314.72 669.976 1315.94 661.938C1317.4 670.224 1319.48 673.297 1324.96 676.602C1333.59 678.48 1338.99 679.09 1353.17 676.602C1353.5 677.69 1396.39 668.736 1405.07 665.322C1413.75 661.907 1427.64 665.322 1427.64 665.322C1438.14 667.991 1443.35 670.757 1449.08 682.242C1451.52 693.525 1451.21 699.059 1449.08 708.186C1446.12 728.038 1451.19 732.019 1466 733.002C1450.28 732.468 1446.87 736.838 1449.08 755.562C1450.94 766 1451.26 771.561 1449.08 780.378C1444.56 792.786 1442.31 795.042 1427.64 799.553C1419.07 800.594 1414.17 800.783 1405.07 799.553C1383.32 796.301 1371.92 794.087 1353.17 789.402C1338.55 786.576 1331.4 786.285 1324.96 789.402C1317.85 792.62 1316.74 796.292 1315.94 802.938C1315.12 795.069 1313.42 791.786 1306.91 789.402C1302.09 787.133 1287.68 786.331 1279.83 789.402C1259.42 794.727 1247.72 797.238 1225.67 799.553C1215.87 800.468 1210.65 800.517 1201.98 799.553C1191.35 794.196 1185.74 788.273 1183.92 780.378C1182.11 772.481 1181.32 765.789 1183.92 755.562C1184.55 738.44 1181.15 733.207 1168.14 733.007C1167.76 733.008 1167.39 733.007 1167 733.002Z" fill="#F1DFD3"/>
<path d="M1167 733.002C1180.96 732.918 1184.57 737.952 1183.92 755.562C1181.32 765.789 1182.11 772.482 1183.92 780.378C1185.74 788.274 1191.35 794.196 1201.98 799.554C1210.65 800.517 1215.87 800.468 1225.67 799.554C1247.72 797.238 1259.42 794.727 1279.83 789.402C1287.68 786.331 1302.09 787.133 1306.91 789.402C1313.42 791.786 1315.12 795.069 1315.94 802.938C1316.74 796.292 1317.85 792.62 1324.96 789.402C1331.4 786.285 1338.55 786.576 1353.17 789.402C1371.92 794.087 1383.32 796.301 1405.07 799.554C1414.17 800.783 1419.07 800.594 1427.64 799.554C1442.31 795.042 1444.56 792.786 1449.08 780.378C1451.26 771.561 1450.94 766 1449.08 755.562C1446.87 736.838 1450.28 732.468 1466 733.002C1451.19 732.019 1446.12 728.038 1449.08 708.186C1451.21 699.059 1451.52 693.525 1449.08 682.242C1443.35 670.757 1438.14 667.991 1427.64 665.322C1427.64 665.322 1413.75 661.907 1405.07 665.322C1396.39 668.736 1353.5 677.69 1353.17 676.602C1338.99 679.09 1333.59 678.48 1324.96 676.602C1319.48 673.297 1317.4 670.224 1315.94 661.938C1314.72 669.976 1312.92 673.365 1306.91 676.602C1296.33 678.073 1290.41 678.293 1279.83 676.602C1254.47 673.28 1243.43 670.6 1225.67 665.322C1216.15 663.235 1210.96 663.226 1201.98 665.322C1191.63 670.22 1188.42 674.31 1183.92 682.242C1182.54 693.665 1182.44 699.438 1183.92 708.186C1185.57 729.021 1180.91 733.185 1167 733.002Z" stroke="#232E12" stroke-width="4"/>
<path d="M1743 733.002C1743.39 732.999 1743.77 733.001 1744.14 733.007C1757.17 732.942 1761.53 728.444 1759.92 708.186C1758.44 699.438 1758.54 693.665 1759.92 682.242C1764.42 674.31 1767.63 670.22 1777.98 665.322C1786.96 663.226 1792.15 663.235 1801.67 665.322C1819.43 670.6 1830.47 673.28 1855.83 676.602C1866.41 678.293 1872.33 678.073 1882.91 676.602C1888.92 673.365 1890.72 669.976 1891.94 661.938C1893.4 670.224 1895.48 673.297 1900.96 676.602C1909.59 678.48 1914.99 679.09 1929.17 676.602C1929.5 677.69 1972.39 668.736 1981.07 665.322C1989.75 661.907 2003.64 665.322 2003.64 665.322C2014.14 667.991 2019.35 670.757 2025.08 682.242C2027.52 693.525 2027.21 699.059 2025.08 708.186C2022.12 728.038 2027.19 732.019 2042 733.002C2026.28 732.468 2022.87 736.838 2025.08 755.562C2026.94 766 2027.26 771.561 2025.08 780.378C2020.56 792.786 2018.31 795.042 2003.64 799.553C1995.07 800.594 1990.17 800.783 1981.07 799.553C1959.32 796.301 1947.92 794.087 1929.17 789.402C1914.55 786.576 1907.4 786.285 1900.96 789.402C1893.85 792.62 1892.74 796.292 1891.94 802.938C1891.12 795.069 1889.42 791.786 1882.91 789.402C1878.09 787.133 1863.68 786.331 1855.83 789.402C1835.42 794.727 1823.72 797.238 1801.67 799.553C1791.87 800.468 1786.65 800.517 1777.98 799.553C1767.35 794.196 1761.74 788.273 1759.92 780.378C1758.11 772.481 1757.32 765.789 1759.92 755.562C1760.55 738.44 1757.15 733.207 1744.14 733.007C1743.76 733.008 1743.39 733.007 1743 733.002Z" fill="#F1DFD3"/>
<path d="M1743 733.002C1756.96 732.918 1760.57 737.952 1759.92 755.562C1757.32 765.789 1758.11 772.482 1759.92 780.378C1761.74 788.274 1767.35 794.196 1777.98 799.554C1786.65 800.517 1791.87 800.468 1801.67 799.554C1823.72 797.238 1835.42 794.727 1855.83 789.402C1863.68 786.331 1878.09 787.133 1882.91 789.402C1889.42 791.786 1891.12 795.069 1891.94 802.938C1892.74 796.292 1893.85 792.62 1900.96 789.402C1907.4 786.285 1914.55 786.576 1929.17 789.402C1947.92 794.087 1959.32 796.301 1981.07 799.554C1990.17 800.783 1995.07 800.594 2003.64 799.554C2018.31 795.042 2020.56 792.786 2025.08 780.378C2027.26 771.561 2026.94 766 2025.08 755.562C2022.87 736.838 2026.28 732.468 2042 733.002C2027.19 732.019 2022.12 728.038 2025.08 708.186C2027.21 699.059 2027.52 693.525 2025.08 682.242C2019.35 670.757 2014.14 667.991 2003.64 665.322C2003.64 665.322 1989.75 661.907 1981.07 665.322C1972.39 668.736 1929.5 677.69 1929.17 676.602C1914.99 679.09 1909.59 678.48 1900.96 676.602C1895.48 673.297 1893.4 670.224 1891.94 661.938C1890.72 669.976 1888.92 673.365 1882.91 676.602C1872.33 678.073 1866.41 678.293 1855.83 676.602C1830.47 673.28 1819.43 670.6 1801.67 665.322C1792.15 663.235 1786.96 663.226 1777.98 665.322C1767.63 670.22 1764.42 674.31 1759.92 682.242C1758.54 693.665 1758.44 699.438 1759.92 708.186C1761.57 729.021 1756.91 733.185 1743 733.002Z" stroke="#232E12" stroke-width="4"/>
<path d="M2320 733.002C2320.39 732.999 2320.77 733.001 2321.14 733.007C2334.17 732.942 2338.53 728.444 2336.92 708.186C2335.44 699.438 2335.54 693.665 2336.92 682.242C2341.42 674.31 2344.63 670.22 2354.98 665.322C2363.96 663.226 2369.15 663.235 2378.67 665.322C2396.43 670.6 2407.47 673.28 2432.83 676.602C2443.41 678.293 2449.33 678.073 2459.91 676.602C2465.92 673.365 2467.72 669.976 2468.94 661.938C2470.4 670.224 2472.48 673.297 2477.96 676.602C2486.59 678.48 2491.99 679.09 2506.17 676.602C2506.5 677.69 2549.39 668.736 2558.07 665.322C2566.75 661.907 2580.64 665.322 2580.64 665.322C2591.14 667.991 2596.35 670.757 2602.08 682.242C2604.52 693.525 2604.21 699.059 2602.08 708.186C2599.12 728.038 2604.19 732.019 2619 733.002C2603.28 732.468 2599.87 736.838 2602.08 755.562C2603.94 766 2604.26 771.561 2602.08 780.378C2597.56 792.786 2595.31 795.042 2580.64 799.553C2572.07 800.594 2567.17 800.783 2558.07 799.553C2536.32 796.301 2524.92 794.087 2506.17 789.402C2491.55 786.576 2484.4 786.285 2477.96 789.402C2470.85 792.62 2469.74 796.292 2468.94 802.938C2468.12 795.069 2466.42 791.786 2459.91 789.402C2455.09 787.133 2440.68 786.331 2432.83 789.402C2412.42 794.727 2400.72 797.238 2378.67 799.553C2368.87 800.468 2363.65 800.517 2354.98 799.553C2344.35 794.196 2338.74 788.273 2336.92 780.378C2335.11 772.482 2334.32 765.789 2336.92 755.562C2337.55 738.44 2334.15 733.207 2321.14 733.007C2320.76 733.008 2320.39 733.007 2320 733.002Z" fill="#F1DFD3"/>
<path d="M2320 733.002C2333.96 732.918 2337.57 737.952 2336.92 755.562C2334.32 765.789 2335.11 772.482 2336.92 780.378C2338.74 788.274 2344.35 794.196 2354.98 799.553C2363.65 800.517 2368.87 800.468 2378.67 799.553C2400.72 797.238 2412.42 794.727 2432.83 789.402C2440.68 786.331 2455.09 787.133 2459.91 789.402C2466.42 791.786 2468.12 795.069 2468.94 802.938C2469.74 796.292 2470.85 792.62 2477.96 789.402C2484.4 786.285 2491.55 786.576 2506.17 789.402C2524.92 794.087 2536.32 796.301 2558.07 799.553C2567.17 800.783 2572.07 800.594 2580.64 799.553C2595.31 795.041 2597.56 792.786 2602.08 780.378C2604.26 771.561 2603.94 766 2602.08 755.562C2599.87 736.838 2603.28 732.468 2619 733.002C2604.19 732.019 2599.12 728.038 2602.08 708.186C2604.21 699.059 2604.52 693.525 2602.08 682.242C2596.35 670.757 2591.14 667.991 2580.64 665.322C2580.64 665.322 2566.75 661.907 2558.07 665.322C2549.39 668.736 2506.5 677.69 2506.17 676.602C2491.99 679.09 2486.59 678.48 2477.96 676.602C2472.48 673.297 2470.4 670.224 2468.94 661.938C2467.72 669.976 2465.92 673.365 2459.91 676.602C2449.33 678.073 2443.41 678.293 2432.83 676.602C2407.47 673.28 2396.43 670.6 2378.67 665.322C2369.15 663.235 2363.96 663.226 2354.98 665.322C2344.63 670.22 2341.42 674.31 2336.92 682.242C2335.54 693.665 2335.44 699.438 2336.92 708.186C2338.57 729.021 2333.91 733.185 2320 733.002Z" stroke="#232E12" stroke-width="4"/>
<path d="M2895 733.002C2895.39 732.999 2895.77 733.001 2896.14 733.007C2909.17 732.942 2913.53 728.444 2911.92 708.186C2910.44 699.438 2910.54 693.665 2911.92 682.242C2916.42 674.31 2919.63 670.22 2929.98 665.322C2938.96 663.226 2944.15 663.235 2953.67 665.322C2971.43 670.6 2982.47 673.28 3007.83 676.602C3018.41 678.293 3024.33 678.073 3034.91 676.602C3040.92 673.365 3042.72 669.976 3043.94 661.938C3045.4 670.224 3047.48 673.297 3052.96 676.602C3061.59 678.48 3066.99 679.09 3081.17 676.602C3081.5 677.69 3124.39 668.736 3133.07 665.322C3141.75 661.907 3155.64 665.322 3155.64 665.322C3166.14 667.991 3171.35 670.757 3177.08 682.242C3179.52 693.525 3179.21 699.059 3177.08 708.186C3174.12 728.038 3179.19 732.019 3194 733.002C3178.28 732.468 3174.87 736.838 3177.08 755.562C3178.94 766 3179.26 771.561 3177.08 780.378C3172.56 792.786 3170.31 795.042 3155.64 799.553C3147.07 800.594 3142.17 800.783 3133.07 799.553C3111.32 796.301 3099.92 794.087 3081.17 789.402C3066.55 786.576 3059.4 786.285 3052.96 789.402C3045.85 792.62 3044.74 796.292 3043.94 802.938C3043.12 795.069 3041.42 791.786 3034.91 789.402C3030.09 787.133 3015.68 786.331 3007.83 789.402C2987.42 794.727 2975.72 797.238 2953.67 799.553C2943.87 800.468 2938.65 800.517 2929.98 799.553C2919.35 794.196 2913.74 788.273 2911.92 780.378C2910.11 772.481 2909.32 765.789 2911.92 755.562C2912.55 738.44 2909.15 733.207 2896.14 733.007C2895.76 733.008 2895.39 733.007 2895 733.002Z" fill="#F1DFD3"/>
<path d="M2895 733.002C2908.96 732.918 2912.57 737.952 2911.92 755.562C2909.32 765.789 2910.11 772.482 2911.92 780.378C2913.74 788.274 2919.35 794.196 2929.98 799.554C2938.65 800.517 2943.87 800.468 2953.67 799.554C2975.72 797.238 2987.42 794.727 3007.83 789.402C3015.68 786.331 3030.09 787.133 3034.91 789.402C3041.42 791.786 3043.12 795.069 3043.94 802.938C3044.74 796.292 3045.85 792.62 3052.96 789.402C3059.4 786.285 3066.55 786.576 3081.17 789.402C3099.92 794.087 3111.32 796.301 3133.07 799.554C3142.17 800.783 3147.07 800.594 3155.64 799.554C3170.31 795.042 3172.56 792.786 3177.08 780.378C3179.26 771.561 3178.94 766 3177.08 755.562C3174.87 736.838 3178.28 732.468 3194 733.002C3179.19 732.019 3174.12 728.038 3177.08 708.186C3179.21 699.059 3179.52 693.525 3177.08 682.242C3171.35 670.757 3166.14 667.991 3155.64 665.322C3155.64 665.322 3141.75 661.907 3133.07 665.322C3124.39 668.736 3081.5 677.69 3081.17 676.602C3066.99 679.09 3061.59 678.48 3052.96 676.602C3047.48 673.297 3045.4 670.224 3043.94 661.938C3042.72 669.976 3040.92 673.365 3034.91 676.602C3024.33 678.073 3018.41 678.293 3007.83 676.602C2982.47 673.28 2971.43 670.6 2953.67 665.322C2944.15 663.235 2938.96 663.226 2929.98 665.322C2919.63 670.22 2916.42 674.31 2911.92 682.242C2910.54 693.665 2910.44 699.438 2911.92 708.186C2913.57 729.021 2908.91 733.185 2895 733.002Z" stroke="#232E12" stroke-width="4"/>
<path d="M740.991 756.96C737.082 756.945 733.719 755.983 730.901 754.074C728.098 752.165 725.938 749.4 724.423 745.778C722.923 742.157 722.181 737.801 722.196 732.71C722.196 727.634 722.946 723.309 724.446 719.733C725.961 716.157 728.12 713.437 730.923 711.574C733.741 709.695 737.098 708.756 740.991 708.756C744.885 708.756 748.234 709.695 751.037 711.574C753.855 713.453 756.022 716.18 757.537 719.756C759.052 723.316 759.802 727.634 759.787 732.71C759.787 737.816 759.029 742.18 757.514 745.801C756.014 749.422 753.863 752.187 751.06 754.097C748.257 756.006 744.901 756.96 740.991 756.96ZM740.991 748.801C743.658 748.801 745.787 747.46 747.378 744.778C748.969 742.097 749.757 738.074 749.741 732.71C749.741 729.18 749.378 726.241 748.651 723.892C747.938 721.544 746.923 719.778 745.605 718.597C744.302 717.415 742.764 716.824 740.991 716.824C738.34 716.824 736.219 718.15 734.628 720.801C733.037 723.453 732.234 727.422 732.219 732.71C732.219 736.286 732.575 739.271 733.287 741.665C734.014 744.044 735.037 745.831 736.355 747.028C737.673 748.21 739.219 748.801 740.991 748.801Z" fill="#231A13"/>
<path d="M1325.37 709.392V755.938H1315.53V718.733H1315.25L1304.59 725.415V716.688L1316.12 709.392H1325.37Z" fill="#231A13"/>
<path d="M1876.62 755.938V748.847L1893.18 733.506C1894.59 732.142 1895.78 730.915 1896.73 729.824C1897.7 728.733 1898.43 727.665 1898.93 726.619C1899.43 725.559 1899.68 724.415 1899.68 723.188C1899.68 721.824 1899.37 720.65 1898.75 719.665C1898.13 718.665 1897.28 717.9 1896.21 717.369C1895.13 716.824 1893.91 716.551 1892.55 716.551C1891.12 716.551 1889.88 716.839 1888.82 717.415C1887.76 717.991 1886.94 718.816 1886.37 719.892C1885.79 720.968 1885.5 722.248 1885.5 723.733H1876.16C1876.16 720.687 1876.85 718.044 1878.23 715.801C1879.61 713.559 1881.54 711.824 1884.03 710.597C1886.51 709.369 1889.37 708.756 1892.62 708.756C1895.95 708.756 1898.85 709.347 1901.32 710.528C1903.81 711.695 1905.74 713.316 1907.12 715.392C1908.5 717.468 1909.18 719.847 1909.18 722.528C1909.18 724.286 1908.84 726.021 1908.14 727.733C1907.46 729.445 1906.24 731.347 1904.48 733.438C1902.72 735.513 1900.25 738.006 1897.05 740.915L1890.25 747.574V747.892H1909.8V755.938H1876.62Z" fill="#231A13"/>
<path d="M3026.38 747.756V740.006L3045.81 709.392H3052.49V720.119H3048.54L3036.29 739.506V739.869H3063.9V747.756H3026.38ZM3048.72 755.938V745.392L3048.9 741.96V709.392H3058.13V755.938H3048.72Z" fill="#231A13"/>
<path d="M2466.88 756.574C2463.49 756.574 2460.47 755.991 2457.82 754.824C2455.18 753.642 2453.1 752.021 2451.57 749.96C2450.05 747.884 2449.27 745.491 2449.22 742.778H2459.13C2459.19 743.915 2459.57 744.915 2460.25 745.778C2460.94 746.627 2461.87 747.286 2463.02 747.756C2464.17 748.225 2465.47 748.46 2466.91 748.46C2468.41 748.46 2469.73 748.195 2470.88 747.665C2472.04 747.134 2472.94 746.4 2473.59 745.46C2474.24 744.521 2474.57 743.437 2474.57 742.21C2474.57 740.968 2474.22 739.869 2473.52 738.915C2472.84 737.945 2471.85 737.187 2470.57 736.642C2469.29 736.097 2467.78 735.824 2466.02 735.824H2461.68V728.597H2466.02C2467.5 728.597 2468.82 728.339 2469.95 727.824C2471.1 727.309 2472 726.597 2472.63 725.688C2473.27 724.763 2473.59 723.688 2473.59 722.46C2473.59 721.294 2473.31 720.271 2472.75 719.392C2472.2 718.498 2471.43 717.801 2470.43 717.301C2469.44 716.801 2468.29 716.551 2466.97 716.551C2465.64 716.551 2464.42 716.794 2463.32 717.278C2462.21 717.748 2461.32 718.422 2460.66 719.301C2459.99 720.18 2459.63 721.21 2459.59 722.392H2450.16C2450.2 719.71 2450.97 717.347 2452.45 715.301C2453.94 713.256 2455.94 711.657 2458.45 710.506C2460.98 709.339 2463.84 708.756 2467.02 708.756C2470.23 708.756 2473.04 709.339 2475.45 710.506C2477.86 711.672 2479.73 713.248 2481.07 715.233C2482.41 717.203 2483.08 719.415 2483.07 721.869C2483.08 724.475 2482.27 726.65 2480.63 728.392C2479.01 730.134 2476.9 731.241 2474.29 731.71V732.074C2477.72 732.513 2480.32 733.703 2482.11 735.642C2483.91 737.566 2484.81 739.975 2484.79 742.869C2484.81 745.521 2484.04 747.877 2482.5 749.938C2480.97 751.998 2478.85 753.619 2476.16 754.801C2473.46 755.983 2470.37 756.574 2466.88 756.574Z" fill="#231A13"/>
<path d="M3096.98 360.893C3090.93 361.437 3085.59 356.972 3085.04 350.921L3076.19 252.317C3075.65 246.266 3080.12 240.921 3086.17 240.378C3092.22 239.835 3097.56 244.3 3098.11 250.351L3105.97 337.998L3193.62 330.132C3199.67 329.589 3205.02 334.053 3205.56 340.104C3206.1 346.155 3201.64 351.5 3195.59 352.044L3096.98 360.893ZM3521.55 355.566C3462.49 256.418 3401.04 207.492 3335.37 205.974C3269.12 204.443 3193.1 250.854 3104.44 356.989L3087.56 342.886C3177.01 235.789 3258.92 182.202 3335.87 183.98C3413.39 185.772 3480.38 243.462 3540.45 344.309L3521.55 355.566Z" fill="#201A19"/>
<path d="M2407.98 378.893C2401.93 379.437 2396.59 374.972 2396.04 368.921L2387.19 270.317C2386.65 264.266 2391.12 258.921 2397.17 258.378C2403.22 257.835 2408.56 262.3 2409.11 268.351L2416.97 355.998L2504.62 348.132C2510.67 347.589 2516.02 352.053 2516.56 358.104C2517.1 364.155 2512.64 369.5 2506.59 370.044L2407.98 378.893ZM2832.55 373.566C2773.49 274.418 2712.04 225.492 2646.37 223.974C2580.12 222.443 2504.1 268.854 2415.44 374.989L2398.56 360.886C2488.01 253.789 2569.92 200.202 2646.87 201.98C2724.39 203.772 2791.38 261.462 2851.45 362.309L2832.55 373.566Z" fill="#201A19"/>
</svg>
