<svg width="4000" height="1200" viewBox="0 0 4000 1200" fill="none" xmlns="http://www.w3.org/2000/svg">
<path d="M3342.83 519.917V672.583H3304.67V596.25H3266.5V672.583H3228.33V596.25H3190.17V672.583H3152V596.25H3113.83V672.583H3075.67V558.083L3062.94 545.355L2999.33 596.25V615.333C2999.33 622.013 2999.33 634.417 3037.5 634.417V672.583C2971.09 672.583 2961.17 636.707 2961.17 615.333V472.208C2961.17 454.494 2968.2 437.505 2980.73 424.98C2993.26 412.454 3010.24 405.417 3027.96 405.417H3228.33C3258.7 405.417 3287.82 417.48 3309.3 438.953C3330.77 460.426 3342.83 489.549 3342.83 519.917Z" fill="#BDBDBD"/>
<path opacity="0.3" d="M3113.83 672.583H3075.67V558.083L3113.83 596.25V672.583ZM3266.5 596.25H3228.33V672.583H3266.5V596.25Z" fill="black"/>
<path d="M2599.74 703.312L2626.12 657.598L2599.74 611.899L2660.19 583.395V655.859L2632.79 703.312H2599.74Z" fill="#EA7A2F"/>
<path opacity="0.3" d="M2599.74 703.312L2626.12 657.598L2599.74 611.899L2660.19 583.395V655.859L2632.79 703.312H2599.74Z" fill="white"/>
<path d="M2787.08 663.696C2786.14 662.068 2784.88 660.641 2783.39 659.497C2781.9 658.353 2780.2 657.515 2778.38 657.03C2776.57 656.545 2774.67 656.422 2772.81 656.67C2770.95 656.917 2769.15 657.529 2767.52 658.471C2765.35 659.722 2762.88 660.378 2760.37 660.374C2757.86 660.371 2755.39 659.707 2753.22 658.45C2751.04 657.194 2749.24 655.388 2747.98 653.214C2746.73 651.039 2746.07 648.573 2746.06 646.062V574.5C2746.06 536.3 2715.95 505.084 2678.23 503.124L2678.12 503.023H2676.26C2675.67 503.009 2675.1 502.938 2674.5 502.938C2674.2 502.938 2673.92 503.009 2673.63 503.023L2538.82 502.938L2439.66 445.688L2419.56 552.724L2446.4 568.224C2460.32 576.26 2474.76 597.65 2464.48 615.462L2413.75 703.312H2456.18L2505.77 617.438L2519.54 641.289L2483.73 703.312H2522.34L2571.92 617.438H2660.19L2683.37 657.598L2656.99 703.312H2690.04L2717.44 655.859V646.062C2717.44 653.601 2719.42 661.006 2723.19 667.534C2726.96 674.062 2732.38 679.483 2738.91 683.252C2745.44 687.02 2752.84 689.004 2760.38 689.003C2767.92 689.002 2775.32 687.017 2781.85 683.246C2785.14 681.346 2787.53 678.219 2788.51 674.553C2789.49 670.886 2788.97 666.981 2787.08 663.696V663.696Z" fill="#EA7A2F"/>
<mask id="mask0_50_2845" style="mask-type:luminance" maskUnits="userSpaceOnUse" x="2413" y="445" width="376" height="259">
<path d="M2787.08 663.696C2786.14 662.068 2784.88 660.641 2783.39 659.497C2781.9 658.353 2780.2 657.515 2778.38 657.03C2776.57 656.545 2774.67 656.422 2772.81 656.67C2770.95 656.917 2769.15 657.529 2767.52 658.471C2765.35 659.722 2762.88 660.378 2760.37 660.374C2757.86 660.371 2755.39 659.707 2753.22 658.45C2751.04 657.194 2749.24 655.388 2747.98 653.214C2746.73 651.039 2746.07 648.573 2746.06 646.062V574.5C2746.06 536.3 2715.95 505.084 2678.23 503.124L2678.12 503.023H2676.26C2675.67 503.009 2675.1 502.938 2674.5 502.938C2674.2 502.938 2673.92 503.009 2673.63 503.023L2538.82 502.938L2439.66 445.688L2419.56 552.724L2446.4 568.224C2460.32 576.26 2474.76 597.65 2464.48 615.462L2413.75 703.312H2456.18L2505.77 617.438L2519.54 641.289L2483.73 703.312H2522.34L2571.92 617.438H2660.19L2683.37 657.598L2656.99 703.312H2690.04L2717.44 655.859V646.062C2717.44 653.601 2719.42 661.006 2723.19 667.534C2726.96 674.062 2732.38 679.483 2738.91 683.252C2745.44 687.02 2752.84 689.004 2760.38 689.003C2767.92 689.002 2775.32 687.017 2781.85 683.246C2785.14 681.346 2787.53 678.219 2788.51 674.553C2789.49 670.886 2788.97 666.981 2787.08 663.696V663.696Z" fill="white"/>
</mask>
<g mask="url(#mask0_50_2845)">
<path opacity="0.3" d="M2746.06 548.995L2729.74 577.277L2717.44 598.588V689H2789V631.75L2746.06 548.995Z" fill="#231F20"/>
<path opacity="0.6" d="M2574.31 703.312L2607.37 617.438H2574.31L2524.73 703.312H2574.31Z" fill="white"/>
<g opacity="0.6">
<path d="M2760.38 638.777L2725.73 698.797H2717.44V655.859L2760.38 581.484V638.777ZM2760.38 631.75H2789V689H2760.38V631.75ZM2552.32 479.544L2489.24 588.798L2505.77 617.437L2577.13 493.856L2552.32 479.544ZM2697.04 462.09L2623.89 588.798L2640.42 617.437L2649.62 601.508L2660.19 583.209L2721.85 476.402L2697.04 462.09ZM2753.1 479.544L2690.02 588.798L2706.55 617.437L2777.9 493.856L2753.1 479.544ZM2618.03 480.288L2555.38 588.798L2571.92 617.437L2642.84 494.6L2618.03 480.288ZM2489.73 465.231C2489.73 465.231 2419.52 586.859 2417.37 590.573C2415.5 593.858 2415.01 597.75 2416 601.397C2416.99 605.044 2419.38 608.152 2422.66 610.042C2425.93 611.932 2429.82 612.45 2433.47 611.484C2437.12 610.518 2440.25 608.146 2442.16 604.885L2514.52 479.544L2489.73 465.231Z" fill="#231F20"/>
</g>
</g>
<path d="M2470.98 473.232L2452.06 440.456L2443.75 445.258L2334.02 508.269C2334.02 508.269 2353.56 549.102 2356.01 553.339C2357.9 556.614 2360.42 559.484 2363.42 561.786C2366.41 564.088 2369.84 565.777 2373.49 566.756C2377.14 567.735 2380.95 567.985 2384.7 567.491C2388.45 566.998 2392.06 565.771 2395.33 563.88L2398.61 561.977L2409.35 580.569C2409.35 580.569 2426.28 571.129 2448.13 558.52C2455.23 554.421 2461.45 548.964 2466.44 542.459C2471.44 535.955 2475.1 528.53 2477.22 520.61C2479.34 512.69 2479.88 504.43 2478.81 496.301C2477.74 488.172 2475.08 480.333 2470.98 473.232V473.232Z" fill="#EA7A2F"/>
<mask id="mask1_50_2845" style="mask-type:luminance" maskUnits="userSpaceOnUse" x="2334" y="440" width="146" height="141">
<path d="M2470.98 473.232L2452.06 440.456L2443.75 445.258L2334.02 508.269C2334.02 508.269 2353.56 549.102 2356.01 553.339C2357.9 556.614 2360.42 559.484 2363.42 561.786C2366.41 564.088 2369.84 565.777 2373.49 566.756C2377.14 567.735 2380.95 567.985 2384.7 567.491C2388.45 566.998 2392.06 565.771 2395.33 563.88L2398.61 561.977L2409.35 580.569C2409.35 580.569 2426.28 571.129 2448.13 558.52C2455.23 554.421 2461.45 548.964 2466.44 542.459C2471.44 535.955 2475.1 528.53 2477.22 520.61C2479.34 512.69 2479.88 504.43 2478.81 496.301C2477.74 488.172 2475.08 480.333 2470.98 473.232V473.232Z" fill="white"/>
</mask>
<g mask="url(#mask1_50_2845)">
<path opacity="0.6" d="M2331 517.25C2331 517.25 2344.27 517.422 2353.38 517.422C2366.04 517.422 2375.68 522.195 2380.78 531.019C2387.21 542.154 2398.62 561.977 2398.62 561.977L2436.84 540.243C2441.58 537.521 2445.73 533.889 2449.06 529.554C2452.38 525.22 2454.82 520.269 2456.22 514.989C2457.65 509.719 2458.03 504.217 2457.32 498.802C2456.61 493.387 2454.83 488.167 2452.09 483.444L2433.47 451.191L2449.8 431.153L2498.6 508.992L2485.64 581.714L2331 580.79V517.25Z" fill="white"/>
<path opacity="0.6" d="M2413.16 553.575L2402.43 534.976L2426.6 521.372C2428.83 520.09 2430.78 518.378 2432.35 516.337C2433.91 514.295 2435.05 511.964 2435.71 509.478C2436.38 507.008 2436.56 504.429 2436.23 501.89C2435.9 499.351 2435.07 496.903 2433.79 494.686L2425.59 480.517L2444.18 469.783L2452.44 484.088C2455.13 488.728 2456.88 493.856 2457.57 499.175C2458.27 504.494 2457.91 509.898 2456.5 515.075C2455.12 520.263 2452.73 525.128 2449.47 529.386C2446.2 533.645 2442.12 537.214 2437.46 539.885L2413.16 553.575Z" fill="#231F20"/>
</g>
<path d="M2462.79 459.041L2444.2 469.775L2433.46 451.184C2430.75 446.26 2430.08 440.471 2431.59 435.059C2433.1 429.646 2436.68 425.041 2441.54 422.232C2446.41 419.422 2452.18 418.632 2457.63 420.031C2463.07 421.43 2467.75 424.907 2470.65 429.715C2473.5 434.647 2474.27 440.507 2472.79 446.006C2471.32 451.505 2467.72 456.194 2462.79 459.041Z" fill="#EA7A2F"/>
<path opacity="0.8" d="M2462.79 459.041L2444.2 469.775L2433.46 451.184C2430.75 446.26 2430.08 440.471 2431.59 435.059C2433.1 429.646 2436.68 425.041 2441.54 422.232C2446.41 419.422 2452.18 418.632 2457.63 420.031C2463.07 421.43 2467.75 424.907 2470.65 429.715C2473.5 434.647 2474.27 440.507 2472.79 446.006C2471.32 451.505 2467.72 456.194 2462.79 459.041Z" fill="white"/>
<path d="M1612 547.831V708.2H1566.2V671.881L1543.3 648.981V708.2H1497.5V671.881L1462.94 637.325C1444.6 635.424 1424.91 632.264 1405.9 628.21V708.2H1360.1V685.346C1360.1 682.46 1359.6 646.072 1346.89 611.47C1343.47 610.165 1340.25 608.86 1337.2 607.509V708.2H1291.4V685.346C1291.38 679.735 1289.93 547.9 1199.8 547.9H1176.9L1154 502.1L1199.8 479.2C1199.8 479.2 1222.7 433.4 1245.6 433.4C1246.17 433.4 1247.02 433.4 1247.71 433.4C1252.42 420.095 1265.02 410.5 1279.95 410.5C1294.88 410.5 1307.48 420.095 1312.19 433.4C1361.06 433.4 1429.19 433.4 1497.5 433.4C1560.7 433.4 1611.95 484.627 1612 547.831Z" fill="#6D4C41"/>
<path d="M2246 543.839C2246 575.178 2220.33 600.694 2188.75 600.694C2165.85 600.694 2151.26 591.234 2138.39 582.91C2137.02 582.023 2135.62 581.159 2134.25 580.295L2176.82 637.014L2177.3 637.332V637.628L2177.39 637.741L2177.3 637.832V691.663H2142.95V655.025L2101.32 625.824L2085.7 650.363V691.663H2051.35V623.437H1971.2V691.663H1936.85V623.437H1916.65L1873 691.663H1832.29L1882.99 612.429L1834.49 532.468H1801.6L1788 498.355L1824 471.565L1824.07 471.679C1829.93 467.085 1837.21 464.242 1845.25 464.242V441.5H1879.6V464.242L2005.55 521.097L2104.32 532.468L2104.36 532.673C2129.26 536.38 2144.76 546.295 2157.19 554.323C2168.58 561.692 2176.09 566.581 2188.77 566.581C2201.41 566.581 2211.67 556.37 2211.67 543.839C2211.67 531.308 2201.41 521.097 2188.77 521.097H2177.3V486.984H2188.75C2220.33 486.984 2246 512.501 2246 543.839Z" fill="#424242"/>
<path d="M1027 551.6V824.5H981.2V705.889L958.3 658.444V717.75C958.3 719.695 958.071 721.64 957.613 723.538L933.041 824.5H885.799L911.218 720.099L873.181 634.722H820.9V824.5H775.1V634.722H749.177L731.704 670.899L773.108 767.401L731.269 786.687L681.073 669.689L722.911 583.031C677.111 570.554 646.058 528.636 639.372 469.236L569 444.944V397.5H706.4V444.944C706.4 466.342 710.865 516.111 752.2 516.111L810.16 436.594L810.412 436.547C824.587 413.157 849.525 397.5 878.15 397.5C898.05 397.5 916.027 405.281 930.018 417.711L1013.58 513.834C1021.85 524.129 1027 537.176 1027 551.6Z" fill="#8D6E63"/>
<rect x="603" y="674.5" width="506" height="257" fill="#E59C8C"/>
<rect x="586" y="652.5" width="541" height="31" rx="15.5" fill="#41160C"/>
<rect x="643" y="866.5" width="130" height="130" rx="65" fill="#1C1B1B"/>
<circle cx="708" cy="931.5" r="45" fill="#50453C"/>
<rect x="939" y="866.5" width="130" height="130" rx="65" fill="#1C1B1B"/>
<circle cx="1004" cy="931.5" r="45" fill="#50453C"/>
<rect x="1179" y="674.5" width="506" height="257" fill="#E59C8C"/>
<rect x="1162" y="652.5" width="541" height="31" rx="15.5" fill="#41160C"/>
<rect x="1219" y="866.5" width="130" height="130" rx="65" fill="#1C1B1B"/>
<circle cx="1284" cy="931.5" r="45" fill="#50453C"/>
<rect x="1515" y="866.5" width="130" height="130" rx="65" fill="#1C1B1B"/>
<circle cx="1580" cy="931.5" r="45" fill="#50453C"/>
<rect x="1755" y="674.5" width="506" height="257" fill="#E59C8C"/>
<rect x="1738" y="652.5" width="541" height="31" rx="15.5" fill="#41160C"/>
<rect x="1795" y="866.5" width="130" height="130" rx="65" fill="#1C1B1B"/>
<circle cx="1860" cy="931.5" r="45" fill="#50453C"/>
<rect x="2091" y="866.5" width="130" height="130" rx="65" fill="#1C1B1B"/>
<circle cx="2156" cy="931.5" r="45" fill="#50453C"/>
<rect x="2331" y="674.5" width="506" height="257" fill="#E59C8C"/>
<rect x="2314" y="652.5" width="541" height="31" rx="15.5" fill="#41160C"/>
<rect x="2371" y="866.5" width="130" height="130" rx="65" fill="#1C1B1B"/>
<circle cx="2436" cy="931.5" r="45" fill="#50453C"/>
<rect x="2667" y="866.5" width="130" height="130" rx="65" fill="#1C1B1B"/>
<circle cx="2732" cy="931.5" r="45" fill="#50453C"/>
<rect x="2907" y="674.5" width="506" height="257" fill="#E59C8C"/>
<rect x="2890" y="652.5" width="541" height="31" rx="15.5" fill="#41160C"/>
<rect x="2947" y="866.5" width="130" height="130" rx="65" fill="#1C1B1B"/>
<circle cx="3012" cy="931.5" r="45" fill="#50453C"/>
<rect x="3243" y="866.5" width="130" height="130" rx="65" fill="#1C1B1B"/>
<circle cx="3308" cy="931.5" r="45" fill="#50453C"/>
<path d="M1094 916C1094 907.44 1100.94 900.5 1109.5 900.5H1178.5C1187.06 900.5 1194 907.44 1194 916V916C1194 924.56 1187.06 931.5 1178.5 931.5H1109.5C1100.94 931.5 1094 924.56 1094 916V916Z" fill="#E59C8C"/>
<path d="M1670 916C1670 907.44 1676.94 900.5 1685.5 900.5H1754.5C1763.06 900.5 1770 907.44 1770 916V916C1770 924.56 1763.06 931.5 1754.5 931.5H1685.5C1676.94 931.5 1670 924.56 1670 916V916Z" fill="#E59C8C"/>
<path d="M2246 916C2246 907.44 2252.94 900.5 2261.5 900.5H2330.5C2339.06 900.5 2346 907.44 2346 916V916C2346 924.56 2339.06 931.5 2330.5 931.5H2261.5C2252.94 931.5 2246 924.56 2246 916V916Z" fill="#E59C8C"/>
<path d="M2822 916C2822 907.44 2828.94 900.5 2837.5 900.5H2906.5C2915.06 900.5 2922 907.44 2922 916V916C2922 924.56 2915.06 931.5 2906.5 931.5H2837.5C2828.94 931.5 2822 924.56 2822 916V916Z" fill="#E59C8C"/>
<path d="M708 796.564C708.386 796.562 708.765 796.563 709.136 796.569C722.167 796.504 726.528 792.006 724.925 771.748C723.443 763.001 723.539 757.228 724.925 745.804C729.424 737.872 732.635 733.783 742.977 728.884C751.963 726.788 757.152 726.798 766.672 728.884C784.428 734.162 795.467 736.843 820.83 740.164C831.405 741.856 837.334 741.636 847.909 740.164C853.919 736.927 855.716 733.538 856.936 725.5C858.397 733.787 860.484 736.86 865.962 740.164C874.59 742.042 879.99 742.652 894.17 740.164C894.496 741.253 937.392 732.299 946.072 728.884C954.751 725.469 968.638 728.884 968.638 728.884C979.143 731.554 984.345 734.319 990.075 745.804C992.518 757.088 992.205 762.621 990.075 771.748C987.116 791.6 992.189 795.582 1007 796.564C991.282 796.031 987.866 800.4 990.075 819.124C991.939 829.563 992.257 835.124 990.075 843.94C985.562 856.348 983.306 858.604 968.638 863.116C960.067 864.157 955.17 864.346 946.072 863.116C924.318 859.864 912.924 857.65 894.17 852.964C879.554 850.139 872.399 849.847 865.962 852.964C858.849 856.183 857.74 859.855 856.936 866.5C856.121 858.631 854.42 855.348 847.909 852.964C843.095 850.695 828.678 849.893 820.83 852.964C800.42 858.289 788.719 860.801 766.672 863.116C756.871 864.031 751.654 864.079 742.977 863.116C732.352 857.758 726.743 851.836 724.925 843.94C723.106 836.044 722.322 829.352 724.925 819.124C725.554 802.002 722.154 796.769 709.136 796.569C708.764 796.571 708.386 796.569 708 796.564Z" fill="white"/>
<path d="M708 796.564C721.957 796.481 725.572 801.514 724.925 819.124C722.322 829.352 723.106 836.044 724.925 843.94C726.743 851.836 732.352 857.758 742.977 863.116C751.654 864.079 756.871 864.031 766.672 863.116C788.719 860.801 800.42 858.289 820.83 852.964C828.678 849.893 843.095 850.695 847.909 852.964C854.42 855.348 856.121 858.631 856.936 866.5C857.74 859.855 858.849 856.183 865.962 852.964C872.399 849.847 879.554 850.139 894.17 852.964C912.924 857.65 924.318 859.864 946.072 863.116C955.17 864.346 960.067 864.157 968.638 863.116C983.306 858.604 985.562 856.348 990.075 843.94C992.257 835.124 991.939 829.563 990.075 819.124C987.866 800.4 991.282 796.031 1007 796.564C992.189 795.582 987.116 791.6 990.075 771.748C992.205 762.621 992.518 757.088 990.075 745.804C984.345 734.319 979.143 731.554 968.638 728.884C968.638 728.884 954.751 725.469 946.072 728.884C937.392 732.299 894.496 741.253 894.17 740.164C879.99 742.652 874.59 742.042 865.962 740.164C860.484 736.86 858.397 733.787 856.936 725.5C855.716 733.538 853.919 736.927 847.909 740.164C837.334 741.636 831.405 741.856 820.83 740.164C795.467 736.843 784.428 734.162 766.672 728.884C757.152 726.798 751.963 726.788 742.977 728.884C732.635 733.783 729.424 737.872 724.925 745.804C723.539 757.228 723.443 763.001 724.925 771.748C726.573 792.584 721.914 796.748 708 796.564Z" stroke="#232E12" stroke-width="4"/>
<path d="M708 796.564C708.386 796.562 708.765 796.563 709.136 796.569C722.167 796.504 726.528 792.006 724.925 771.748C723.443 763.001 723.539 757.228 724.925 745.804C729.424 737.872 732.635 733.783 742.977 728.884C751.963 726.788 757.152 726.798 766.672 728.884C784.428 734.162 795.467 736.843 820.83 740.164C831.405 741.856 837.334 741.636 847.909 740.164C853.919 736.927 855.716 733.538 856.936 725.5C858.397 733.787 860.484 736.86 865.962 740.164C874.59 742.042 879.99 742.652 894.17 740.164C894.496 741.253 937.392 732.299 946.072 728.884C954.751 725.469 968.638 728.884 968.638 728.884C979.143 731.554 984.345 734.319 990.075 745.804C992.518 757.088 992.205 762.621 990.075 771.748C987.116 791.6 992.189 795.582 1007 796.564C991.282 796.031 987.866 800.4 990.075 819.124C991.939 829.563 992.257 835.124 990.075 843.94C985.562 856.348 983.306 858.604 968.638 863.116C960.067 864.157 955.17 864.346 946.072 863.116C924.318 859.864 912.924 857.65 894.17 852.964C879.554 850.139 872.399 849.847 865.962 852.964C858.849 856.183 857.74 859.855 856.936 866.5C856.121 858.631 854.42 855.348 847.909 852.964C843.095 850.695 828.678 849.893 820.83 852.964C800.42 858.289 788.719 860.801 766.672 863.116C756.871 864.031 751.654 864.079 742.977 863.116C732.352 857.758 726.743 851.836 724.925 843.94C723.106 836.044 722.322 829.352 724.925 819.124C725.554 802.002 722.154 796.769 709.136 796.569C708.764 796.571 708.386 796.569 708 796.564Z" fill="#F1DFD3"/>
<path d="M708 796.564C721.957 796.481 725.572 801.514 724.925 819.124C722.322 829.352 723.106 836.044 724.925 843.94C726.743 851.836 732.352 857.758 742.977 863.116C751.654 864.079 756.871 864.031 766.672 863.116C788.719 860.801 800.42 858.289 820.83 852.964C828.678 849.893 843.095 850.695 847.909 852.964C854.42 855.348 856.121 858.631 856.936 866.5C857.74 859.855 858.849 856.183 865.962 852.964C872.399 849.847 879.554 850.139 894.17 852.964C912.924 857.65 924.318 859.864 946.072 863.116C955.17 864.346 960.067 864.157 968.638 863.116C983.306 858.604 985.562 856.348 990.075 843.94C992.257 835.124 991.939 829.563 990.075 819.124C987.866 800.4 991.282 796.031 1007 796.564C992.189 795.582 987.116 791.6 990.075 771.748C992.205 762.621 992.518 757.088 990.075 745.804C984.345 734.319 979.143 731.554 968.638 728.884C968.638 728.884 954.751 725.469 946.072 728.884C937.392 732.299 894.496 741.253 894.17 740.164C879.99 742.652 874.59 742.042 865.962 740.164C860.484 736.86 858.397 733.787 856.936 725.5C855.716 733.538 853.919 736.927 847.909 740.164C837.334 741.636 831.405 741.856 820.83 740.164C795.467 736.843 784.428 734.162 766.672 728.884C757.152 726.798 751.963 726.788 742.977 728.884C732.635 733.783 729.424 737.872 724.925 745.804C723.539 757.228 723.443 763.001 724.925 771.748C726.573 792.584 721.914 796.748 708 796.564Z" stroke="#232E12" stroke-width="4"/>
<path d="M1284 796.564C1284.39 796.562 1284.77 796.563 1285.14 796.569C1298.17 796.504 1302.53 792.006 1300.92 771.748C1299.44 763.001 1299.54 757.228 1300.92 745.804C1305.42 737.872 1308.63 733.783 1318.98 728.884C1327.96 726.788 1333.15 726.798 1342.67 728.884C1360.43 734.162 1371.47 736.843 1396.83 740.164C1407.41 741.856 1413.33 741.636 1423.91 740.164C1429.92 736.927 1431.72 733.538 1432.94 725.5C1434.4 733.787 1436.48 736.86 1441.96 740.164C1450.59 742.042 1455.99 742.652 1470.17 740.164C1470.5 741.253 1513.39 732.299 1522.07 728.884C1530.75 725.469 1544.64 728.884 1544.64 728.884C1555.14 731.554 1560.35 734.319 1566.08 745.804C1568.52 757.088 1568.21 762.621 1566.08 771.748C1563.12 791.6 1568.19 795.582 1583 796.564C1567.28 796.031 1563.87 800.4 1566.08 819.124C1567.94 829.563 1568.26 835.124 1566.08 843.94C1561.56 856.348 1559.31 858.604 1544.64 863.116C1536.07 864.157 1531.17 864.346 1522.07 863.116C1500.32 859.864 1488.92 857.65 1470.17 852.964C1455.55 850.139 1448.4 849.847 1441.96 852.964C1434.85 856.183 1433.74 859.855 1432.94 866.5C1432.12 858.631 1430.42 855.348 1423.91 852.964C1419.09 850.695 1404.68 849.893 1396.83 852.964C1376.42 858.289 1364.72 860.801 1342.67 863.116C1332.87 864.031 1327.65 864.079 1318.98 863.116C1308.35 857.758 1302.74 851.836 1300.92 843.94C1299.11 836.044 1298.32 829.352 1300.92 819.124C1301.55 802.002 1298.15 796.769 1285.14 796.569C1284.76 796.571 1284.39 796.569 1284 796.564Z" fill="#F1DFD3"/>
<path d="M1284 796.564C1297.96 796.481 1301.57 801.514 1300.92 819.124C1298.32 829.352 1299.11 836.044 1300.92 843.94C1302.74 851.836 1308.35 857.758 1318.98 863.116C1327.65 864.079 1332.87 864.031 1342.67 863.116C1364.72 860.801 1376.42 858.289 1396.83 852.964C1404.68 849.893 1419.09 850.695 1423.91 852.964C1430.42 855.348 1432.12 858.631 1432.94 866.5C1433.74 859.855 1434.85 856.183 1441.96 852.964C1448.4 849.847 1455.55 850.139 1470.17 852.964C1488.92 857.65 1500.32 859.864 1522.07 863.116C1531.17 864.346 1536.07 864.157 1544.64 863.116C1559.31 858.604 1561.56 856.348 1566.08 843.94C1568.26 835.124 1567.94 829.563 1566.08 819.124C1563.87 800.4 1567.28 796.031 1583 796.564C1568.19 795.582 1563.12 791.6 1566.08 771.748C1568.21 762.621 1568.52 757.088 1566.08 745.804C1560.35 734.319 1555.14 731.554 1544.64 728.884C1544.64 728.884 1530.75 725.469 1522.07 728.884C1513.39 732.299 1470.5 741.253 1470.17 740.164C1455.99 742.652 1450.59 742.042 1441.96 740.164C1436.48 736.86 1434.4 733.787 1432.94 725.5C1431.72 733.538 1429.92 736.927 1423.91 740.164C1413.33 741.636 1407.41 741.856 1396.83 740.164C1371.47 736.843 1360.43 734.162 1342.67 728.884C1333.15 726.798 1327.96 726.788 1318.98 728.884C1308.63 733.783 1305.42 737.872 1300.92 745.804C1299.54 757.228 1299.44 763.001 1300.92 771.748C1302.57 792.584 1297.91 796.748 1284 796.564Z" stroke="#232E12" stroke-width="4"/>
<path d="M1860 796.564C1860.39 796.562 1860.77 796.563 1861.14 796.569C1874.17 796.504 1878.53 792.006 1876.92 771.748C1875.44 763.001 1875.54 757.228 1876.92 745.804C1881.42 737.872 1884.63 733.783 1894.98 728.884C1903.96 726.788 1909.15 726.798 1918.67 728.884C1936.43 734.162 1947.47 736.843 1972.83 740.164C1983.41 741.856 1989.33 741.636 1999.91 740.164C2005.92 736.927 2007.72 733.538 2008.94 725.5C2010.4 733.787 2012.48 736.86 2017.96 740.164C2026.59 742.042 2031.99 742.652 2046.17 740.164C2046.5 741.253 2089.39 732.299 2098.07 728.884C2106.75 725.469 2120.64 728.884 2120.64 728.884C2131.14 731.554 2136.35 734.319 2142.08 745.804C2144.52 757.088 2144.21 762.621 2142.08 771.748C2139.12 791.6 2144.19 795.582 2159 796.564C2143.28 796.031 2139.87 800.4 2142.08 819.124C2143.94 829.563 2144.26 835.124 2142.08 843.94C2137.56 856.348 2135.31 858.604 2120.64 863.116C2112.07 864.157 2107.17 864.346 2098.07 863.116C2076.32 859.864 2064.92 857.65 2046.17 852.964C2031.55 850.139 2024.4 849.847 2017.96 852.964C2010.85 856.183 2009.74 859.855 2008.94 866.5C2008.12 858.631 2006.42 855.348 1999.91 852.964C1995.09 850.695 1980.68 849.893 1972.83 852.964C1952.42 858.289 1940.72 860.801 1918.67 863.116C1908.87 864.031 1903.65 864.079 1894.98 863.116C1884.35 857.758 1878.74 851.836 1876.92 843.94C1875.11 836.044 1874.32 829.352 1876.92 819.124C1877.55 802.002 1874.15 796.769 1861.14 796.569C1860.76 796.571 1860.39 796.569 1860 796.564Z" fill="#F1DFD3"/>
<path d="M1860 796.564C1873.96 796.481 1877.57 801.514 1876.92 819.124C1874.32 829.352 1875.11 836.044 1876.92 843.94C1878.74 851.836 1884.35 857.758 1894.98 863.116C1903.65 864.079 1908.87 864.031 1918.67 863.116C1940.72 860.801 1952.42 858.289 1972.83 852.964C1980.68 849.893 1995.09 850.695 1999.91 852.964C2006.42 855.348 2008.12 858.631 2008.94 866.5C2009.74 859.855 2010.85 856.183 2017.96 852.964C2024.4 849.847 2031.55 850.139 2046.17 852.964C2064.92 857.65 2076.32 859.864 2098.07 863.116C2107.17 864.346 2112.07 864.157 2120.64 863.116C2135.31 858.604 2137.56 856.348 2142.08 843.94C2144.26 835.124 2143.94 829.563 2142.08 819.124C2139.87 800.4 2143.28 796.031 2159 796.564C2144.19 795.582 2139.12 791.6 2142.08 771.748C2144.21 762.621 2144.52 757.088 2142.08 745.804C2136.35 734.319 2131.14 731.554 2120.64 728.884C2120.64 728.884 2106.75 725.469 2098.07 728.884C2089.39 732.299 2046.5 741.253 2046.17 740.164C2031.99 742.652 2026.59 742.042 2017.96 740.164C2012.48 736.86 2010.4 733.787 2008.94 725.5C2007.72 733.538 2005.92 736.927 1999.91 740.164C1989.33 741.636 1983.41 741.856 1972.83 740.164C1947.47 736.843 1936.43 734.162 1918.67 728.884C1909.15 726.798 1903.96 726.788 1894.98 728.884C1884.63 733.783 1881.42 737.872 1876.92 745.804C1875.54 757.228 1875.44 763.001 1876.92 771.748C1878.57 792.584 1873.91 796.748 1860 796.564Z" stroke="#232E12" stroke-width="4"/>
<path d="M2436 796.564C2436.39 796.562 2436.77 796.563 2437.14 796.569C2450.17 796.504 2454.53 792.006 2452.92 771.748C2451.44 763.001 2451.54 757.228 2452.92 745.804C2457.42 737.872 2460.63 733.783 2470.98 728.884C2479.96 726.788 2485.15 726.798 2494.67 728.884C2512.43 734.162 2523.47 736.843 2548.83 740.164C2559.41 741.856 2565.33 741.636 2575.91 740.164C2581.92 736.927 2583.72 733.538 2584.94 725.5C2586.4 733.787 2588.48 736.86 2593.96 740.164C2602.59 742.042 2607.99 742.652 2622.17 740.164C2622.5 741.253 2665.39 732.299 2674.07 728.884C2682.75 725.469 2696.64 728.884 2696.64 728.884C2707.14 731.554 2712.35 734.319 2718.08 745.804C2720.52 757.088 2720.21 762.621 2718.08 771.748C2715.12 791.6 2720.19 795.582 2735 796.564C2719.28 796.031 2715.87 800.4 2718.08 819.124C2719.94 829.563 2720.26 835.124 2718.08 843.94C2713.56 856.348 2711.31 858.604 2696.64 863.116C2688.07 864.157 2683.17 864.346 2674.07 863.116C2652.32 859.864 2640.92 857.65 2622.17 852.964C2607.55 850.139 2600.4 849.847 2593.96 852.964C2586.85 856.183 2585.74 859.855 2584.94 866.5C2584.12 858.631 2582.42 855.348 2575.91 852.964C2571.09 850.695 2556.68 849.893 2548.83 852.964C2528.42 858.289 2516.72 860.801 2494.67 863.116C2484.87 864.031 2479.65 864.079 2470.98 863.116C2460.35 857.758 2454.74 851.836 2452.92 843.94C2451.11 836.044 2450.32 829.352 2452.92 819.124C2453.55 802.002 2450.15 796.769 2437.14 796.569C2436.76 796.571 2436.39 796.569 2436 796.564Z" fill="#F1DFD3"/>
<path d="M2436 796.564C2449.96 796.481 2453.57 801.514 2452.92 819.124C2450.32 829.352 2451.11 836.044 2452.92 843.94C2454.74 851.836 2460.35 857.758 2470.98 863.116C2479.65 864.079 2484.87 864.031 2494.67 863.116C2516.72 860.801 2528.42 858.289 2548.83 852.964C2556.68 849.893 2571.09 850.695 2575.91 852.964C2582.42 855.348 2584.12 858.631 2584.94 866.5C2585.74 859.855 2586.85 856.183 2593.96 852.964C2600.4 849.847 2607.55 850.139 2622.17 852.964C2640.92 857.65 2652.32 859.864 2674.07 863.116C2683.17 864.346 2688.07 864.157 2696.64 863.116C2711.31 858.604 2713.56 856.348 2718.08 843.94C2720.26 835.124 2719.94 829.563 2718.08 819.124C2715.87 800.4 2719.28 796.031 2735 796.564C2720.19 795.582 2715.12 791.6 2718.08 771.748C2720.21 762.621 2720.52 757.088 2718.08 745.804C2712.35 734.319 2707.14 731.554 2696.64 728.884C2696.64 728.884 2682.75 725.469 2674.07 728.884C2665.39 732.299 2622.5 741.253 2622.17 740.164C2607.99 742.652 2602.59 742.042 2593.96 740.164C2588.48 736.86 2586.4 733.787 2584.94 725.5C2583.72 733.538 2581.92 736.927 2575.91 740.164C2565.33 741.636 2559.41 741.856 2548.83 740.164C2523.47 736.843 2512.43 734.162 2494.67 728.884C2485.15 726.798 2479.96 726.788 2470.98 728.884C2460.63 733.783 2457.42 737.872 2452.92 745.804C2451.54 757.228 2451.44 763.001 2452.92 771.748C2454.57 792.584 2449.91 796.748 2436 796.564Z" stroke="#232E12" stroke-width="4"/>
<path d="M3012 796.564C3012.39 796.562 3012.77 796.563 3013.14 796.569C3026.17 796.504 3030.53 792.006 3028.92 771.748C3027.44 763.001 3027.54 757.228 3028.92 745.804C3033.42 737.872 3036.63 733.783 3046.98 728.884C3055.96 726.788 3061.15 726.798 3070.67 728.884C3088.43 734.162 3099.47 736.843 3124.83 740.164C3135.41 741.856 3141.33 741.636 3151.91 740.164C3157.92 736.927 3159.72 733.538 3160.94 725.5C3162.4 733.787 3164.48 736.86 3169.96 740.164C3178.59 742.042 3183.99 742.652 3198.17 740.164C3198.5 741.253 3241.39 732.299 3250.07 728.884C3258.75 725.469 3272.64 728.884 3272.64 728.884C3283.14 731.554 3288.35 734.319 3294.08 745.804C3296.52 757.088 3296.21 762.621 3294.08 771.748C3291.12 791.6 3296.19 795.582 3311 796.564C3295.28 796.031 3291.87 800.4 3294.08 819.124C3295.94 829.563 3296.26 835.124 3294.08 843.94C3289.56 856.348 3287.31 858.604 3272.64 863.116C3264.07 864.157 3259.17 864.346 3250.07 863.116C3228.32 859.864 3216.92 857.65 3198.17 852.964C3183.55 850.139 3176.4 849.847 3169.96 852.964C3162.85 856.183 3161.74 859.855 3160.94 866.5C3160.12 858.631 3158.42 855.348 3151.91 852.964C3147.09 850.695 3132.68 849.893 3124.83 852.964C3104.42 858.289 3092.72 860.801 3070.67 863.116C3060.87 864.031 3055.65 864.079 3046.98 863.116C3036.35 857.758 3030.74 851.836 3028.92 843.94C3027.11 836.044 3026.32 829.352 3028.92 819.124C3029.55 802.002 3026.15 796.769 3013.14 796.569C3012.76 796.571 3012.39 796.569 3012 796.564Z" fill="#F1DFD3"/>
<path d="M3012 796.564C3025.96 796.481 3029.57 801.514 3028.92 819.124C3026.32 829.352 3027.11 836.044 3028.92 843.94C3030.74 851.836 3036.35 857.758 3046.98 863.116C3055.65 864.079 3060.87 864.031 3070.67 863.116C3092.72 860.801 3104.42 858.289 3124.83 852.964C3132.68 849.893 3147.09 850.695 3151.91 852.964C3158.42 855.348 3160.12 858.631 3160.94 866.5C3161.74 859.855 3162.85 856.183 3169.96 852.964C3176.4 849.847 3183.55 850.139 3198.17 852.964C3216.92 857.65 3228.32 859.864 3250.07 863.116C3259.17 864.346 3264.07 864.157 3272.64 863.116C3287.31 858.604 3289.56 856.348 3294.08 843.94C3296.26 835.124 3295.94 829.563 3294.08 819.124C3291.87 800.4 3295.28 796.031 3311 796.564C3296.19 795.582 3291.12 791.6 3294.08 771.748C3296.21 762.621 3296.52 757.088 3294.08 745.804C3288.35 734.319 3283.14 731.554 3272.64 728.884C3272.64 728.884 3258.75 725.469 3250.07 728.884C3241.39 732.299 3198.5 741.253 3198.17 740.164C3183.99 742.652 3178.59 742.042 3169.96 740.164C3164.48 736.86 3162.4 733.787 3160.94 725.5C3159.72 733.538 3157.92 736.927 3151.91 740.164C3141.33 741.636 3135.41 741.856 3124.83 740.164C3099.47 736.843 3088.43 734.162 3070.67 728.884C3061.15 726.798 3055.96 726.788 3046.98 728.884C3036.63 733.783 3033.42 737.872 3028.92 745.804C3027.54 757.228 3027.44 763.001 3028.92 771.748C3030.57 792.584 3025.91 796.748 3012 796.564Z" stroke="#232E12" stroke-width="4"/>
<path d="M857.991 820.523C854.082 820.508 850.719 819.545 847.901 817.636C845.098 815.727 842.938 812.962 841.423 809.341C839.923 805.72 839.181 801.364 839.196 796.273C839.196 791.197 839.946 786.871 841.446 783.295C842.961 779.72 845.12 777 847.923 775.136C850.741 773.258 854.098 772.318 857.991 772.318C861.885 772.318 865.234 773.258 868.037 775.136C870.855 777.015 873.022 779.742 874.537 783.318C876.052 786.879 876.802 791.197 876.787 796.273C876.787 801.379 876.029 805.742 874.514 809.364C873.014 812.985 870.863 815.75 868.06 817.659C865.257 819.568 861.901 820.523 857.991 820.523ZM857.991 812.364C860.658 812.364 862.787 811.023 864.378 808.341C865.969 805.659 866.757 801.636 866.741 796.273C866.741 792.742 866.378 789.803 865.651 787.455C864.938 785.106 863.923 783.341 862.605 782.159C861.302 780.977 859.764 780.386 857.991 780.386C855.34 780.386 853.219 781.712 851.628 784.364C850.037 787.015 849.234 790.985 849.219 796.273C849.219 799.848 849.575 802.833 850.287 805.227C851.014 807.606 852.037 809.394 853.355 810.591C854.673 811.773 856.219 812.364 857.991 812.364Z" fill="#231A13"/>
<path d="M1442.37 772.955V819.5H1432.53V782.295H1432.25L1421.59 788.977V780.25L1433.12 772.955H1442.37Z" fill="#231A13"/>
<path d="M1993.62 819.5V812.409L2010.18 797.068C2011.59 795.705 2012.78 794.477 2013.73 793.386C2014.7 792.295 2015.43 791.227 2015.93 790.182C2016.43 789.121 2016.68 787.977 2016.68 786.75C2016.68 785.386 2016.37 784.212 2015.75 783.227C2015.13 782.227 2014.28 781.462 2013.21 780.932C2012.13 780.386 2010.91 780.114 2009.55 780.114C2008.12 780.114 2006.88 780.402 2005.82 780.977C2004.76 781.553 2003.94 782.379 2003.37 783.455C2002.79 784.53 2002.5 785.811 2002.5 787.295H1993.16C1993.16 784.25 1993.85 781.606 1995.23 779.364C1996.61 777.121 1998.54 775.386 2001.03 774.159C2003.51 772.932 2006.37 772.318 2009.62 772.318C2012.95 772.318 2015.85 772.909 2018.32 774.091C2020.81 775.258 2022.74 776.879 2024.12 778.955C2025.5 781.03 2026.18 783.409 2026.18 786.091C2026.18 787.848 2025.84 789.583 2025.14 791.295C2024.46 793.008 2023.24 794.909 2021.48 797C2019.72 799.076 2017.25 801.568 2014.05 804.477L2007.25 811.136V811.455H2026.8V819.5H1993.62Z" fill="#231A13"/>
<path d="M2585.88 820.136C2582.49 820.136 2579.47 819.553 2576.82 818.386C2574.18 817.205 2572.1 815.583 2570.57 813.523C2569.05 811.447 2568.27 809.053 2568.22 806.341H2578.13C2578.19 807.477 2578.57 808.477 2579.25 809.341C2579.94 810.189 2580.87 810.848 2582.02 811.318C2583.17 811.788 2584.47 812.023 2585.91 812.023C2587.41 812.023 2588.73 811.758 2589.88 811.227C2591.04 810.697 2591.94 809.962 2592.59 809.023C2593.24 808.083 2593.57 807 2593.57 805.773C2593.57 804.53 2593.22 803.432 2592.52 802.477C2591.84 801.508 2590.85 800.75 2589.57 800.205C2588.29 799.659 2586.78 799.386 2585.02 799.386H2580.68V792.159H2585.02C2586.5 792.159 2587.82 791.902 2588.95 791.386C2590.1 790.871 2591 790.159 2591.63 789.25C2592.27 788.326 2592.59 787.25 2592.59 786.023C2592.59 784.856 2592.31 783.833 2591.75 782.955C2591.2 782.061 2590.43 781.364 2589.43 780.864C2588.44 780.364 2587.29 780.114 2585.97 780.114C2584.64 780.114 2583.42 780.356 2582.32 780.841C2581.21 781.311 2580.32 781.985 2579.66 782.864C2578.99 783.742 2578.63 784.773 2578.59 785.955H2569.16C2569.2 783.273 2569.97 780.909 2571.45 778.864C2572.94 776.818 2574.94 775.22 2577.45 774.068C2579.98 772.902 2582.84 772.318 2586.02 772.318C2589.23 772.318 2592.04 772.902 2594.45 774.068C2596.86 775.235 2598.73 776.811 2600.07 778.795C2601.41 780.765 2602.08 782.977 2602.07 785.432C2602.08 788.038 2601.27 790.212 2599.63 791.955C2598.01 793.697 2595.9 794.803 2593.29 795.273V795.636C2596.72 796.076 2599.32 797.265 2601.11 799.205C2602.91 801.129 2603.81 803.538 2603.79 806.432C2603.81 809.083 2603.04 811.439 2601.5 813.5C2599.97 815.561 2597.85 817.182 2595.16 818.364C2592.46 819.545 2589.37 820.136 2585.88 820.136Z" fill="#231A13"/>
<path d="M3143.38 811.318V803.568L3162.81 772.955H3169.49V783.682H3165.54L3153.29 803.068V803.432H3180.9V811.318H3143.38ZM3165.72 819.5V808.955L3165.9 805.523V772.955H3175.13V819.5H3165.72Z" fill="#231A13"/>
<path d="M2556.28 453.896C2560.64 458.126 2567.6 458.021 2571.83 453.66L2640.77 382.604C2645 378.244 2644.89 371.28 2640.53 367.05C2636.17 362.82 2629.21 362.925 2624.98 367.285L2563.7 430.446L2500.54 369.171C2496.18 364.941 2489.22 365.046 2484.99 369.406C2480.76 373.767 2480.86 380.731 2485.22 384.961L2556.28 453.896ZM2549 186.167L2552.94 446.168L2574.94 445.834L2571 185.833L2549 186.167Z" fill="#201A19"/>
</svg>
