<svg width="4000" height="1200" viewBox="0 0 4000 1200" fill="none" xmlns="http://www.w3.org/2000/svg">
<path d="M870.517 421.456C876.567 421.999 881.913 417.534 882.456 411.483L891.306 312.88C891.849 306.829 887.384 301.483 881.333 300.94C875.282 300.397 869.937 304.862 869.394 310.913L861.527 398.561L773.88 390.694C767.829 390.151 762.483 394.616 761.94 400.667C761.397 406.718 765.862 412.063 771.913 412.606L870.517 421.456ZM445.951 416.129C505.005 316.981 566.459 268.055 632.134 266.537C698.376 265.006 774.405 311.416 863.058 417.552L879.942 403.448C790.487 296.352 708.576 242.764 631.625 244.543C554.107 246.334 487.115 304.024 427.049 404.871L445.951 416.129Z" fill="#201A19"/>
<path d="M1442.52 426.456C1448.57 426.999 1453.91 422.534 1454.46 416.483L1463.31 317.88C1463.85 311.829 1459.38 306.483 1453.33 305.94C1447.28 305.397 1441.94 309.862 1441.39 315.913L1433.53 403.561L1345.88 395.694C1339.83 395.151 1334.48 399.616 1333.94 405.667C1333.4 411.718 1337.86 417.063 1343.91 417.606L1442.52 426.456ZM1017.95 421.129C1077.01 321.981 1138.46 273.055 1204.13 271.537C1270.38 270.006 1346.4 316.416 1435.06 422.552L1451.94 408.448C1362.49 301.352 1280.58 247.764 1203.63 249.543C1126.11 251.334 1059.12 309.024 999.049 409.871L1017.95 421.129Z" fill="#201A19"/>
<path d="M2025.52 421.456C2031.57 421.999 2036.91 417.534 2037.46 411.483L2046.31 312.88C2046.85 306.829 2042.38 301.483 2036.33 300.94C2030.28 300.397 2024.94 304.862 2024.39 310.913L2016.53 398.561L1928.88 390.694C1922.83 390.151 1917.48 394.616 1916.94 400.667C1916.4 406.718 1920.86 412.063 1926.91 412.606L2025.52 421.456ZM1600.95 416.129C1660.01 316.981 1721.46 268.055 1787.13 266.537C1853.38 265.006 1929.4 311.416 2018.06 417.552L2034.94 403.448C1945.49 296.352 1863.58 242.764 1786.63 244.543C1709.11 246.334 1642.12 304.024 1582.05 404.871L1600.95 416.129Z" fill="#201A19"/>
<path d="M2608.52 416.456C2614.57 416.999 2619.91 412.534 2620.46 406.483L2629.31 307.88C2629.85 301.829 2625.38 296.483 2619.33 295.94C2613.28 295.397 2607.94 299.862 2607.39 305.913L2599.53 393.561L2511.88 385.694C2505.83 385.151 2500.48 389.616 2499.94 395.667C2499.4 401.718 2503.86 407.063 2509.91 407.606L2608.52 416.456ZM2183.95 411.129C2243.01 311.981 2304.46 263.055 2370.13 261.537C2436.38 260.006 2512.4 306.416 2601.06 412.552L2617.94 398.448C2528.49 291.352 2446.58 237.764 2369.63 239.543C2292.11 241.334 2225.12 299.024 2165.05 399.871L2183.95 411.129Z" fill="#201A19"/>
<path d="M3191.52 411.456C3197.57 411.999 3202.91 407.534 3203.46 401.483L3212.31 302.88C3212.85 296.829 3208.38 291.483 3202.33 290.94C3196.28 290.397 3190.94 294.862 3190.39 300.913L3182.53 388.561L3094.88 380.694C3088.83 380.151 3083.48 384.616 3082.94 390.667C3082.4 396.718 3086.86 402.063 3092.91 402.606L3191.52 411.456ZM2766.95 406.129C2826.01 306.981 2887.46 258.055 2953.13 256.537C3019.38 255.006 3095.4 301.416 3184.06 407.552L3200.94 393.448C3111.49 286.352 3029.58 232.764 2952.63 234.543C2875.11 236.334 2808.12 294.024 2748.05 394.871L2766.95 406.129Z" fill="#201A19"/>
<path d="M3452.33 620.416V773.083H3414.17V696.75H3376V773.083H3337.83V696.75H3299.67V773.083H3261.5V696.75H3223.33V773.083H3185.17V658.583L3172.44 645.855L3108.83 696.75V715.833C3108.83 722.512 3108.83 734.916 3147 734.916V773.083C3080.59 773.083 3070.67 737.206 3070.67 715.833V572.708C3070.67 554.994 3077.7 538.005 3090.23 525.479C3102.76 512.953 3119.74 505.917 3137.46 505.917H3337.83C3368.2 505.917 3397.32 517.98 3418.8 539.453C3440.27 560.926 3452.33 590.049 3452.33 620.416Z" fill="#BDBDBD"/>
<path opacity="0.3" d="M3223.33 773.083H3185.17V658.583L3223.33 696.75V773.083ZM3376 696.75H3337.83V773.083H3376V696.75Z" fill="black"/>
<g clip-path="url(#clip0_50_2846)">
<path d="M2740.24 796.312L2766.62 750.598L2740.24 704.898L2800.69 676.395V748.859L2773.29 796.312H2740.24Z" fill="#EA7A2F"/>
<path opacity="0.3" d="M2740.24 796.312L2766.62 750.598L2740.24 704.898L2800.69 676.395V748.859L2773.29 796.312H2740.24Z" fill="white"/>
<path d="M2927.58 756.696C2926.64 755.068 2925.38 753.641 2923.89 752.497C2922.4 751.353 2920.7 750.515 2918.88 750.03C2917.07 749.545 2915.17 749.422 2913.31 749.67C2911.45 749.917 2909.65 750.529 2908.02 751.471C2905.85 752.722 2903.38 753.378 2900.87 753.374C2898.36 753.371 2895.89 752.707 2893.72 751.45C2891.54 750.194 2889.74 748.388 2888.48 746.214C2887.23 744.039 2886.57 741.573 2886.56 739.062V667.5C2886.56 629.3 2856.45 598.084 2818.73 596.124L2818.62 596.023H2816.76C2816.17 596.009 2815.6 595.938 2815 595.938C2814.7 595.938 2814.42 596.009 2814.13 596.023L2679.32 595.938L2580.16 538.688L2560.06 645.724L2586.9 661.224C2600.82 669.26 2615.26 690.65 2604.98 708.462L2554.25 796.312H2596.68L2646.27 710.438L2660.04 734.289L2624.23 796.312H2662.84L2712.42 710.438H2800.69L2823.87 750.598L2797.49 796.312H2830.54L2857.94 748.859V739.062C2857.94 746.601 2859.92 754.006 2863.69 760.534C2867.46 767.062 2872.88 772.483 2879.41 776.252C2885.94 780.02 2893.34 782.004 2900.88 782.003C2908.42 782.002 2915.82 780.017 2922.35 776.246C2925.64 774.346 2928.03 771.219 2929.01 767.553C2929.99 763.886 2929.47 759.981 2927.58 756.696V756.696Z" fill="#EA7A2F"/>
<mask id="mask0_50_2846" style="mask-type:luminance" maskUnits="userSpaceOnUse" x="2554" y="538" width="376" height="259">
<path d="M2927.58 756.696C2926.64 755.068 2925.38 753.641 2923.89 752.497C2922.4 751.353 2920.7 750.515 2918.88 750.03C2917.07 749.545 2915.17 749.422 2913.31 749.67C2911.45 749.917 2909.65 750.529 2908.02 751.471C2905.85 752.722 2903.38 753.378 2900.87 753.374C2898.36 753.371 2895.89 752.707 2893.72 751.45C2891.54 750.194 2889.74 748.388 2888.48 746.214C2887.23 744.039 2886.57 741.573 2886.56 739.062V667.5C2886.56 629.3 2856.45 598.084 2818.73 596.124L2818.62 596.023H2816.76C2816.17 596.009 2815.6 595.938 2815 595.938C2814.7 595.938 2814.42 596.009 2814.13 596.023L2679.32 595.938L2580.16 538.688L2560.06 645.724L2586.9 661.224C2600.82 669.26 2615.26 690.65 2604.98 708.462L2554.25 796.312H2596.68L2646.27 710.438L2660.04 734.289L2624.23 796.312H2662.84L2712.42 710.438H2800.69L2823.87 750.598L2797.49 796.312H2830.54L2857.94 748.859V739.062C2857.94 746.601 2859.92 754.006 2863.69 760.534C2867.46 767.062 2872.88 772.483 2879.41 776.252C2885.94 780.02 2893.34 782.004 2900.88 782.003C2908.42 782.002 2915.82 780.017 2922.35 776.246C2925.64 774.346 2928.03 771.219 2929.01 767.553C2929.99 763.886 2929.47 759.981 2927.58 756.696V756.696Z" fill="white"/>
</mask>
<g mask="url(#mask0_50_2846)">
<path opacity="0.3" d="M2886.56 641.995L2870.24 670.277L2857.94 691.588V782H2929.5V724.75L2886.56 641.995Z" fill="#231F20"/>
<path opacity="0.6" d="M2714.81 796.312L2747.87 710.438H2714.81L2665.23 796.312H2714.81Z" fill="white"/>
<g opacity="0.6">
<path d="M2900.88 731.778L2866.23 791.797H2857.94V748.86L2900.88 674.485V731.778ZM2900.88 724.75H2929.5V782H2900.88V724.75ZM2692.82 572.544L2629.74 681.798L2646.27 710.438L2717.63 586.856L2692.82 572.544ZM2837.54 555.09L2764.39 681.798L2780.92 710.438L2790.12 694.508L2800.69 676.209L2862.35 569.402L2837.54 555.09ZM2893.6 572.544L2830.52 681.798L2847.05 710.438L2918.4 586.856L2893.6 572.544ZM2758.53 573.288L2695.88 681.798L2712.42 710.438L2783.34 587.601L2758.53 573.288ZM2630.23 558.231C2630.23 558.231 2560.02 679.859 2557.87 683.573C2556 686.859 2555.51 690.75 2556.5 694.397C2557.49 698.045 2559.88 701.152 2563.16 703.042C2566.43 704.932 2570.32 705.45 2573.97 704.484C2577.62 703.518 2580.75 701.146 2582.66 697.886L2655.02 572.544L2630.23 558.231Z" fill="#231F20"/>
</g>
</g>
<path d="M2611.48 566.232L2592.56 533.456L2584.25 538.258L2474.52 601.269C2474.52 601.269 2494.06 642.102 2496.51 646.339C2498.4 649.613 2500.92 652.484 2503.92 654.786C2506.91 657.088 2510.34 658.777 2513.99 659.756C2517.64 660.734 2521.45 660.984 2525.2 660.491C2528.95 659.998 2532.56 658.77 2535.83 656.88L2539.11 654.976L2549.85 673.568C2549.85 673.568 2566.78 664.129 2588.63 651.52C2595.73 647.421 2601.95 641.964 2606.94 635.459C2611.94 628.954 2615.6 621.53 2617.72 613.61C2619.84 605.69 2620.38 597.43 2619.31 589.301C2618.24 581.171 2615.58 573.332 2611.48 566.232V566.232Z" fill="#EA7A2F"/>
<mask id="mask1_50_2846" style="mask-type:luminance" maskUnits="userSpaceOnUse" x="2474" y="533" width="146" height="141">
<path d="M2611.48 566.232L2592.56 533.456L2584.25 538.258L2474.52 601.269C2474.52 601.269 2494.06 642.102 2496.51 646.339C2498.4 649.613 2500.92 652.484 2503.92 654.786C2506.91 657.088 2510.34 658.777 2513.99 659.756C2517.64 660.734 2521.45 660.984 2525.2 660.491C2528.95 659.998 2532.56 658.77 2535.83 656.88L2539.11 654.976L2549.85 673.568C2549.85 673.568 2566.78 664.129 2588.63 651.52C2595.73 647.421 2601.95 641.964 2606.94 635.459C2611.94 628.954 2615.6 621.53 2617.72 613.61C2619.84 605.69 2620.38 597.43 2619.31 589.301C2618.24 581.171 2615.58 573.332 2611.48 566.232V566.232Z" fill="white"/>
</mask>
<g mask="url(#mask1_50_2846)">
<path opacity="0.6" d="M2471.5 610.25C2471.5 610.25 2484.77 610.421 2493.88 610.421C2506.54 610.421 2516.18 615.195 2521.28 624.018C2527.71 635.153 2539.12 654.976 2539.12 654.976L2577.34 633.243C2582.08 630.521 2586.23 626.888 2589.56 622.554C2592.88 618.219 2595.32 613.269 2596.72 607.988C2598.15 602.719 2598.53 597.217 2597.82 591.802C2597.11 586.387 2595.33 581.167 2592.59 576.444L2573.97 544.19L2590.3 524.153L2639.1 601.991L2626.14 674.713L2471.5 673.79V610.25Z" fill="white"/>
<path opacity="0.6" d="M2553.66 646.575L2542.93 627.976L2567.1 614.372C2569.33 613.089 2571.28 611.378 2572.85 609.336C2574.41 607.295 2575.55 604.964 2576.21 602.478C2576.88 600.008 2577.06 597.429 2576.73 594.89C2576.4 592.351 2575.57 589.902 2574.29 587.686L2566.09 573.517L2584.68 562.782L2592.94 577.088C2595.63 581.728 2597.38 586.856 2598.07 592.174C2598.77 597.493 2598.41 602.897 2597 608.074C2595.62 613.263 2593.23 618.127 2589.97 622.386C2586.7 626.645 2582.62 630.213 2577.96 632.885L2553.66 646.575Z" fill="#231F20"/>
</g>
<path d="M2603.29 552.041L2584.7 562.775L2573.96 544.183C2571.25 539.26 2570.58 533.471 2572.09 528.058C2573.6 522.646 2577.18 518.041 2582.04 515.232C2586.91 512.422 2592.68 511.632 2598.13 513.031C2603.57 514.43 2608.25 517.907 2611.15 522.715C2614 527.647 2614.77 533.507 2613.29 539.006C2611.82 544.505 2608.22 549.194 2603.29 552.041Z" fill="#EA7A2F"/>
<path opacity="0.8" d="M2603.29 552.041L2584.7 562.775L2573.96 544.183C2571.25 539.26 2570.58 533.471 2572.09 528.058C2573.6 522.646 2577.18 518.041 2582.04 515.232C2586.91 512.422 2592.68 511.632 2598.13 513.031C2603.57 514.43 2608.25 517.907 2611.15 522.715C2614 527.647 2614.77 533.507 2613.29 539.006C2611.82 544.505 2608.22 549.194 2603.29 552.041Z" fill="white"/>
</g>
<path d="M1744.5 641.831V802.2H1698.7V765.881L1675.8 742.981V802.2H1630V765.881L1595.44 731.325C1577.1 729.424 1557.41 726.264 1538.4 722.21V802.2H1492.6V779.346C1492.6 776.46 1492.1 740.072 1479.39 705.47C1475.97 704.165 1472.75 702.86 1469.7 701.509V802.2H1423.9V779.346C1423.88 773.735 1422.43 641.9 1332.3 641.9H1309.4L1286.5 596.1L1332.3 573.2C1332.3 573.2 1355.2 527.4 1378.1 527.4C1378.67 527.4 1379.52 527.4 1380.21 527.4C1384.92 514.095 1397.52 504.5 1412.45 504.5C1427.38 504.5 1439.98 514.095 1444.69 527.4C1493.56 527.4 1561.69 527.4 1630 527.4C1693.2 527.4 1744.45 578.627 1744.5 641.831Z" fill="#6D4C41"/>
<path d="M2378.5 637.839C2378.5 669.178 2352.83 694.694 2321.25 694.694C2298.35 694.694 2283.76 685.234 2270.89 676.91C2269.52 676.023 2268.12 675.159 2266.75 674.295L2309.32 731.014L2309.8 731.332V731.628L2309.89 731.741L2309.8 731.832V785.663H2275.45V749.025L2233.82 719.824L2218.2 744.363V785.663H2183.85V717.437H2103.7V785.663H2069.35V717.437H2049.15L2005.5 785.663H1964.79L2015.49 706.429L1966.99 626.468H1934.1L1920.5 592.355L1956.5 565.565L1956.57 565.679C1962.43 561.085 1969.71 558.242 1977.75 558.242V535.5H2012.1V558.242L2138.05 615.097L2236.82 626.468L2236.86 626.673C2261.76 630.38 2277.26 640.295 2289.69 648.323C2301.08 655.692 2308.59 660.581 2321.27 660.581C2333.91 660.581 2344.17 650.37 2344.17 637.839C2344.17 625.308 2333.91 615.097 2321.27 615.097H2309.8V580.984H2321.25C2352.83 580.984 2378.5 606.501 2378.5 637.839Z" fill="#424242"/>
<path d="M1159.5 645.6V918.5H1113.7V799.889L1090.8 752.444V811.75C1090.8 813.695 1090.57 815.64 1090.11 817.538L1065.54 918.5H1018.3L1043.72 814.099L1005.68 728.722H953.4V918.5H907.6V728.722H881.677L864.204 764.899L905.608 861.401L863.769 880.687L813.573 763.689L855.411 677.031C809.611 664.554 778.558 622.636 771.872 563.236L701.5 538.944V491.5H838.9V538.944C838.9 560.342 843.365 610.111 884.7 610.111L942.66 530.594L942.912 530.547C957.087 507.157 982.025 491.5 1010.65 491.5C1030.55 491.5 1048.53 499.281 1062.52 511.711L1146.08 607.834C1154.35 618.129 1159.5 631.176 1159.5 645.6Z" fill="#8D6E63"/>
<rect x="735.5" y="768.5" width="506" height="257" fill="#E59C8C"/>
<rect x="718.5" y="746.5" width="541" height="31" rx="15.5" fill="#41160C"/>
<rect x="775.5" y="960.5" width="130" height="130" rx="65" fill="#1C1B1B"/>
<circle cx="840.5" cy="1025.5" r="45" fill="#50453C"/>
<rect x="1071.5" y="960.5" width="130" height="130" rx="65" fill="#1C1B1B"/>
<circle cx="1136.5" cy="1025.5" r="45" fill="#50453C"/>
<rect x="1311.5" y="768.5" width="506" height="257" fill="#E59C8C"/>
<rect x="1294.5" y="746.5" width="541" height="31" rx="15.5" fill="#41160C"/>
<rect x="1351.5" y="960.5" width="130" height="130" rx="65" fill="#1C1B1B"/>
<circle cx="1416.5" cy="1025.5" r="45" fill="#50453C"/>
<rect x="1647.5" y="960.5" width="130" height="130" rx="65" fill="#1C1B1B"/>
<circle cx="1712.5" cy="1025.5" r="45" fill="#50453C"/>
<rect x="1887.5" y="768.5" width="506" height="257" fill="#E59C8C"/>
<rect x="1870.5" y="746.5" width="541" height="31" rx="15.5" fill="#41160C"/>
<rect x="1927.5" y="960.5" width="130" height="130" rx="65" fill="#1C1B1B"/>
<circle cx="1992.5" cy="1025.5" r="45" fill="#50453C"/>
<rect x="2223.5" y="960.5" width="130" height="130" rx="65" fill="#1C1B1B"/>
<circle cx="2288.5" cy="1025.5" r="45" fill="#50453C"/>
<rect x="2463.5" y="768.5" width="506" height="257" fill="#E59C8C"/>
<rect x="2446.5" y="746.5" width="541" height="31" rx="15.5" fill="#41160C"/>
<rect x="2503.5" y="960.5" width="130" height="130" rx="65" fill="#1C1B1B"/>
<circle cx="2568.5" cy="1025.5" r="45" fill="#50453C"/>
<rect x="2799.5" y="960.5" width="130" height="130" rx="65" fill="#1C1B1B"/>
<circle cx="2864.5" cy="1025.5" r="45" fill="#50453C"/>
<rect x="3039.5" y="768.5" width="506" height="257" fill="#E59C8C"/>
<rect x="3022.5" y="746.5" width="541" height="31" rx="15.5" fill="#41160C"/>
<rect x="3079.5" y="960.5" width="130" height="130" rx="65" fill="#1C1B1B"/>
<circle cx="3144.5" cy="1025.5" r="45" fill="#50453C"/>
<rect x="3375.5" y="960.5" width="130" height="130" rx="65" fill="#1C1B1B"/>
<circle cx="3440.5" cy="1025.5" r="45" fill="#50453C"/>
<path d="M1226.5 1010C1226.5 1001.44 1233.44 994.5 1242 994.5H1311C1319.56 994.5 1326.5 1001.44 1326.5 1010V1010C1326.5 1018.56 1319.56 1025.5 1311 1025.5H1242C1233.44 1025.5 1226.5 1018.56 1226.5 1010V1010Z" fill="#E59C8C"/>
<path d="M1802.5 1010C1802.5 1001.44 1809.44 994.5 1818 994.5H1887C1895.56 994.5 1902.5 1001.44 1902.5 1010V1010C1902.5 1018.56 1895.56 1025.5 1887 1025.5H1818C1809.44 1025.5 1802.5 1018.56 1802.5 1010V1010Z" fill="#E59C8C"/>
<path d="M2378.5 1010C2378.5 1001.44 2385.44 994.5 2394 994.5H2463C2471.56 994.5 2478.5 1001.44 2478.5 1010V1010C2478.5 1018.56 2471.56 1025.5 2463 1025.5H2394C2385.44 1025.5 2378.5 1018.56 2378.5 1010V1010Z" fill="#E59C8C"/>
<path d="M2954.5 1010C2954.5 1001.44 2961.44 994.5 2970 994.5H3039C3047.56 994.5 3054.5 1001.44 3054.5 1010V1010C3054.5 1018.56 3047.56 1025.5 3039 1025.5H2970C2961.44 1025.5 2954.5 1018.56 2954.5 1010V1010Z" fill="#E59C8C"/>
<path d="M840.5 890.564C840.886 890.562 841.265 890.563 841.636 890.569C854.667 890.504 859.028 886.006 857.425 865.748C855.943 857.001 856.039 851.228 857.425 839.804C861.924 831.872 865.135 827.783 875.477 822.884C884.463 820.788 889.652 820.798 899.172 822.884C916.928 828.162 927.967 830.843 953.33 834.164C963.905 835.856 969.834 835.636 980.409 834.164C986.419 830.927 988.216 827.538 989.436 819.5C990.897 827.787 992.984 830.86 998.462 834.164C1007.09 836.042 1012.49 836.652 1026.67 834.164C1027 835.253 1069.89 826.299 1078.57 822.884C1087.25 819.469 1101.14 822.884 1101.14 822.884C1111.64 825.554 1116.85 828.319 1122.58 839.804C1125.02 851.088 1124.71 856.621 1122.58 865.748C1119.62 885.6 1124.69 889.582 1139.5 890.564C1123.78 890.031 1120.37 894.4 1122.58 913.124C1124.44 923.563 1124.76 929.124 1122.58 937.94C1118.06 950.348 1115.81 952.604 1101.14 957.116C1092.57 958.157 1087.67 958.346 1078.57 957.116C1056.82 953.864 1045.42 951.65 1026.67 946.964C1012.05 944.139 1004.9 943.847 998.462 946.964C991.349 950.183 990.24 953.855 989.436 960.5C988.621 952.631 986.92 949.348 980.409 946.964C975.595 944.695 961.178 943.893 953.33 946.964C932.92 952.289 921.219 954.801 899.172 957.116C889.371 958.031 884.154 958.079 875.477 957.116C864.852 951.758 859.243 945.836 857.425 937.94C855.606 930.044 854.822 923.352 857.425 913.124C858.054 896.002 854.654 890.769 841.636 890.569C841.264 890.571 840.886 890.569 840.5 890.564Z" fill="white"/>
<path d="M840.5 890.564C854.457 890.481 858.072 895.514 857.425 913.124C854.822 923.352 855.606 930.044 857.425 937.94C859.243 945.836 864.852 951.758 875.477 957.116C884.154 958.079 889.371 958.031 899.172 957.116C921.219 954.801 932.92 952.289 953.33 946.964C961.178 943.893 975.595 944.695 980.409 946.964C986.92 949.348 988.621 952.631 989.436 960.5C990.24 953.855 991.349 950.183 998.462 946.964C1004.9 943.847 1012.05 944.139 1026.67 946.964C1045.42 951.65 1056.82 953.864 1078.57 957.116C1087.67 958.346 1092.57 958.157 1101.14 957.116C1115.81 952.604 1118.06 950.348 1122.58 937.94C1124.76 929.124 1124.44 923.563 1122.58 913.124C1120.37 894.4 1123.78 890.031 1139.5 890.564C1124.69 889.582 1119.62 885.6 1122.58 865.748C1124.71 856.621 1125.02 851.088 1122.58 839.804C1116.85 828.319 1111.64 825.554 1101.14 822.884C1101.14 822.884 1087.25 819.469 1078.57 822.884C1069.89 826.299 1027 835.253 1026.67 834.164C1012.49 836.652 1007.09 836.042 998.462 834.164C992.984 830.86 990.897 827.787 989.436 819.5C988.216 827.538 986.419 830.927 980.409 834.164C969.834 835.636 963.905 835.856 953.33 834.164C927.967 830.843 916.928 828.162 899.172 822.884C889.652 820.798 884.463 820.788 875.477 822.884C865.135 827.783 861.924 831.872 857.425 839.804C856.039 851.228 855.943 857.001 857.425 865.748C859.073 886.584 854.414 890.748 840.5 890.564Z" stroke="#232E12" stroke-width="4"/>
<path d="M840.5 890.564C840.886 890.562 841.265 890.563 841.636 890.569C854.667 890.504 859.028 886.006 857.425 865.748C855.943 857.001 856.039 851.228 857.425 839.804C861.924 831.872 865.135 827.783 875.477 822.884C884.463 820.788 889.652 820.798 899.172 822.884C916.928 828.162 927.967 830.843 953.33 834.164C963.905 835.856 969.834 835.636 980.409 834.164C986.419 830.927 988.216 827.538 989.436 819.5C990.897 827.787 992.984 830.86 998.462 834.164C1007.09 836.042 1012.49 836.652 1026.67 834.164C1027 835.253 1069.89 826.299 1078.57 822.884C1087.25 819.469 1101.14 822.884 1101.14 822.884C1111.64 825.554 1116.85 828.319 1122.58 839.804C1125.02 851.088 1124.71 856.621 1122.58 865.748C1119.62 885.6 1124.69 889.582 1139.5 890.564C1123.78 890.031 1120.37 894.4 1122.58 913.124C1124.44 923.563 1124.76 929.124 1122.58 937.94C1118.06 950.348 1115.81 952.604 1101.14 957.116C1092.57 958.157 1087.67 958.346 1078.57 957.116C1056.82 953.864 1045.42 951.65 1026.67 946.964C1012.05 944.139 1004.9 943.847 998.462 946.964C991.349 950.183 990.24 953.855 989.436 960.5C988.621 952.631 986.92 949.348 980.409 946.964C975.595 944.695 961.178 943.893 953.33 946.964C932.92 952.289 921.219 954.801 899.172 957.116C889.371 958.031 884.154 958.079 875.477 957.116C864.852 951.758 859.243 945.836 857.425 937.94C855.606 930.044 854.822 923.352 857.425 913.124C858.054 896.002 854.654 890.769 841.636 890.569C841.264 890.571 840.886 890.569 840.5 890.564Z" fill="#F1DFD3"/>
<path d="M840.5 890.564C854.457 890.481 858.072 895.514 857.425 913.124C854.822 923.352 855.606 930.044 857.425 937.94C859.243 945.836 864.852 951.758 875.477 957.116C884.154 958.079 889.371 958.031 899.172 957.116C921.219 954.801 932.92 952.289 953.33 946.964C961.178 943.893 975.595 944.695 980.409 946.964C986.92 949.348 988.621 952.631 989.436 960.5C990.24 953.855 991.349 950.183 998.462 946.964C1004.9 943.847 1012.05 944.139 1026.67 946.964C1045.42 951.65 1056.82 953.864 1078.57 957.116C1087.67 958.346 1092.57 958.157 1101.14 957.116C1115.81 952.604 1118.06 950.348 1122.58 937.94C1124.76 929.124 1124.44 923.563 1122.58 913.124C1120.37 894.4 1123.78 890.031 1139.5 890.564C1124.69 889.582 1119.62 885.6 1122.58 865.748C1124.71 856.621 1125.02 851.088 1122.58 839.804C1116.85 828.319 1111.64 825.554 1101.14 822.884C1101.14 822.884 1087.25 819.469 1078.57 822.884C1069.89 826.299 1027 835.253 1026.67 834.164C1012.49 836.652 1007.09 836.042 998.462 834.164C992.984 830.86 990.897 827.787 989.436 819.5C988.216 827.538 986.419 830.927 980.409 834.164C969.834 835.636 963.905 835.856 953.33 834.164C927.967 830.843 916.928 828.162 899.172 822.884C889.652 820.798 884.463 820.788 875.477 822.884C865.135 827.783 861.924 831.872 857.425 839.804C856.039 851.228 855.943 857.001 857.425 865.748C859.073 886.584 854.414 890.748 840.5 890.564Z" stroke="#232E12" stroke-width="4"/>
<path d="M1416.5 890.564C1416.89 890.562 1417.27 890.563 1417.64 890.569C1430.67 890.504 1435.03 886.006 1433.42 865.748C1431.94 857.001 1432.04 851.228 1433.42 839.804C1437.92 831.872 1441.13 827.783 1451.48 822.884C1460.46 820.788 1465.65 820.798 1475.17 822.884C1492.93 828.162 1503.97 830.843 1529.33 834.164C1539.91 835.856 1545.83 835.636 1556.41 834.164C1562.42 830.927 1564.22 827.538 1565.44 819.5C1566.9 827.787 1568.98 830.86 1574.46 834.164C1583.09 836.042 1588.49 836.652 1602.67 834.164C1603 835.253 1645.89 826.299 1654.57 822.884C1663.25 819.469 1677.14 822.884 1677.14 822.884C1687.64 825.554 1692.85 828.319 1698.58 839.804C1701.02 851.088 1700.71 856.621 1698.58 865.748C1695.62 885.6 1700.69 889.582 1715.5 890.564C1699.78 890.031 1696.37 894.4 1698.58 913.124C1700.44 923.563 1700.76 929.124 1698.58 937.94C1694.06 950.348 1691.81 952.604 1677.14 957.116C1668.57 958.157 1663.67 958.346 1654.57 957.116C1632.82 953.864 1621.42 951.65 1602.67 946.964C1588.05 944.139 1580.9 943.847 1574.46 946.964C1567.35 950.183 1566.24 953.855 1565.44 960.5C1564.62 952.631 1562.92 949.348 1556.41 946.964C1551.59 944.695 1537.18 943.893 1529.33 946.964C1508.92 952.289 1497.22 954.801 1475.17 957.116C1465.37 958.031 1460.15 958.079 1451.48 957.116C1440.85 951.758 1435.24 945.836 1433.42 937.94C1431.61 930.044 1430.82 923.352 1433.42 913.124C1434.05 896.002 1430.65 890.769 1417.64 890.569C1417.26 890.571 1416.89 890.569 1416.5 890.564Z" fill="#F1DFD3"/>
<path d="M1416.5 890.564C1430.46 890.481 1434.07 895.514 1433.42 913.124C1430.82 923.352 1431.61 930.044 1433.42 937.94C1435.24 945.836 1440.85 951.758 1451.48 957.116C1460.15 958.079 1465.37 958.031 1475.17 957.116C1497.22 954.801 1508.92 952.289 1529.33 946.964C1537.18 943.893 1551.59 944.695 1556.41 946.964C1562.92 949.348 1564.62 952.631 1565.44 960.5C1566.24 953.855 1567.35 950.183 1574.46 946.964C1580.9 943.847 1588.05 944.139 1602.67 946.964C1621.42 951.65 1632.82 953.864 1654.57 957.116C1663.67 958.346 1668.57 958.157 1677.14 957.116C1691.81 952.604 1694.06 950.348 1698.58 937.94C1700.76 929.124 1700.44 923.563 1698.58 913.124C1696.37 894.4 1699.78 890.031 1715.5 890.564C1700.69 889.582 1695.62 885.6 1698.58 865.748C1700.71 856.621 1701.02 851.088 1698.58 839.804C1692.85 828.319 1687.64 825.554 1677.14 822.884C1677.14 822.884 1663.25 819.469 1654.57 822.884C1645.89 826.299 1603 835.253 1602.67 834.164C1588.49 836.652 1583.09 836.042 1574.46 834.164C1568.98 830.86 1566.9 827.787 1565.44 819.5C1564.22 827.538 1562.42 830.927 1556.41 834.164C1545.83 835.636 1539.91 835.856 1529.33 834.164C1503.97 830.843 1492.93 828.162 1475.17 822.884C1465.65 820.798 1460.46 820.788 1451.48 822.884C1441.13 827.783 1437.92 831.872 1433.42 839.804C1432.04 851.228 1431.94 857.001 1433.42 865.748C1435.07 886.584 1430.41 890.748 1416.5 890.564Z" stroke="#232E12" stroke-width="4"/>
<path d="M1992.5 890.564C1992.89 890.562 1993.27 890.563 1993.64 890.569C2006.67 890.504 2011.03 886.006 2009.42 865.748C2007.94 857.001 2008.04 851.228 2009.42 839.804C2013.92 831.872 2017.13 827.783 2027.48 822.884C2036.46 820.788 2041.65 820.798 2051.17 822.884C2068.93 828.162 2079.97 830.843 2105.33 834.164C2115.91 835.856 2121.83 835.636 2132.41 834.164C2138.42 830.927 2140.22 827.538 2141.44 819.5C2142.9 827.787 2144.98 830.86 2150.46 834.164C2159.09 836.042 2164.49 836.652 2178.67 834.164C2179 835.253 2221.89 826.299 2230.57 822.884C2239.25 819.469 2253.14 822.884 2253.14 822.884C2263.64 825.554 2268.85 828.319 2274.58 839.804C2277.02 851.088 2276.71 856.621 2274.58 865.748C2271.62 885.6 2276.69 889.582 2291.5 890.564C2275.78 890.031 2272.37 894.4 2274.58 913.124C2276.44 923.563 2276.76 929.124 2274.58 937.94C2270.06 950.348 2267.81 952.604 2253.14 957.116C2244.57 958.157 2239.67 958.346 2230.57 957.116C2208.82 953.864 2197.42 951.65 2178.67 946.964C2164.05 944.139 2156.9 943.847 2150.46 946.964C2143.35 950.183 2142.24 953.855 2141.44 960.5C2140.62 952.631 2138.92 949.348 2132.41 946.964C2127.59 944.695 2113.18 943.893 2105.33 946.964C2084.92 952.289 2073.22 954.801 2051.17 957.116C2041.37 958.031 2036.15 958.079 2027.48 957.116C2016.85 951.758 2011.24 945.836 2009.42 937.94C2007.61 930.044 2006.82 923.352 2009.42 913.124C2010.05 896.002 2006.65 890.769 1993.64 890.569C1993.26 890.571 1992.89 890.569 1992.5 890.564Z" fill="#F1DFD3"/>
<path d="M1992.5 890.564C2006.46 890.481 2010.07 895.514 2009.42 913.124C2006.82 923.352 2007.61 930.044 2009.42 937.94C2011.24 945.836 2016.85 951.758 2027.48 957.116C2036.15 958.079 2041.37 958.031 2051.17 957.116C2073.22 954.801 2084.92 952.289 2105.33 946.964C2113.18 943.893 2127.59 944.695 2132.41 946.964C2138.92 949.348 2140.62 952.631 2141.44 960.5C2142.24 953.855 2143.35 950.183 2150.46 946.964C2156.9 943.847 2164.05 944.139 2178.67 946.964C2197.42 951.65 2208.82 953.864 2230.57 957.116C2239.67 958.346 2244.57 958.157 2253.14 957.116C2267.81 952.604 2270.06 950.348 2274.58 937.94C2276.76 929.124 2276.44 923.563 2274.58 913.124C2272.37 894.4 2275.78 890.031 2291.5 890.564C2276.69 889.582 2271.62 885.6 2274.58 865.748C2276.71 856.621 2277.02 851.088 2274.58 839.804C2268.85 828.319 2263.64 825.554 2253.14 822.884C2253.14 822.884 2239.25 819.469 2230.57 822.884C2221.89 826.299 2179 835.253 2178.67 834.164C2164.49 836.652 2159.09 836.042 2150.46 834.164C2144.98 830.86 2142.9 827.787 2141.44 819.5C2140.22 827.538 2138.42 830.927 2132.41 834.164C2121.83 835.636 2115.91 835.856 2105.33 834.164C2079.97 830.843 2068.93 828.162 2051.17 822.884C2041.65 820.798 2036.46 820.788 2027.48 822.884C2017.13 827.783 2013.92 831.872 2009.42 839.804C2008.04 851.228 2007.94 857.001 2009.42 865.748C2011.07 886.584 2006.41 890.748 1992.5 890.564Z" stroke="#232E12" stroke-width="4"/>
<path d="M2568.5 890.564C2568.89 890.562 2569.27 890.563 2569.64 890.569C2582.67 890.504 2587.03 886.006 2585.42 865.748C2583.94 857.001 2584.04 851.228 2585.42 839.804C2589.92 831.872 2593.13 827.783 2603.48 822.884C2612.46 820.788 2617.65 820.798 2627.17 822.884C2644.93 828.162 2655.97 830.843 2681.33 834.164C2691.91 835.856 2697.83 835.636 2708.41 834.164C2714.42 830.927 2716.22 827.538 2717.44 819.5C2718.9 827.787 2720.98 830.86 2726.46 834.164C2735.09 836.042 2740.49 836.652 2754.67 834.164C2755 835.253 2797.89 826.299 2806.57 822.884C2815.25 819.469 2829.14 822.884 2829.14 822.884C2839.64 825.554 2844.85 828.319 2850.58 839.804C2853.02 851.088 2852.71 856.621 2850.58 865.748C2847.62 885.6 2852.69 889.582 2867.5 890.564C2851.78 890.031 2848.37 894.4 2850.58 913.124C2852.44 923.563 2852.76 929.124 2850.58 937.94C2846.06 950.348 2843.81 952.604 2829.14 957.116C2820.57 958.157 2815.67 958.346 2806.57 957.116C2784.82 953.864 2773.42 951.65 2754.67 946.964C2740.05 944.139 2732.9 943.847 2726.46 946.964C2719.35 950.183 2718.24 953.855 2717.44 960.5C2716.62 952.631 2714.92 949.348 2708.41 946.964C2703.59 944.695 2689.18 943.893 2681.33 946.964C2660.92 952.289 2649.22 954.801 2627.17 957.116C2617.37 958.031 2612.15 958.079 2603.48 957.116C2592.85 951.758 2587.24 945.836 2585.42 937.94C2583.61 930.044 2582.82 923.352 2585.42 913.124C2586.05 896.002 2582.65 890.769 2569.64 890.569C2569.26 890.571 2568.89 890.569 2568.5 890.564Z" fill="#F1DFD3"/>
<path d="M2568.5 890.564C2582.46 890.481 2586.07 895.514 2585.42 913.124C2582.82 923.352 2583.61 930.044 2585.42 937.94C2587.24 945.836 2592.85 951.758 2603.48 957.116C2612.15 958.079 2617.37 958.031 2627.17 957.116C2649.22 954.801 2660.92 952.289 2681.33 946.964C2689.18 943.893 2703.59 944.695 2708.41 946.964C2714.92 949.348 2716.62 952.631 2717.44 960.5C2718.24 953.855 2719.35 950.183 2726.46 946.964C2732.9 943.847 2740.05 944.139 2754.67 946.964C2773.42 951.65 2784.82 953.864 2806.57 957.116C2815.67 958.346 2820.57 958.157 2829.14 957.116C2843.81 952.604 2846.06 950.348 2850.58 937.94C2852.76 929.124 2852.44 923.563 2850.58 913.124C2848.37 894.4 2851.78 890.031 2867.5 890.564C2852.69 889.582 2847.62 885.6 2850.58 865.748C2852.71 856.621 2853.02 851.088 2850.58 839.804C2844.85 828.319 2839.64 825.554 2829.14 822.884C2829.14 822.884 2815.25 819.469 2806.57 822.884C2797.89 826.299 2755 835.253 2754.67 834.164C2740.49 836.652 2735.09 836.042 2726.46 834.164C2720.98 830.86 2718.9 827.787 2717.44 819.5C2716.22 827.538 2714.42 830.927 2708.41 834.164C2697.83 835.636 2691.91 835.856 2681.33 834.164C2655.97 830.843 2644.93 828.162 2627.17 822.884C2617.65 820.798 2612.46 820.788 2603.48 822.884C2593.13 827.783 2589.92 831.872 2585.42 839.804C2584.04 851.228 2583.94 857.001 2585.42 865.748C2587.07 886.584 2582.41 890.748 2568.5 890.564Z" stroke="#232E12" stroke-width="4"/>
<path d="M3144.5 890.564C3144.89 890.562 3145.27 890.563 3145.64 890.569C3158.67 890.504 3163.03 886.006 3161.42 865.748C3159.94 857.001 3160.04 851.228 3161.42 839.804C3165.92 831.872 3169.13 827.783 3179.48 822.884C3188.46 820.788 3193.65 820.798 3203.17 822.884C3220.93 828.162 3231.97 830.843 3257.33 834.164C3267.91 835.856 3273.83 835.636 3284.41 834.164C3290.42 830.927 3292.22 827.538 3293.44 819.5C3294.9 827.787 3296.98 830.86 3302.46 834.164C3311.09 836.042 3316.49 836.652 3330.67 834.164C3331 835.253 3373.89 826.299 3382.57 822.884C3391.25 819.469 3405.14 822.884 3405.14 822.884C3415.64 825.554 3420.85 828.319 3426.58 839.804C3429.02 851.088 3428.71 856.621 3426.58 865.748C3423.62 885.6 3428.69 889.582 3443.5 890.564C3427.78 890.031 3424.37 894.4 3426.58 913.124C3428.44 923.563 3428.76 929.124 3426.58 937.94C3422.06 950.348 3419.81 952.604 3405.14 957.116C3396.57 958.157 3391.67 958.346 3382.57 957.116C3360.82 953.864 3349.42 951.65 3330.67 946.964C3316.05 944.139 3308.9 943.847 3302.46 946.964C3295.35 950.183 3294.24 953.855 3293.44 960.5C3292.62 952.631 3290.92 949.348 3284.41 946.964C3279.59 944.695 3265.18 943.893 3257.33 946.964C3236.92 952.289 3225.22 954.801 3203.17 957.116C3193.37 958.031 3188.15 958.079 3179.48 957.116C3168.85 951.758 3163.24 945.836 3161.42 937.94C3159.61 930.044 3158.82 923.352 3161.42 913.124C3162.05 896.002 3158.65 890.769 3145.64 890.569C3145.26 890.571 3144.89 890.569 3144.5 890.564Z" fill="#F1DFD3"/>
<path d="M3144.5 890.564C3158.46 890.481 3162.07 895.514 3161.42 913.124C3158.82 923.352 3159.61 930.044 3161.42 937.94C3163.24 945.836 3168.85 951.758 3179.48 957.116C3188.15 958.079 3193.37 958.031 3203.17 957.116C3225.22 954.801 3236.92 952.289 3257.33 946.964C3265.18 943.893 3279.59 944.695 3284.41 946.964C3290.92 949.348 3292.62 952.631 3293.44 960.5C3294.24 953.855 3295.35 950.183 3302.46 946.964C3308.9 943.847 3316.05 944.139 3330.67 946.964C3349.42 951.65 3360.82 953.864 3382.57 957.116C3391.67 958.346 3396.57 958.157 3405.14 957.116C3419.81 952.604 3422.06 950.348 3426.58 937.94C3428.76 929.124 3428.44 923.563 3426.58 913.124C3424.37 894.4 3427.78 890.031 3443.5 890.564C3428.69 889.582 3423.62 885.6 3426.58 865.748C3428.71 856.621 3429.02 851.088 3426.58 839.804C3420.85 828.319 3415.64 825.554 3405.14 822.884C3405.14 822.884 3391.25 819.469 3382.57 822.884C3373.89 826.299 3331 835.253 3330.67 834.164C3316.49 836.652 3311.09 836.042 3302.46 834.164C3296.98 830.86 3294.9 827.787 3293.44 819.5C3292.22 827.538 3290.42 830.927 3284.41 834.164C3273.83 835.636 3267.91 835.856 3257.33 834.164C3231.97 830.843 3220.93 828.162 3203.17 822.884C3193.65 820.798 3188.46 820.788 3179.48 822.884C3169.13 827.783 3165.92 831.872 3161.42 839.804C3160.04 851.228 3159.94 857.001 3161.42 865.748C3163.07 886.584 3158.41 890.748 3144.5 890.564Z" stroke="#232E12" stroke-width="4"/>
<path d="M990.491 914.523C986.582 914.508 983.219 913.545 980.401 911.636C977.598 909.727 975.438 906.962 973.923 903.341C972.423 899.72 971.681 895.364 971.696 890.273C971.696 885.197 972.446 880.871 973.946 877.295C975.461 873.72 977.62 871 980.423 869.136C983.241 867.258 986.598 866.318 990.491 866.318C994.385 866.318 997.734 867.258 1000.54 869.136C1003.36 871.015 1005.52 873.742 1007.04 877.318C1008.55 880.879 1009.3 885.197 1009.29 890.273C1009.29 895.379 1008.53 899.742 1007.01 903.364C1005.51 906.985 1003.36 909.75 1000.56 911.659C997.757 913.568 994.401 914.523 990.491 914.523ZM990.491 906.364C993.158 906.364 995.287 905.023 996.878 902.341C998.469 899.659 999.257 895.636 999.241 890.273C999.241 886.742 998.878 883.803 998.151 881.455C997.438 879.106 996.423 877.341 995.105 876.159C993.802 874.977 992.264 874.386 990.491 874.386C987.84 874.386 985.719 875.712 984.128 878.364C982.537 881.015 981.734 884.985 981.719 890.273C981.719 893.848 982.075 896.833 982.787 899.227C983.514 901.606 984.537 903.394 985.855 904.591C987.173 905.773 988.719 906.364 990.491 906.364Z" fill="#231A13"/>
<path d="M1574.87 866.955V913.5H1565.03V876.295H1564.75L1554.09 882.977V874.25L1565.62 866.955H1574.87Z" fill="#231A13"/>
<path d="M2126.12 913.5V906.409L2142.68 891.068C2144.09 889.705 2145.28 888.477 2146.23 887.386C2147.2 886.295 2147.93 885.227 2148.43 884.182C2148.93 883.121 2149.18 881.977 2149.18 880.75C2149.18 879.386 2148.87 878.212 2148.25 877.227C2147.63 876.227 2146.78 875.462 2145.71 874.932C2144.63 874.386 2143.41 874.114 2142.05 874.114C2140.62 874.114 2139.38 874.402 2138.32 874.977C2137.26 875.553 2136.44 876.379 2135.87 877.455C2135.29 878.53 2135 879.811 2135 881.295H2125.66C2125.66 878.25 2126.35 875.606 2127.73 873.364C2129.11 871.121 2131.04 869.386 2133.53 868.159C2136.01 866.932 2138.87 866.318 2142.12 866.318C2145.45 866.318 2148.35 866.909 2150.82 868.091C2153.31 869.258 2155.24 870.879 2156.62 872.955C2158 875.03 2158.68 877.409 2158.68 880.091C2158.68 881.848 2158.34 883.583 2157.64 885.295C2156.96 887.008 2155.74 888.909 2153.98 891C2152.22 893.076 2149.75 895.568 2146.55 898.477L2139.75 905.136V905.455H2159.3V913.5H2126.12Z" fill="#231A13"/>
<path d="M2718.38 914.136C2714.99 914.136 2711.97 913.553 2709.32 912.386C2706.68 911.205 2704.6 909.583 2703.07 907.523C2701.55 905.447 2700.77 903.053 2700.72 900.341H2710.63C2710.69 901.477 2711.07 902.477 2711.75 903.341C2712.44 904.189 2713.37 904.848 2714.52 905.318C2715.67 905.788 2716.97 906.023 2718.41 906.023C2719.91 906.023 2721.23 905.758 2722.38 905.227C2723.54 904.697 2724.44 903.962 2725.09 903.023C2725.74 902.083 2726.07 901 2726.07 899.773C2726.07 898.53 2725.72 897.432 2725.02 896.477C2724.34 895.508 2723.35 894.75 2722.07 894.205C2720.79 893.659 2719.28 893.386 2717.52 893.386H2713.18V886.159H2717.52C2719 886.159 2720.32 885.902 2721.45 885.386C2722.6 884.871 2723.5 884.159 2724.13 883.25C2724.77 882.326 2725.09 881.25 2725.09 880.023C2725.09 878.856 2724.81 877.833 2724.25 876.955C2723.7 876.061 2722.93 875.364 2721.93 874.864C2720.94 874.364 2719.79 874.114 2718.47 874.114C2717.14 874.114 2715.92 874.356 2714.82 874.841C2713.71 875.311 2712.82 875.985 2712.16 876.864C2711.49 877.742 2711.13 878.773 2711.09 879.955H2701.66C2701.7 877.273 2702.47 874.909 2703.95 872.864C2705.44 870.818 2707.44 869.22 2709.95 868.068C2712.48 866.902 2715.34 866.318 2718.52 866.318C2721.73 866.318 2724.54 866.902 2726.95 868.068C2729.36 869.235 2731.23 870.811 2732.57 872.795C2733.91 874.765 2734.58 876.977 2734.57 879.432C2734.58 882.038 2733.77 884.212 2732.13 885.955C2730.51 887.697 2728.4 888.803 2725.79 889.273V889.636C2729.22 890.076 2731.82 891.265 2733.61 893.205C2735.41 895.129 2736.31 897.538 2736.29 900.432C2736.31 903.083 2735.54 905.439 2734 907.5C2732.47 909.561 2730.35 911.182 2727.66 912.364C2724.96 913.545 2721.87 914.136 2718.38 914.136Z" fill="#231A13"/>
<path d="M3275.88 905.318V897.568L3295.31 866.955H3301.99V877.682H3298.04L3285.79 897.068V897.432H3313.4V905.318H3275.88ZM3298.22 913.5V902.955L3298.4 899.523V866.955H3307.63V913.5H3298.22Z" fill="#231A13"/>
<rect x="548" y="172" width="174" height="176" rx="87" fill="#BA1A1A"/>
<path d="M595 310L585 300L625 260L585 220L595 210L635 250L675 210L685 220L645 260L685 300L675 310L635 270L595 310Z" fill="white"/>
<rect x="1120" y="167" width="174" height="176" rx="87" fill="#BA1A1A"/>
<path d="M1167 305L1157 295L1197 255L1157 215L1167 205L1207 245L1247 205L1257 215L1217 255L1257 295L1247 305L1207 265L1167 305Z" fill="white"/>
<rect x="1727" y="172" width="174" height="176" rx="87" fill="#BA1A1A"/>
<path d="M1774 310L1764 300L1804 260L1764 220L1774 210L1814 250L1854 210L1864 220L1824 260L1864 300L1854 310L1814 270L1774 310Z" fill="white"/>
<rect x="2304" y="172" width="174" height="176" rx="87" fill="#BA1A1A"/>
<path d="M2351 310L2341 300L2381 260L2341 220L2351 210L2391 250L2431 210L2441 220L2401 260L2441 300L2431 310L2391 270L2351 310Z" fill="white"/>
<rect x="2893" y="172" width="174" height="176" rx="87" fill="#4B6700"/>
<path d="M2961.11 313.261L2916 267.632L2927.28 256.225L2961.11 290.447L3033.72 217L3045 228.407L2961.11 313.261Z" fill="white"/>
<defs>
<clipPath id="clip0_50_2846">
<rect width="458" height="458" fill="white" transform="translate(2471.5 438.5)"/>
</clipPath>
</defs>
</svg>
