<svg width="4000" height="1200" viewBox="0 0 4000 1200" fill="none" xmlns="http://www.w3.org/2000/svg">
<path d="M3615.33 444.792V597.458H3577.17V521.125H3539V597.458H3500.83V521.125H3462.67V597.458H3424.5V521.125H3386.33V597.458H3348.17V482.958L3335.44 470.23L3271.83 521.125V540.208C3271.83 546.888 3271.83 559.292 3310 559.292V597.458C3243.59 597.458 3233.67 561.582 3233.67 540.208V397.083C3233.67 379.369 3240.7 362.38 3253.23 349.855C3265.76 337.329 3282.74 330.292 3300.46 330.292H3500.83C3531.2 330.292 3560.32 342.355 3581.8 363.828C3603.27 385.301 3615.33 414.424 3615.33 444.792Z" fill="#BDBDBD"/>
<path opacity="0.3" d="M3386.33 597.458H3348.17V482.958L3386.33 521.125V597.458ZM3539 521.125H3500.83V597.458H3539V521.125Z" fill="black"/>
<path d="M779.5 599.239C696.81 599.239 638.498 572.008 592.136 553.501V599.239H550.5V578.504L508.364 536.784H446.409V599.239H404.773V535.16C355.413 525.23 321.479 465.232 321.5 371.467V286.092C321.5 248.889 340.195 226.364 362.262 214.477V214.102C362.262 196.865 376.252 182.875 393.489 182.875C407.188 182.875 418.679 191.744 422.905 204.005L424.717 203.693C436.208 203.693 445.535 213.02 445.535 224.511C445.535 236.003 436.208 245.33 424.717 245.33H404.065C394.468 245.475 363.136 248.869 363.136 286.092V350.649C362.262 411.875 411.122 411.708 419.72 411.875H487.608C533.471 411.875 574.295 433.172 600.922 466.356C601.109 466.585 601.338 466.752 601.525 466.981C679.323 568.011 779.5 578.42 779.5 578.42V599.239Z" fill="#2E7D32"/>
<path d="M1880.5 478.206V638.575H1834.7V602.256L1811.8 579.356V638.575H1766V602.256L1731.44 567.7C1713.1 565.799 1693.41 562.639 1674.4 558.585V638.575H1628.6V615.721C1628.6 612.835 1628.1 576.447 1615.39 541.845C1611.97 540.54 1608.75 539.235 1605.7 537.884V638.575H1559.9V615.721C1559.88 610.11 1558.43 478.275 1468.3 478.275H1445.4L1422.5 432.475L1468.3 409.575C1468.3 409.575 1491.2 363.775 1514.1 363.775C1514.67 363.775 1515.52 363.775 1516.21 363.775C1520.92 350.47 1533.52 340.875 1548.45 340.875C1563.38 340.875 1575.98 350.47 1580.69 363.775C1629.56 363.775 1697.69 363.775 1766 363.775C1829.2 363.775 1880.45 415.002 1880.5 478.206Z" fill="#6D4C41"/>
<path d="M3081.5 491.214C3081.5 522.553 3055.83 548.069 3024.25 548.069C3001.35 548.069 2986.76 538.609 2973.89 530.285C2972.52 529.398 2971.12 528.534 2969.75 527.67L3012.32 584.389L3012.8 584.707V585.003L3012.89 585.116L3012.8 585.207V639.038H2978.45V602.4L2936.82 573.199L2921.2 597.738V639.038H2886.85V570.812H2806.7V639.038H2772.35V570.812H2752.15L2708.5 639.038H2667.79L2718.49 559.804L2669.99 479.843H2637.1L2623.5 445.73L2659.5 418.94L2659.57 419.054C2665.43 414.46 2672.71 411.617 2680.75 411.617V388.875H2715.1V411.617L2841.05 468.472L2939.82 479.843L2939.86 480.048C2964.76 483.755 2980.26 493.67 2992.69 501.698C3004.08 509.067 3011.59 513.956 3024.27 513.956C3036.91 513.956 3047.17 503.745 3047.17 491.214C3047.17 478.683 3036.91 468.472 3024.27 468.472H3012.8V434.359H3024.25C3055.83 434.359 3081.5 459.876 3081.5 491.214Z" fill="#424242"/>
<path d="M1295.5 481.975V754.875H1249.7V636.264L1226.8 588.819V648.125C1226.8 650.07 1226.57 652.015 1226.11 653.913L1201.54 754.875H1154.3L1179.72 650.474L1141.68 565.097H1089.4V754.875H1043.6V565.097H1017.68L1000.2 601.274L1041.61 697.776L999.769 717.062L949.573 600.064L991.411 513.406C945.611 500.929 914.558 459.011 907.872 399.611L837.5 375.319V327.875H974.9V375.319C974.9 396.717 979.365 446.486 1020.7 446.486L1078.66 366.969L1078.91 366.922C1093.09 343.532 1118.02 327.875 1146.65 327.875C1166.55 327.875 1184.53 335.656 1198.52 348.086L1282.08 444.209C1290.35 454.504 1295.5 467.551 1295.5 481.975Z" fill="#8D6E63"/>
<rect x="307.5" y="598.875" width="506" height="257" fill="#E59C8C"/>
<rect x="290.5" y="576.875" width="541" height="31" rx="15.5" fill="#41160C"/>
<rect x="347.5" y="790.875" width="130" height="130" rx="65" fill="#1C1B1B"/>
<circle cx="412.5" cy="855.875" r="45" fill="#50453C"/>
<rect x="643.5" y="790.875" width="130" height="130" rx="65" fill="#1C1B1B"/>
<circle cx="708.5" cy="855.875" r="45" fill="#50453C"/>
<rect x="883.5" y="598.875" width="506" height="257" fill="#E59C8C"/>
<rect x="866.5" y="576.875" width="541" height="31" rx="15.5" fill="#41160C"/>
<rect x="923.5" y="790.875" width="130" height="130" rx="65" fill="#1C1B1B"/>
<circle cx="988.5" cy="855.875" r="45" fill="#50453C"/>
<rect x="1219.5" y="790.875" width="130" height="130" rx="65" fill="#1C1B1B"/>
<circle cx="1284.5" cy="855.875" r="45" fill="#50453C"/>
<rect x="1459.5" y="598.875" width="506" height="257" fill="#E59C8C"/>
<rect x="1442.5" y="576.875" width="541" height="31" rx="15.5" fill="#41160C"/>
<rect x="1499.5" y="790.875" width="130" height="130" rx="65" fill="#1C1B1B"/>
<circle cx="1564.5" cy="855.875" r="45" fill="#50453C"/>
<rect x="1795.5" y="790.875" width="130" height="130" rx="65" fill="#1C1B1B"/>
<circle cx="1860.5" cy="855.875" r="45" fill="#50453C"/>
<rect x="2611.5" y="598.875" width="506" height="257" fill="#E59C8C"/>
<rect x="2594.5" y="576.875" width="541" height="31" rx="15.5" fill="#41160C"/>
<rect x="2651.5" y="790.875" width="130" height="130" rx="65" fill="#1C1B1B"/>
<circle cx="2716.5" cy="855.875" r="45" fill="#50453C"/>
<rect x="2947.5" y="790.875" width="130" height="130" rx="65" fill="#1C1B1B"/>
<circle cx="3012.5" cy="855.875" r="45" fill="#50453C"/>
<rect x="3185.5" y="598.875" width="506" height="257" fill="#E59C8C"/>
<rect x="3168.5" y="576.875" width="541" height="31" rx="15.5" fill="#41160C"/>
<rect x="3225.5" y="790.875" width="130" height="130" rx="65" fill="#1C1B1B"/>
<circle cx="3290.5" cy="855.875" r="45" fill="#50453C"/>
<rect x="3521.5" y="790.875" width="130" height="130" rx="65" fill="#1C1B1B"/>
<circle cx="3586.5" cy="855.875" r="45" fill="#50453C"/>
<path d="M798.5 840.375C798.5 831.815 805.44 824.875 814 824.875H883C891.56 824.875 898.5 831.815 898.5 840.375V840.375C898.5 848.935 891.56 855.875 883 855.875H814C805.44 855.875 798.5 848.935 798.5 840.375V840.375Z" fill="#E59C8C"/>
<path d="M1374.5 840.375C1374.5 831.815 1381.44 824.875 1390 824.875H1459C1467.56 824.875 1474.5 831.815 1474.5 840.375V840.375C1474.5 848.935 1467.56 855.875 1459 855.875H1390C1381.44 855.875 1374.5 848.935 1374.5 840.375V840.375Z" fill="#E59C8C"/>
<path d="M1950.5 840.375C1950.5 831.815 1957.44 824.875 1966 824.875H2035C2043.56 824.875 2050.5 831.815 2050.5 840.375V840.375C2050.5 848.935 2043.56 855.875 2035 855.875H1966C1957.44 855.875 1950.5 848.935 1950.5 840.375V840.375Z" fill="#E59C8C"/>
<path d="M2526.5 840.375C2526.5 831.815 2533.44 824.875 2542 824.875H2611C2619.56 824.875 2626.5 831.815 2626.5 840.375V840.375C2626.5 848.935 2619.56 855.875 2611 855.875H2542C2533.44 855.875 2526.5 848.935 2526.5 840.375V840.375Z" fill="#E59C8C"/>
<path d="M3100.5 840.375C3100.5 831.815 3107.44 824.875 3116 824.875H3185C3193.56 824.875 3200.5 831.815 3200.5 840.375V840.375C3200.5 848.935 3193.56 855.875 3185 855.875H3116C3107.44 855.875 3100.5 848.935 3100.5 840.375V840.375Z" fill="#E59C8C"/>
<path d="M412.5 720.939C412.886 720.937 413.265 720.938 413.636 720.944C426.667 720.879 431.028 716.381 429.425 696.123C427.943 687.376 428.039 681.603 429.425 670.179C433.924 662.247 437.135 658.158 447.477 653.259C456.463 651.163 461.652 651.173 471.172 653.259C488.928 658.537 499.967 661.218 525.33 664.539C535.905 666.231 541.834 666.011 552.409 664.539C558.419 661.302 560.216 657.913 561.436 649.875C562.897 658.162 564.984 661.235 570.462 664.539C579.09 666.417 584.49 667.027 598.67 664.539C598.996 665.628 641.892 656.674 650.572 653.259C659.251 649.844 673.138 653.259 673.138 653.259C683.643 655.929 688.845 658.694 694.575 670.179C697.018 681.463 696.705 686.996 694.575 696.123C691.616 715.975 696.689 719.957 711.5 720.939C695.782 720.406 692.366 724.775 694.575 743.499C696.439 753.938 696.757 759.499 694.575 768.315C690.062 780.723 687.806 782.979 673.138 787.491C664.567 788.532 659.67 788.721 650.572 787.491C628.818 784.239 617.424 782.025 598.67 777.339C584.054 774.514 576.899 774.222 570.462 777.339C563.349 780.558 562.24 784.23 561.436 790.875C560.621 783.006 558.92 779.723 552.409 777.339C547.595 775.07 533.178 774.268 525.33 777.339C504.92 782.664 493.219 785.176 471.172 787.491C461.371 788.406 456.154 788.454 447.477 787.491C436.852 782.133 431.243 776.211 429.425 768.315C427.606 760.419 426.822 753.727 429.425 743.499C430.054 726.377 426.654 721.144 413.636 720.944C413.264 720.946 412.886 720.944 412.5 720.939Z" fill="white"/>
<path d="M412.5 720.939C426.457 720.856 430.072 725.889 429.425 743.499C426.822 753.727 427.606 760.419 429.425 768.315C431.243 776.211 436.852 782.133 447.477 787.491C456.154 788.454 461.371 788.406 471.172 787.491C493.219 785.176 504.92 782.664 525.33 777.339C533.178 774.268 547.595 775.07 552.409 777.339C558.92 779.723 560.621 783.006 561.436 790.875C562.24 784.23 563.349 780.558 570.462 777.339C576.899 774.222 584.054 774.514 598.67 777.339C617.424 782.025 628.818 784.239 650.572 787.491C659.67 788.721 664.567 788.532 673.138 787.491C687.806 782.979 690.062 780.723 694.575 768.315C696.757 759.499 696.439 753.938 694.575 743.499C692.366 724.775 695.782 720.406 711.5 720.939C696.689 719.957 691.616 715.975 694.575 696.123C696.705 686.996 697.018 681.463 694.575 670.179C688.845 658.694 683.643 655.929 673.138 653.259C673.138 653.259 659.251 649.844 650.572 653.259C641.892 656.674 598.996 665.628 598.67 664.539C584.49 667.027 579.09 666.417 570.462 664.539C564.984 661.235 562.897 658.162 561.436 649.875C560.216 657.913 558.419 661.302 552.409 664.539C541.834 666.011 535.905 666.231 525.33 664.539C499.967 661.218 488.928 658.537 471.172 653.259C461.652 651.173 456.463 651.163 447.477 653.259C437.135 658.158 433.924 662.247 429.425 670.179C428.039 681.603 427.943 687.376 429.425 696.123C431.073 716.959 426.414 721.123 412.5 720.939Z" stroke="#232E12" stroke-width="4"/>
<path d="M412.5 720.939C412.886 720.937 413.265 720.938 413.636 720.944C426.667 720.879 431.028 716.381 429.425 696.123C427.943 687.376 428.039 681.603 429.425 670.179C433.924 662.247 437.135 658.158 447.477 653.259C456.463 651.163 461.652 651.173 471.172 653.259C488.928 658.537 499.967 661.218 525.33 664.539C535.905 666.231 541.834 666.011 552.409 664.539C558.419 661.302 560.216 657.913 561.436 649.875C562.897 658.162 564.984 661.235 570.462 664.539C579.09 666.417 584.49 667.027 598.67 664.539C598.996 665.628 641.892 656.674 650.572 653.259C659.251 649.844 673.138 653.259 673.138 653.259C683.643 655.929 688.845 658.694 694.575 670.179C697.018 681.463 696.705 686.996 694.575 696.123C691.616 715.975 696.689 719.957 711.5 720.939C695.782 720.406 692.366 724.775 694.575 743.499C696.439 753.938 696.757 759.499 694.575 768.315C690.062 780.723 687.806 782.979 673.138 787.491C664.567 788.532 659.67 788.721 650.572 787.491C628.818 784.239 617.424 782.025 598.67 777.339C584.054 774.514 576.899 774.222 570.462 777.339C563.349 780.558 562.24 784.23 561.436 790.875C560.621 783.006 558.92 779.723 552.409 777.339C547.595 775.07 533.178 774.268 525.33 777.339C504.92 782.664 493.219 785.176 471.172 787.491C461.371 788.406 456.154 788.454 447.477 787.491C436.852 782.133 431.243 776.211 429.425 768.315C427.606 760.419 426.822 753.727 429.425 743.499C430.054 726.377 426.654 721.144 413.636 720.944C413.264 720.946 412.886 720.944 412.5 720.939Z" fill="#F1DFD3"/>
<path d="M412.5 720.939C426.457 720.856 430.072 725.889 429.425 743.499C426.822 753.727 427.606 760.419 429.425 768.315C431.243 776.211 436.852 782.133 447.477 787.491C456.154 788.454 461.371 788.406 471.172 787.491C493.219 785.176 504.92 782.664 525.33 777.339C533.178 774.268 547.595 775.07 552.409 777.339C558.92 779.723 560.621 783.006 561.436 790.875C562.24 784.23 563.349 780.558 570.462 777.339C576.899 774.222 584.054 774.514 598.67 777.339C617.424 782.025 628.818 784.239 650.572 787.491C659.67 788.721 664.567 788.532 673.138 787.491C687.806 782.979 690.062 780.723 694.575 768.315C696.757 759.499 696.439 753.938 694.575 743.499C692.366 724.775 695.782 720.406 711.5 720.939C696.689 719.957 691.616 715.975 694.575 696.123C696.705 686.996 697.018 681.463 694.575 670.179C688.845 658.694 683.643 655.929 673.138 653.259C673.138 653.259 659.251 649.844 650.572 653.259C641.892 656.674 598.996 665.628 598.67 664.539C584.49 667.027 579.09 666.417 570.462 664.539C564.984 661.235 562.897 658.162 561.436 649.875C560.216 657.913 558.419 661.302 552.409 664.539C541.834 666.011 535.905 666.231 525.33 664.539C499.967 661.218 488.928 658.537 471.172 653.259C461.652 651.173 456.463 651.163 447.477 653.259C437.135 658.158 433.924 662.247 429.425 670.179C428.039 681.603 427.943 687.376 429.425 696.123C431.073 716.959 426.414 721.123 412.5 720.939Z" stroke="#232E12" stroke-width="4"/>
<path d="M988.5 720.939C988.886 720.937 989.265 720.938 989.636 720.944C1002.67 720.879 1007.03 716.381 1005.42 696.123C1003.94 687.376 1004.04 681.603 1005.42 670.179C1009.92 662.247 1013.13 658.158 1023.48 653.259C1032.46 651.163 1037.65 651.173 1047.17 653.259C1064.93 658.537 1075.97 661.218 1101.33 664.539C1111.91 666.231 1117.83 666.011 1128.41 664.539C1134.42 661.302 1136.22 657.913 1137.44 649.875C1138.9 658.162 1140.98 661.235 1146.46 664.539C1155.09 666.417 1160.49 667.027 1174.67 664.539C1175 665.628 1217.89 656.674 1226.57 653.259C1235.25 649.844 1249.14 653.259 1249.14 653.259C1259.64 655.929 1264.85 658.694 1270.58 670.179C1273.02 681.463 1272.71 686.996 1270.58 696.123C1267.62 715.975 1272.69 719.957 1287.5 720.939C1271.78 720.406 1268.37 724.775 1270.58 743.499C1272.44 753.938 1272.76 759.499 1270.58 768.315C1266.06 780.723 1263.81 782.979 1249.14 787.491C1240.57 788.532 1235.67 788.721 1226.57 787.491C1204.82 784.239 1193.42 782.025 1174.67 777.339C1160.05 774.514 1152.9 774.222 1146.46 777.339C1139.35 780.558 1138.24 784.23 1137.44 790.875C1136.62 783.006 1134.92 779.723 1128.41 777.339C1123.59 775.07 1109.18 774.268 1101.33 777.339C1080.92 782.664 1069.22 785.176 1047.17 787.491C1037.37 788.406 1032.15 788.454 1023.48 787.491C1012.85 782.133 1007.24 776.211 1005.42 768.315C1003.61 760.419 1002.82 753.727 1005.42 743.499C1006.05 726.377 1002.65 721.144 989.636 720.944C989.264 720.946 988.886 720.944 988.5 720.939Z" fill="#F1DFD3"/>
<path d="M988.5 720.939C1002.46 720.856 1006.07 725.889 1005.42 743.499C1002.82 753.727 1003.61 760.419 1005.42 768.315C1007.24 776.211 1012.85 782.133 1023.48 787.491C1032.15 788.454 1037.37 788.406 1047.17 787.491C1069.22 785.176 1080.92 782.664 1101.33 777.339C1109.18 774.268 1123.59 775.07 1128.41 777.339C1134.92 779.723 1136.62 783.006 1137.44 790.875C1138.24 784.23 1139.35 780.558 1146.46 777.339C1152.9 774.222 1160.05 774.514 1174.67 777.339C1193.42 782.025 1204.82 784.239 1226.57 787.491C1235.67 788.721 1240.57 788.532 1249.14 787.491C1263.81 782.979 1266.06 780.723 1270.58 768.315C1272.76 759.499 1272.44 753.938 1270.58 743.499C1268.37 724.775 1271.78 720.406 1287.5 720.939C1272.69 719.957 1267.62 715.975 1270.58 696.123C1272.71 686.996 1273.02 681.463 1270.58 670.179C1264.85 658.694 1259.64 655.929 1249.14 653.259C1249.14 653.259 1235.25 649.844 1226.57 653.259C1217.89 656.674 1175 665.628 1174.67 664.539C1160.49 667.027 1155.09 666.417 1146.46 664.539C1140.98 661.235 1138.9 658.162 1137.44 649.875C1136.22 657.913 1134.42 661.302 1128.41 664.539C1117.83 666.011 1111.91 666.231 1101.33 664.539C1075.97 661.218 1064.93 658.537 1047.17 653.259C1037.65 651.173 1032.46 651.163 1023.48 653.259C1013.13 658.158 1009.92 662.247 1005.42 670.179C1004.04 681.603 1003.94 687.376 1005.42 696.123C1007.07 716.959 1002.41 721.123 988.5 720.939Z" stroke="#232E12" stroke-width="4"/>
<path d="M1564.5 720.939C1564.89 720.937 1565.27 720.938 1565.64 720.944C1578.67 720.879 1583.03 716.381 1581.42 696.123C1579.94 687.376 1580.04 681.603 1581.42 670.179C1585.92 662.247 1589.13 658.158 1599.48 653.259C1608.46 651.163 1613.65 651.173 1623.17 653.259C1640.93 658.537 1651.97 661.218 1677.33 664.539C1687.91 666.231 1693.83 666.011 1704.41 664.539C1710.42 661.302 1712.22 657.913 1713.44 649.875C1714.9 658.162 1716.98 661.235 1722.46 664.539C1731.09 666.417 1736.49 667.027 1750.67 664.539C1751 665.628 1793.89 656.674 1802.57 653.259C1811.25 649.844 1825.14 653.259 1825.14 653.259C1835.64 655.929 1840.85 658.694 1846.58 670.179C1849.02 681.463 1848.71 686.996 1846.58 696.123C1843.62 715.975 1848.69 719.957 1863.5 720.939C1847.78 720.406 1844.37 724.775 1846.58 743.499C1848.44 753.938 1848.76 759.499 1846.58 768.315C1842.06 780.723 1839.81 782.979 1825.14 787.491C1816.57 788.532 1811.67 788.721 1802.57 787.491C1780.82 784.239 1769.42 782.025 1750.67 777.339C1736.05 774.514 1728.9 774.222 1722.46 777.339C1715.35 780.558 1714.24 784.23 1713.44 790.875C1712.62 783.006 1710.92 779.723 1704.41 777.339C1699.59 775.07 1685.18 774.268 1677.33 777.339C1656.92 782.664 1645.22 785.176 1623.17 787.491C1613.37 788.406 1608.15 788.454 1599.48 787.491C1588.85 782.133 1583.24 776.211 1581.42 768.315C1579.61 760.419 1578.82 753.727 1581.42 743.499C1582.05 726.377 1578.65 721.144 1565.64 720.944C1565.26 720.946 1564.89 720.944 1564.5 720.939Z" fill="#F1DFD3"/>
<path d="M1564.5 720.939C1578.46 720.856 1582.07 725.889 1581.42 743.499C1578.82 753.727 1579.61 760.419 1581.42 768.315C1583.24 776.211 1588.85 782.133 1599.48 787.491C1608.15 788.454 1613.37 788.406 1623.17 787.491C1645.22 785.176 1656.92 782.664 1677.33 777.339C1685.18 774.268 1699.59 775.07 1704.41 777.339C1710.92 779.723 1712.62 783.006 1713.44 790.875C1714.24 784.23 1715.35 780.558 1722.46 777.339C1728.9 774.222 1736.05 774.514 1750.67 777.339C1769.42 782.025 1780.82 784.239 1802.57 787.491C1811.67 788.721 1816.57 788.532 1825.14 787.491C1839.81 782.979 1842.06 780.723 1846.58 768.315C1848.76 759.499 1848.44 753.938 1846.58 743.499C1844.37 724.775 1847.78 720.406 1863.5 720.939C1848.69 719.957 1843.62 715.975 1846.58 696.123C1848.71 686.996 1849.02 681.463 1846.58 670.179C1840.85 658.694 1835.64 655.929 1825.14 653.259C1825.14 653.259 1811.25 649.844 1802.57 653.259C1793.89 656.674 1751 665.628 1750.67 664.539C1736.49 667.027 1731.09 666.417 1722.46 664.539C1716.98 661.235 1714.9 658.162 1713.44 649.875C1712.22 657.913 1710.42 661.302 1704.41 664.539C1693.83 666.011 1687.91 666.231 1677.33 664.539C1651.97 661.218 1640.93 658.537 1623.17 653.259C1613.65 651.173 1608.46 651.163 1599.48 653.259C1589.13 658.158 1585.92 662.247 1581.42 670.179C1580.04 681.603 1579.94 687.376 1581.42 696.123C1583.07 716.959 1578.41 721.123 1564.5 720.939Z" stroke="#232E12" stroke-width="4"/>
<path d="M2716.5 720.939C2716.89 720.937 2717.27 720.938 2717.64 720.944C2730.67 720.879 2735.03 716.381 2733.42 696.123C2731.94 687.376 2732.04 681.603 2733.42 670.179C2737.92 662.247 2741.13 658.158 2751.48 653.259C2760.46 651.163 2765.65 651.173 2775.17 653.259C2792.93 658.537 2803.97 661.218 2829.33 664.539C2839.91 666.231 2845.83 666.011 2856.41 664.539C2862.42 661.302 2864.22 657.913 2865.44 649.875C2866.9 658.162 2868.98 661.235 2874.46 664.539C2883.09 666.417 2888.49 667.027 2902.67 664.539C2903 665.628 2945.89 656.674 2954.57 653.259C2963.25 649.844 2977.14 653.259 2977.14 653.259C2987.64 655.929 2992.85 658.694 2998.58 670.179C3001.02 681.463 3000.71 686.996 2998.58 696.123C2995.62 715.975 3000.69 719.957 3015.5 720.939C2999.78 720.406 2996.37 724.775 2998.58 743.499C3000.44 753.938 3000.76 759.499 2998.58 768.315C2994.06 780.723 2991.81 782.979 2977.14 787.491C2968.57 788.532 2963.67 788.721 2954.57 787.491C2932.82 784.239 2921.42 782.025 2902.67 777.339C2888.05 774.514 2880.9 774.222 2874.46 777.339C2867.35 780.558 2866.24 784.23 2865.44 790.875C2864.62 783.006 2862.92 779.723 2856.41 777.339C2851.59 775.07 2837.18 774.268 2829.33 777.339C2808.92 782.664 2797.22 785.176 2775.17 787.491C2765.37 788.406 2760.15 788.454 2751.48 787.491C2740.85 782.133 2735.24 776.211 2733.42 768.315C2731.61 760.419 2730.82 753.727 2733.42 743.499C2734.05 726.377 2730.65 721.144 2717.64 720.944C2717.26 720.946 2716.89 720.944 2716.5 720.939Z" fill="#F1DFD3"/>
<path d="M2716.5 720.939C2730.46 720.856 2734.07 725.889 2733.42 743.499C2730.82 753.727 2731.61 760.419 2733.42 768.315C2735.24 776.211 2740.85 782.133 2751.48 787.491C2760.15 788.454 2765.37 788.406 2775.17 787.491C2797.22 785.176 2808.92 782.664 2829.33 777.339C2837.18 774.268 2851.59 775.07 2856.41 777.339C2862.92 779.723 2864.62 783.006 2865.44 790.875C2866.24 784.23 2867.35 780.558 2874.46 777.339C2880.9 774.222 2888.05 774.514 2902.67 777.339C2921.42 782.025 2932.82 784.239 2954.57 787.491C2963.67 788.721 2968.57 788.532 2977.14 787.491C2991.81 782.979 2994.06 780.723 2998.58 768.315C3000.76 759.499 3000.44 753.938 2998.58 743.499C2996.37 724.775 2999.78 720.406 3015.5 720.939C3000.69 719.957 2995.62 715.975 2998.58 696.123C3000.71 686.996 3001.02 681.463 2998.58 670.179C2992.85 658.694 2987.64 655.929 2977.14 653.259C2977.14 653.259 2963.25 649.844 2954.57 653.259C2945.89 656.674 2903 665.628 2902.67 664.539C2888.49 667.027 2883.09 666.417 2874.46 664.539C2868.98 661.235 2866.9 658.162 2865.44 649.875C2864.22 657.913 2862.42 661.302 2856.41 664.539C2845.83 666.011 2839.91 666.231 2829.33 664.539C2803.97 661.218 2792.93 658.537 2775.17 653.259C2765.65 651.173 2760.46 651.163 2751.48 653.259C2741.13 658.158 2737.92 662.247 2733.42 670.179C2732.04 681.603 2731.94 687.376 2733.42 696.123C2735.07 716.959 2730.41 721.123 2716.5 720.939Z" stroke="#232E12" stroke-width="4"/>
<path d="M3290.5 720.939C3290.89 720.937 3291.27 720.938 3291.64 720.944C3304.67 720.879 3309.03 716.381 3307.42 696.123C3305.94 687.376 3306.04 681.603 3307.42 670.179C3311.92 662.247 3315.13 658.158 3325.48 653.259C3334.46 651.163 3339.65 651.173 3349.17 653.259C3366.93 658.537 3377.97 661.218 3403.33 664.539C3413.91 666.231 3419.83 666.011 3430.41 664.539C3436.42 661.302 3438.22 657.913 3439.44 649.875C3440.9 658.162 3442.98 661.235 3448.46 664.539C3457.09 666.417 3462.49 667.027 3476.67 664.539C3477 665.628 3519.89 656.674 3528.57 653.259C3537.25 649.844 3551.14 653.259 3551.14 653.259C3561.64 655.929 3566.85 658.694 3572.58 670.179C3575.02 681.463 3574.71 686.996 3572.58 696.123C3569.62 715.975 3574.69 719.957 3589.5 720.939C3573.78 720.406 3570.37 724.775 3572.58 743.499C3574.44 753.938 3574.76 759.499 3572.58 768.315C3568.06 780.723 3565.81 782.979 3551.14 787.491C3542.57 788.532 3537.67 788.721 3528.57 787.491C3506.82 784.239 3495.42 782.025 3476.67 777.339C3462.05 774.514 3454.9 774.222 3448.46 777.339C3441.35 780.558 3440.24 784.23 3439.44 790.875C3438.62 783.006 3436.92 779.723 3430.41 777.339C3425.59 775.07 3411.18 774.268 3403.33 777.339C3382.92 782.664 3371.22 785.176 3349.17 787.491C3339.37 788.406 3334.15 788.454 3325.48 787.491C3314.85 782.133 3309.24 776.211 3307.42 768.315C3305.61 760.419 3304.82 753.727 3307.42 743.499C3308.05 726.377 3304.65 721.144 3291.64 720.944C3291.26 720.946 3290.89 720.944 3290.5 720.939Z" fill="#F1DFD3"/>
<path d="M3290.5 720.939C3304.46 720.856 3308.07 725.889 3307.42 743.499C3304.82 753.727 3305.61 760.419 3307.42 768.315C3309.24 776.211 3314.85 782.133 3325.48 787.491C3334.15 788.454 3339.37 788.406 3349.17 787.491C3371.22 785.176 3382.92 782.664 3403.33 777.339C3411.18 774.268 3425.59 775.07 3430.41 777.339C3436.92 779.723 3438.62 783.006 3439.44 790.875C3440.24 784.23 3441.35 780.558 3448.46 777.339C3454.9 774.222 3462.05 774.514 3476.67 777.339C3495.42 782.025 3506.82 784.239 3528.57 787.491C3537.67 788.721 3542.57 788.532 3551.14 787.491C3565.81 782.979 3568.06 780.723 3572.58 768.315C3574.76 759.499 3574.44 753.938 3572.58 743.499C3570.37 724.775 3573.78 720.406 3589.5 720.939C3574.69 719.957 3569.62 715.975 3572.58 696.123C3574.71 686.996 3575.02 681.463 3572.58 670.179C3566.85 658.694 3561.64 655.929 3551.14 653.259C3551.14 653.259 3537.25 649.844 3528.57 653.259C3519.89 656.674 3477 665.628 3476.67 664.539C3462.49 667.027 3457.09 666.417 3448.46 664.539C3442.98 661.235 3440.9 658.162 3439.44 649.875C3438.22 657.913 3436.42 661.302 3430.41 664.539C3419.83 666.011 3413.91 666.231 3403.33 664.539C3377.97 661.218 3366.93 658.537 3349.17 653.259C3339.65 651.173 3334.46 651.163 3325.48 653.259C3315.13 658.158 3311.92 662.247 3307.42 670.179C3306.04 681.603 3305.94 687.376 3307.42 696.123C3309.07 716.959 3304.41 721.123 3290.5 720.939Z" stroke="#232E12" stroke-width="4"/>
<path d="M562.491 744.898C558.582 744.883 555.219 743.92 552.401 742.011C549.598 740.102 547.438 737.337 545.923 733.716C544.423 730.095 543.681 725.739 543.696 720.648C543.696 715.572 544.446 711.246 545.946 707.67C547.461 704.095 549.62 701.375 552.423 699.511C555.241 697.633 558.598 696.693 562.491 696.693C566.385 696.693 569.734 697.633 572.537 699.511C575.355 701.39 577.522 704.117 579.037 707.693C580.552 711.254 581.302 715.572 581.287 720.648C581.287 725.754 580.529 730.117 579.014 733.739C577.514 737.36 575.363 740.125 572.56 742.034C569.757 743.943 566.401 744.898 562.491 744.898ZM562.491 736.739C565.158 736.739 567.287 735.398 568.878 732.716C570.469 730.034 571.257 726.011 571.241 720.648C571.241 717.117 570.878 714.178 570.151 711.83C569.438 709.481 568.423 707.716 567.105 706.534C565.802 705.352 564.264 704.761 562.491 704.761C559.84 704.761 557.719 706.087 556.128 708.739C554.537 711.39 553.734 715.36 553.719 720.648C553.719 724.223 554.075 727.208 554.787 729.602C555.514 731.981 556.537 733.769 557.855 734.966C559.173 736.148 560.719 736.739 562.491 736.739Z" fill="#231A13"/>
<path d="M1146.87 697.33V743.875H1137.03V706.67H1136.75L1126.09 713.352V704.625L1137.62 697.33H1146.87Z" fill="#231A13"/>
<path d="M1698.12 743.875V736.784L1714.68 721.443C1716.09 720.08 1717.28 718.852 1718.23 717.761C1719.2 716.67 1719.93 715.602 1720.43 714.557C1720.93 713.496 1721.18 712.352 1721.18 711.125C1721.18 709.761 1720.87 708.587 1720.25 707.602C1719.63 706.602 1718.78 705.837 1717.71 705.307C1716.63 704.761 1715.41 704.489 1714.05 704.489C1712.62 704.489 1711.38 704.777 1710.32 705.352C1709.26 705.928 1708.44 706.754 1707.87 707.83C1707.29 708.905 1707 710.186 1707 711.67H1697.66C1697.66 708.625 1698.35 705.981 1699.73 703.739C1701.11 701.496 1703.04 699.761 1705.53 698.534C1708.01 697.307 1710.87 696.693 1714.12 696.693C1717.45 696.693 1720.35 697.284 1722.82 698.466C1725.31 699.633 1727.24 701.254 1728.62 703.33C1730 705.405 1730.68 707.784 1730.68 710.466C1730.68 712.223 1730.34 713.958 1729.64 715.67C1728.96 717.383 1727.74 719.284 1725.98 721.375C1724.22 723.451 1721.75 725.943 1718.55 728.852L1711.75 735.511V735.83H1731.3V743.875H1698.12Z" fill="#231A13"/>
<path d="M2847.88 735.693V727.943L2867.31 697.33H2873.99V708.057H2870.04L2857.79 727.443V727.807H2885.4V735.693H2847.88ZM2870.22 743.875V733.33L2870.4 729.898V697.33H2879.63V743.875H2870.22Z" fill="#231A13"/>
<path d="M3440.65 744.511C3437.44 744.511 3434.57 743.92 3432.06 742.739C3429.56 741.557 3427.57 739.928 3426.1 737.852C3424.63 735.777 3423.87 733.398 3423.81 730.716H3433.35C3433.46 732.519 3434.22 733.981 3435.62 735.102C3437.03 736.223 3438.71 736.784 3440.65 736.784C3442.19 736.784 3443.56 736.443 3444.74 735.761C3445.94 735.064 3446.87 734.102 3447.53 732.875C3448.22 731.633 3448.56 730.208 3448.56 728.602C3448.56 726.966 3448.21 725.527 3447.51 724.284C3446.83 723.042 3445.88 722.072 3444.67 721.375C3443.46 720.678 3442.07 720.322 3440.51 720.307C3439.15 720.307 3437.82 720.587 3436.53 721.148C3435.26 721.708 3434.27 722.473 3433.56 723.443L3424.81 721.875L3427.01 697.33H3455.47V705.375H3435.12L3433.92 717.034H3434.19C3435.01 715.883 3436.25 714.928 3437.9 714.17C3439.55 713.413 3441.4 713.034 3443.44 713.034C3446.25 713.034 3448.75 713.693 3450.94 715.011C3453.14 716.33 3454.88 718.14 3456.15 720.443C3457.42 722.731 3458.05 725.367 3458.03 728.352C3458.05 731.489 3457.32 734.277 3455.85 736.716C3454.4 739.14 3452.36 741.049 3449.74 742.443C3447.13 743.822 3444.1 744.511 3440.65 744.511Z" fill="#231A13"/>
<path d="M2061.82 1017.12L2002.5 957.8L2239.8 720.5L2002.5 483.2L2061.82 423.875L2299.12 661.175L2536.42 423.875L2595.75 483.2L2358.45 720.5L2595.75 957.8L2536.42 1017.12L2299.12 779.825L2061.82 1017.12Z" fill="#BA1A1A"/>
</svg>
